<svg width="363" height="141" viewBox="0 0 363 141" fill="none" xmlns="http://www.w3.org/2000/svg">
<path d="M43.2346 61.7147L1 43.148V141H361V8.52341L355.972 7.01799L328.821 37.6281L317.76 34.6173L283.57 63.2202L279.547 65.7292L244.855 32.1082L234.296 37.6281L215.19 7.01799H211.67L189.547 32.1082H187.034L171.95 51.1768L154.352 73.7581L149.827 76.7689L139.771 65.2274L118.654 6.01438L113.626 1.99994L105.581 6.01438L91 38.6317L85.4693 43.148L74.4078 36.1227L64.352 38.6317L43.2346 61.7147Z" fill="url(#paint0_linear_18_1365)"/>
<path d="M1 43.2217L39.9251 60.3851C42.7597 61.635 46.0869 60.5382 47.7875 57.9488C53.9069 48.6315 68.6948 29.395 80.7756 39.7447C96.4278 53.154 97.3403 -1.49632 115.614 2.4973C124.703 4.48348 126.617 29.9335 134.801 51.1676C140.526 66.022 143.217 73.9769 149.992 75.6598C151.83 76.1166 153.645 75.1052 154.777 73.5863L185.22 32.7531C185.828 31.9381 186.965 31.7372 187.815 32.2946V32.2946C188.666 32.8529 189.805 32.6504 190.412 31.833L207.019 9.46038C209.616 5.96197 214.958 6.31054 217.078 10.1167L229.938 33.2022C231.509 36.0224 235.03 37.094 237.906 35.6273L242.355 33.3582C244.741 32.1413 247.644 32.6531 249.47 34.6125L275.734 62.7943C277.948 65.1699 281.65 65.3531 284.087 63.2078L315.133 35.8853C316.924 34.3085 319.48 33.9435 321.642 34.9559L324.346 36.2224C326.884 37.4113 329.907 36.6844 331.628 34.4716L351.162 9.34456C353.233 6.68059 357.093 6.24778 359.703 8.38688L361 9.45026" stroke="#10828D" stroke-width="4"/>
<defs>
<linearGradient id="paint0_linear_18_1365" x1="181" y1="1.99994" x2="181" y2="141" gradientUnits="userSpaceOnUse">
<stop stop-color="#0A9396" stop-opacity="0.44"/>
<stop offset="1" stop-color="#0A9396" stop-opacity="0"/>
</linearGradient>
</defs>
</svg>
