<svg width="511" height="80" viewBox="0 0 511 80" fill="none" xmlns="http://www.w3.org/2000/svg">
<rect width="461" height="80" rx="18" fill="#FDD239"/>
<path d="M73.598 46V31.4545H82.7173V33.3438H75.7926V37.7756H82.2415V39.6577H75.7926V44.1108H82.8026V46H73.598ZM87.6019 31.4545V46H85.4783V31.4545H87.6019ZM100.326 50.3182C99.4592 50.3182 98.7134 50.2045 98.0884 49.9773C97.4682 49.75 96.9615 49.4493 96.5685 49.0753C96.1755 48.7012 95.882 48.2917 95.6879 47.8466L97.5131 47.0938C97.641 47.3021 97.8114 47.5223 98.0245 47.7543C98.2423 47.991 98.5359 48.1922 98.9052 48.358C99.2792 48.5237 99.7598 48.6065 100.347 48.6065C101.152 48.6065 101.817 48.41 102.343 48.017C102.868 47.6288 103.131 47.0085 103.131 46.1562V44.0114H102.996C102.868 44.2434 102.684 44.5014 102.442 44.7855C102.205 45.0696 101.879 45.3158 101.462 45.5241C101.045 45.7325 100.503 45.8366 99.8356 45.8366C98.9738 45.8366 98.1973 45.6354 97.506 45.233C96.8195 44.8258 96.275 44.2268 95.8725 43.4361C95.4748 42.6406 95.2759 41.6629 95.2759 40.5028C95.2759 39.3428 95.4724 38.3485 95.8654 37.5199C96.2631 36.6913 96.8076 36.0568 97.4989 35.6165C98.1902 35.1714 98.9738 34.9489 99.8498 34.9489C100.527 34.9489 101.074 35.0625 101.49 35.2898C101.907 35.5123 102.231 35.7727 102.463 36.071C102.7 36.3693 102.882 36.6321 103.01 36.8594H103.167V35.0909H105.248V46.2415C105.248 47.179 105.03 47.9484 104.594 48.5497C104.158 49.151 103.569 49.5961 102.826 49.8849C102.087 50.1738 101.254 50.3182 100.326 50.3182ZM100.304 44.0753C100.915 44.0753 101.431 43.9332 101.853 43.6491C102.279 43.3603 102.601 42.9484 102.819 42.4134C103.041 41.8736 103.152 41.2273 103.152 40.4744C103.152 39.7405 103.043 39.0942 102.826 38.5355C102.608 37.9768 102.288 37.5412 101.867 37.2287C101.445 36.9115 100.925 36.7528 100.304 36.7528C99.6651 36.7528 99.1325 36.9186 98.7063 37.25C98.2802 37.5767 97.9582 38.0218 97.7404 38.5852C97.5273 39.1487 97.4208 39.7784 97.4208 40.4744C97.4208 41.1894 97.5297 41.8168 97.7475 42.3565C97.9653 42.8963 98.2873 43.3177 98.7134 43.6207C99.1443 43.9238 99.6746 44.0753 100.304 44.0753ZM111.27 46.2415C110.579 46.2415 109.954 46.1136 109.395 45.858C108.837 45.5975 108.394 45.2211 108.067 44.7287C107.745 44.2363 107.584 43.6326 107.584 42.9176C107.584 42.3021 107.703 41.7955 107.939 41.3977C108.176 41 108.496 40.6851 108.898 40.4531C109.301 40.2211 109.75 40.0459 110.248 39.9276C110.745 39.8092 111.251 39.7192 111.767 39.6577C112.421 39.5819 112.951 39.5204 113.358 39.473C113.766 39.4209 114.061 39.3381 114.246 39.2244C114.431 39.1108 114.523 38.9261 114.523 38.6705V38.6207C114.523 38.0005 114.348 37.5199 113.998 37.179C113.652 36.8381 113.136 36.6676 112.449 36.6676C111.734 36.6676 111.171 36.8262 110.759 37.1435C110.352 37.456 110.07 37.804 109.914 38.1875L107.918 37.733C108.155 37.0701 108.5 36.535 108.955 36.1278C109.414 35.7159 109.942 35.4176 110.539 35.233C111.135 35.0436 111.763 34.9489 112.421 34.9489C112.856 34.9489 113.318 35.0009 113.806 35.1051C114.298 35.2045 114.757 35.3892 115.184 35.6591C115.614 35.929 115.967 36.3149 116.242 36.8168C116.516 37.3139 116.654 37.9602 116.654 38.7557V46H114.58V44.5085H114.495C114.357 44.7831 114.151 45.053 113.877 45.3182C113.602 45.5833 113.249 45.8035 112.819 45.9787C112.388 46.1539 111.872 46.2415 111.27 46.2415ZM111.732 44.5369C112.319 44.5369 112.821 44.4209 113.238 44.1889C113.659 43.9569 113.979 43.6539 114.196 43.2798C114.419 42.901 114.53 42.4962 114.53 42.0653V40.6591C114.454 40.7348 114.308 40.8059 114.09 40.8722C113.877 40.9337 113.633 40.9882 113.358 41.0355C113.084 41.0781 112.816 41.1184 112.556 41.1562C112.295 41.1894 112.078 41.2178 111.902 41.2415C111.49 41.2936 111.114 41.3812 110.773 41.5043C110.437 41.6274 110.167 41.8049 109.963 42.0369C109.765 42.2642 109.665 42.5672 109.665 42.946C109.665 43.4716 109.859 43.8693 110.248 44.1392C110.636 44.4044 111.131 44.5369 111.732 44.5369ZM127.657 37.7543L125.732 38.0952C125.652 37.849 125.524 37.6146 125.349 37.392C125.178 37.1695 124.946 36.9872 124.653 36.8452C124.359 36.7031 123.992 36.6321 123.552 36.6321C122.951 36.6321 122.449 36.767 122.046 37.0369C121.644 37.3021 121.442 37.6454 121.442 38.0668C121.442 38.4313 121.577 38.7249 121.847 38.9474C122.117 39.17 122.553 39.3523 123.154 39.4943L124.887 39.892C125.891 40.1241 126.639 40.4815 127.131 40.9645C127.624 41.4474 127.87 42.0748 127.87 42.8466C127.87 43.5 127.681 44.0824 127.302 44.5938C126.928 45.1004 126.405 45.4981 125.732 45.7869C125.065 46.0758 124.29 46.2202 123.41 46.2202C122.188 46.2202 121.192 45.9598 120.42 45.4389C119.648 44.9134 119.174 44.1676 118.999 43.2017L121.052 42.8892C121.18 43.4242 121.442 43.8291 121.84 44.1037C122.238 44.3736 122.756 44.5085 123.396 44.5085C124.092 44.5085 124.648 44.3641 125.065 44.0753C125.481 43.7817 125.69 43.4242 125.69 43.0028C125.69 42.6619 125.562 42.3755 125.306 42.1435C125.055 41.9115 124.669 41.7363 124.148 41.6179L122.302 41.2131C121.284 40.9811 120.531 40.6117 120.043 40.1051C119.56 39.5985 119.319 38.9569 119.319 38.1804C119.319 37.5365 119.499 36.973 119.859 36.4901C120.219 36.0071 120.716 35.6307 121.35 35.3608C121.985 35.0862 122.711 34.9489 123.531 34.9489C124.71 34.9489 125.638 35.2045 126.315 35.7159C126.992 36.2225 127.439 36.902 127.657 37.7543ZM135.297 35.0909V36.7955H129.338V35.0909H135.297ZM130.936 32.4773H133.06V42.7969C133.06 43.2088 133.122 43.5189 133.245 43.7273C133.368 43.9309 133.526 44.0705 133.721 44.1463C133.919 44.2173 134.135 44.2528 134.367 44.2528C134.537 44.2528 134.686 44.241 134.814 44.2173C134.942 44.1937 135.042 44.1747 135.113 44.1605L135.496 45.9148C135.373 45.9621 135.198 46.0095 134.971 46.0568C134.743 46.1089 134.459 46.1373 134.118 46.142C133.56 46.1515 133.039 46.0521 132.556 45.8438C132.073 45.6354 131.682 45.3134 131.384 44.8778C131.086 44.4422 130.936 43.8954 130.936 43.2372V32.4773ZM142.124 46.2202C141.102 46.2202 140.209 45.9858 139.447 45.517C138.684 45.0483 138.093 44.3925 137.671 43.5497C137.25 42.7069 137.039 41.7221 137.039 40.5952C137.039 39.4635 137.25 38.474 137.671 37.6264C138.093 36.7789 138.684 36.1207 139.447 35.652C140.209 35.1832 141.102 34.9489 142.124 34.9489C143.147 34.9489 144.04 35.1832 144.802 35.652C145.564 36.1207 146.156 36.7789 146.577 37.6264C146.999 38.474 147.21 39.4635 147.21 40.5952C147.21 41.7221 146.999 42.7069 146.577 43.5497C146.156 44.3925 145.564 45.0483 144.802 45.517C144.04 45.9858 143.147 46.2202 142.124 46.2202ZM142.131 44.4375C142.794 44.4375 143.344 44.2623 143.779 43.9119C144.215 43.5616 144.537 43.0952 144.745 42.5128C144.958 41.9304 145.065 41.2888 145.065 40.5881C145.065 39.892 144.958 39.2528 144.745 38.6705C144.537 38.0833 144.215 37.6122 143.779 37.2571C143.344 36.902 142.794 36.7244 142.131 36.7244C141.464 36.7244 140.91 36.902 140.469 37.2571C140.034 37.6122 139.71 38.0833 139.496 38.6705C139.288 39.2528 139.184 39.892 139.184 40.5881C139.184 41.2888 139.288 41.9304 139.496 42.5128C139.71 43.0952 140.034 43.5616 140.469 43.9119C140.91 44.2623 141.464 44.4375 142.131 44.4375ZM160.065 35.0909V36.7955H153.9V35.0909H160.065ZM155.59 46V33.8267C155.59 33.1449 155.739 32.5791 156.038 32.1293C156.336 31.6747 156.731 31.3362 157.224 31.1136C157.716 30.8864 158.251 30.7727 158.829 30.7727C159.255 30.7727 159.62 30.8082 159.923 30.8793C160.226 30.9455 160.451 31.0071 160.597 31.0639L160.1 32.7827C160.001 32.7543 159.873 32.7211 159.717 32.6832C159.56 32.6406 159.371 32.6193 159.148 32.6193C158.632 32.6193 158.263 32.7472 158.04 33.0028C157.823 33.2585 157.714 33.6278 157.714 34.1108V46H155.59ZM169.166 41.4759V35.0909H171.297V46H169.209V44.1108H169.095C168.844 44.6932 168.442 45.1785 167.888 45.5668C167.339 45.9503 166.654 46.142 165.835 46.142C165.134 46.142 164.514 45.9882 163.974 45.6804C163.439 45.3679 163.018 44.9062 162.71 44.2955C162.407 43.6847 162.256 42.9295 162.256 42.0298V35.0909H164.379V41.7741C164.379 42.5175 164.585 43.1094 164.997 43.5497C165.409 43.9901 165.944 44.2102 166.602 44.2102C167 44.2102 167.395 44.1108 167.788 43.9119C168.186 43.7131 168.515 43.4124 168.776 43.0099C169.041 42.6075 169.171 42.0961 169.166 41.4759ZM178.852 46.2202C177.777 46.2202 176.851 45.9905 176.075 45.5312C175.303 45.0672 174.707 44.4162 174.285 43.5781C173.868 42.7353 173.66 41.7481 173.66 40.6165C173.66 39.4991 173.868 38.5142 174.285 37.6619C174.707 36.8097 175.294 36.1444 176.047 35.6662C176.804 35.188 177.69 34.9489 178.703 34.9489C179.318 34.9489 179.915 35.0507 180.493 35.2543C181.07 35.4579 181.589 35.7775 182.048 36.2131C182.507 36.6487 182.869 37.2145 183.135 37.9105C183.4 38.6018 183.532 39.4422 183.532 40.4318V41.1847H174.86V39.5938H181.451C181.451 39.035 181.338 38.5402 181.11 38.1094C180.883 37.6738 180.564 37.3305 180.152 37.0795C179.744 36.8286 179.266 36.7031 178.717 36.7031C178.12 36.7031 177.6 36.8499 177.154 37.1435C176.714 37.4323 176.373 37.8111 176.132 38.2798C175.895 38.7438 175.777 39.2481 175.777 39.7926V41.0355C175.777 41.7647 175.904 42.3849 176.16 42.8963C176.421 43.4077 176.783 43.7983 177.247 44.0682C177.711 44.3333 178.253 44.4659 178.873 44.4659C179.276 44.4659 179.643 44.4091 179.974 44.2955C180.306 44.1771 180.592 44.0019 180.833 43.7699C181.075 43.5379 181.26 43.2514 181.387 42.9105L183.397 43.2727C183.236 43.8646 182.948 44.383 182.531 44.8281C182.119 45.2685 181.6 45.6117 180.975 45.858C180.355 46.0994 179.647 46.2202 178.852 46.2202ZM191.181 46V35.0909H193.234V36.8239H193.348C193.547 36.2367 193.897 35.7751 194.399 35.4389C194.905 35.098 195.478 34.9276 196.118 34.9276C196.25 34.9276 196.406 34.9323 196.586 34.9418C196.771 34.9512 196.915 34.9631 197.02 34.9773V37.0085C196.934 36.9848 196.783 36.9588 196.565 36.9304C196.347 36.8973 196.129 36.8807 195.912 36.8807C195.41 36.8807 194.962 36.9872 194.569 37.2003C194.181 37.4086 193.873 37.6998 193.646 38.0739C193.419 38.4432 193.305 38.8646 193.305 39.3381V46H191.181ZM203.168 46.2202C202.094 46.2202 201.168 45.9905 200.391 45.5312C199.62 45.0672 199.023 44.4162 198.602 43.5781C198.185 42.7353 197.977 41.7481 197.977 40.6165C197.977 39.4991 198.185 38.5142 198.602 37.6619C199.023 36.8097 199.61 36.1444 200.363 35.6662C201.121 35.188 202.006 34.9489 203.019 34.9489C203.635 34.9489 204.231 35.0507 204.809 35.2543C205.387 35.4579 205.905 35.7775 206.364 36.2131C206.824 36.6487 207.186 37.2145 207.451 37.9105C207.716 38.6018 207.849 39.4422 207.849 40.4318V41.1847H199.177V39.5938H205.768C205.768 39.035 205.654 38.5402 205.427 38.1094C205.2 37.6738 204.88 37.3305 204.468 37.0795C204.061 36.8286 203.583 36.7031 203.033 36.7031C202.437 36.7031 201.916 36.8499 201.471 37.1435C201.031 37.4323 200.69 37.8111 200.448 38.2798C200.211 38.7438 200.093 39.2481 200.093 39.7926V41.0355C200.093 41.7647 200.221 42.3849 200.477 42.8963C200.737 43.4077 201.099 43.7983 201.563 44.0682C202.027 44.3333 202.569 44.4659 203.19 44.4659C203.592 44.4659 203.959 44.4091 204.29 44.2955C204.622 44.1771 204.908 44.0019 205.15 43.7699C205.391 43.5379 205.576 43.2514 205.704 42.9105L207.714 43.2727C207.553 43.8646 207.264 44.383 206.847 44.8281C206.435 45.2685 205.917 45.6117 205.292 45.858C204.672 46.0994 203.964 46.2202 203.168 46.2202ZM214.779 50.3182C213.912 50.3182 213.167 50.2045 212.542 49.9773C211.921 49.75 211.415 49.4493 211.022 49.0753C210.629 48.7012 210.335 48.2917 210.141 47.8466L211.966 47.0938C212.094 47.3021 212.265 47.5223 212.478 47.7543C212.695 47.991 212.989 48.1922 213.358 48.358C213.732 48.5237 214.213 48.6065 214.8 48.6065C215.605 48.6065 216.27 48.41 216.796 48.017C217.321 47.6288 217.584 47.0085 217.584 46.1562V44.0114H217.449C217.321 44.2434 217.137 44.5014 216.895 44.7855C216.658 45.0696 216.332 45.3158 215.915 45.5241C215.498 45.7325 214.956 45.8366 214.289 45.8366C213.427 45.8366 212.65 45.6354 211.959 45.233C211.273 44.8258 210.728 44.2268 210.326 43.4361C209.928 42.6406 209.729 41.6629 209.729 40.5028C209.729 39.3428 209.926 38.3485 210.319 37.5199C210.716 36.6913 211.261 36.0568 211.952 35.6165C212.643 35.1714 213.427 34.9489 214.303 34.9489C214.98 34.9489 215.527 35.0625 215.944 35.2898C216.36 35.5123 216.685 35.7727 216.917 36.071C217.153 36.3693 217.336 36.6321 217.463 36.8594H217.62V35.0909H219.701V46.2415C219.701 47.179 219.483 47.9484 219.047 48.5497C218.612 49.151 218.022 49.5961 217.279 49.8849C216.54 50.1738 215.707 50.3182 214.779 50.3182ZM214.757 44.0753C215.368 44.0753 215.884 43.9332 216.306 43.6491C216.732 43.3603 217.054 42.9484 217.272 42.4134C217.494 41.8736 217.605 41.2273 217.605 40.4744C217.605 39.7405 217.497 39.0942 217.279 38.5355C217.061 37.9768 216.741 37.5412 216.32 37.2287C215.899 36.9115 215.378 36.7528 214.757 36.7528C214.118 36.7528 213.586 36.9186 213.159 37.25C212.733 37.5767 212.411 38.0218 212.194 38.5852C211.98 39.1487 211.874 39.7784 211.874 40.4744C211.874 41.1894 211.983 41.8168 212.201 42.3565C212.418 42.8963 212.74 43.3177 213.167 43.6207C213.597 43.9238 214.128 44.0753 214.757 44.0753ZM222.549 46V35.0909H224.672V46H222.549ZM223.621 33.4077C223.252 33.4077 222.935 33.2846 222.669 33.0384C222.409 32.7874 222.279 32.4891 222.279 32.1435C222.279 31.7931 222.409 31.4948 222.669 31.2486C222.935 30.9976 223.252 30.8722 223.621 30.8722C223.99 30.8722 224.305 30.9976 224.566 31.2486C224.831 31.4948 224.963 31.7931 224.963 32.1435C224.963 32.4891 224.831 32.7874 224.566 33.0384C224.305 33.2846 223.99 33.4077 223.621 33.4077ZM235.704 37.7543L233.779 38.0952C233.699 37.849 233.571 37.6146 233.396 37.392C233.225 37.1695 232.993 36.9872 232.7 36.8452C232.406 36.7031 232.039 36.6321 231.599 36.6321C230.997 36.6321 230.496 36.767 230.093 37.0369C229.691 37.3021 229.489 37.6454 229.489 38.0668C229.489 38.4313 229.624 38.7249 229.894 38.9474C230.164 39.17 230.6 39.3523 231.201 39.4943L232.934 39.892C233.938 40.1241 234.686 40.4815 235.178 40.9645C235.671 41.4474 235.917 42.0748 235.917 42.8466C235.917 43.5 235.728 44.0824 235.349 44.5938C234.975 45.1004 234.451 45.4981 233.779 45.7869C233.112 46.0758 232.337 46.2202 231.457 46.2202C230.235 46.2202 229.238 45.9598 228.467 45.4389C227.695 44.9134 227.221 44.1676 227.046 43.2017L229.099 42.8892C229.227 43.4242 229.489 43.8291 229.887 44.1037C230.285 44.3736 230.803 44.5085 231.442 44.5085C232.138 44.5085 232.695 44.3641 233.112 44.0753C233.528 43.7817 233.737 43.4242 233.737 43.0028C233.737 42.6619 233.609 42.3755 233.353 42.1435C233.102 41.9115 232.716 41.7363 232.195 41.6179L230.349 41.2131C229.331 40.9811 228.578 40.6117 228.09 40.1051C227.607 39.5985 227.366 38.9569 227.366 38.1804C227.366 37.5365 227.546 36.973 227.906 36.4901C228.265 36.0071 228.763 35.6307 229.397 35.3608C230.031 35.0862 230.758 34.9489 231.577 34.9489C232.756 34.9489 233.684 35.2045 234.362 35.7159C235.039 36.2225 235.486 36.902 235.704 37.7543ZM243.344 35.0909V36.7955H237.385V35.0909H243.344ZM238.983 32.4773H241.107V42.7969C241.107 43.2088 241.168 43.5189 241.292 43.7273C241.415 43.9309 241.573 44.0705 241.767 44.1463C241.966 44.2173 242.182 44.2528 242.414 44.2528C242.584 44.2528 242.733 44.241 242.861 44.2173C242.989 44.1937 243.088 44.1747 243.159 44.1605L243.543 45.9148C243.42 45.9621 243.245 46.0095 243.017 46.0568C242.79 46.1089 242.506 46.1373 242.165 46.142C241.606 46.1515 241.086 46.0521 240.603 45.8438C240.12 45.6354 239.729 45.3134 239.431 44.8778C239.132 44.4422 238.983 43.8954 238.983 43.2372V32.4773ZM245.693 46V35.0909H247.746V36.8239H247.859C248.058 36.2367 248.409 35.7751 248.911 35.4389C249.417 35.098 249.99 34.9276 250.629 34.9276C250.762 34.9276 250.918 34.9323 251.098 34.9418C251.283 34.9512 251.427 34.9631 251.531 34.9773V37.0085C251.446 36.9848 251.295 36.9588 251.077 36.9304C250.859 36.8973 250.641 36.8807 250.423 36.8807C249.921 36.8807 249.474 36.9872 249.081 37.2003C248.693 37.4086 248.385 37.6998 248.158 38.0739C247.93 38.4432 247.817 38.8646 247.817 39.3381V46H245.693ZM256.446 46.2415C255.755 46.2415 255.13 46.1136 254.571 45.858C254.012 45.5975 253.57 45.2211 253.243 44.7287C252.921 44.2363 252.76 43.6326 252.76 42.9176C252.76 42.3021 252.878 41.7955 253.115 41.3977C253.352 41 253.671 40.6851 254.074 40.4531C254.476 40.2211 254.926 40.0459 255.423 39.9276C255.92 39.8092 256.427 39.7192 256.943 39.6577C257.597 39.5819 258.127 39.5204 258.534 39.473C258.941 39.4209 259.237 39.3381 259.422 39.2244C259.607 39.1108 259.699 38.9261 259.699 38.6705V38.6207C259.699 38.0005 259.524 37.5199 259.173 37.179C258.828 36.8381 258.312 36.6676 257.625 36.6676C256.91 36.6676 256.347 36.8262 255.935 37.1435C255.527 37.456 255.246 37.804 255.089 38.1875L253.094 37.733C253.33 37.0701 253.676 36.535 254.131 36.1278C254.59 35.7159 255.118 35.4176 255.714 35.233C256.311 35.0436 256.938 34.9489 257.597 34.9489C258.032 34.9489 258.494 35.0009 258.982 35.1051C259.474 35.2045 259.933 35.3892 260.359 35.6591C260.79 35.929 261.143 36.3149 261.418 36.8168C261.692 37.3139 261.83 37.9602 261.83 38.7557V46H259.756V44.5085H259.67C259.533 44.7831 259.327 45.053 259.053 45.3182C258.778 45.5833 258.425 45.8035 257.994 45.9787C257.563 46.1539 257.047 46.2415 256.446 46.2415ZM256.908 44.5369C257.495 44.5369 257.997 44.4209 258.413 44.1889C258.835 43.9569 259.154 43.6539 259.372 43.2798C259.595 42.901 259.706 42.4962 259.706 42.0653V40.6591C259.63 40.7348 259.483 40.8059 259.266 40.8722C259.053 40.9337 258.809 40.9882 258.534 41.0355C258.259 41.0781 257.992 41.1184 257.732 41.1562C257.471 41.1894 257.253 41.2178 257.078 41.2415C256.666 41.2936 256.29 41.3812 255.949 41.5043C255.613 41.6274 255.343 41.8049 255.139 42.0369C254.94 42.2642 254.841 42.5672 254.841 42.946C254.841 43.4716 255.035 43.8693 255.423 44.1392C255.812 44.4044 256.306 44.5369 256.908 44.5369ZM268.742 46.2131C267.861 46.2131 267.075 45.9882 266.384 45.5384C265.697 45.0838 265.158 44.4375 264.765 43.5994C264.376 42.7566 264.182 41.7457 264.182 40.5668C264.182 39.3878 264.379 38.3793 264.772 37.5412C265.169 36.7031 265.714 36.0616 266.405 35.6165C267.096 35.1714 267.88 34.9489 268.756 34.9489C269.433 34.9489 269.978 35.0625 270.39 35.2898C270.806 35.5123 271.128 35.7727 271.355 36.071C271.587 36.3693 271.767 36.6321 271.895 36.8594H272.023V31.4545H274.147V46H272.073V44.3026H271.895C271.767 44.5346 271.583 44.7997 271.341 45.098C271.105 45.3963 270.778 45.6567 270.361 45.8793C269.944 46.1018 269.405 46.2131 268.742 46.2131ZM269.211 44.402C269.821 44.402 270.337 44.241 270.759 43.919C271.185 43.5923 271.507 43.1402 271.725 42.5625C271.947 41.9848 272.059 41.3125 272.059 40.5455C272.059 39.7879 271.95 39.125 271.732 38.5568C271.514 37.9886 271.194 37.5459 270.773 37.2287C270.352 36.9115 269.831 36.7528 269.211 36.7528C268.571 36.7528 268.039 36.9186 267.613 37.25C267.186 37.5814 266.864 38.0336 266.647 38.6065C266.434 39.1795 266.327 39.8258 266.327 40.5455C266.327 41.2746 266.436 41.9304 266.654 42.5128C266.872 43.0952 267.194 43.5568 267.62 43.8977C268.051 44.2339 268.581 44.402 269.211 44.402ZM281.773 46.2202C280.75 46.2202 279.857 45.9858 279.095 45.517C278.333 45.0483 277.741 44.3925 277.32 43.5497C276.898 42.7069 276.688 41.7221 276.688 40.5952C276.688 39.4635 276.898 38.474 277.32 37.6264C277.741 36.7789 278.333 36.1207 279.095 35.652C279.857 35.1832 280.75 34.9489 281.773 34.9489C282.795 34.9489 283.688 35.1832 284.45 35.652C285.213 36.1207 285.804 36.7789 286.226 37.6264C286.647 38.474 286.858 39.4635 286.858 40.5952C286.858 41.7221 286.647 42.7069 286.226 43.5497C285.804 44.3925 285.213 45.0483 284.45 45.517C283.688 45.9858 282.795 46.2202 281.773 46.2202ZM281.78 44.4375C282.443 44.4375 282.992 44.2623 283.428 43.9119C283.863 43.5616 284.185 43.0952 284.393 42.5128C284.607 41.9304 284.713 41.2888 284.713 40.5881C284.713 39.892 284.607 39.2528 284.393 38.6705C284.185 38.0833 283.863 37.6122 283.428 37.2571C282.992 36.902 282.443 36.7244 281.78 36.7244C281.112 36.7244 280.558 36.902 280.118 37.2571C279.682 37.6122 279.358 38.0833 279.145 38.6705C278.937 39.2528 278.832 39.892 278.832 40.5881C278.832 41.2888 278.937 41.9304 279.145 42.5128C279.358 43.0952 279.682 43.5616 280.118 43.9119C280.558 44.2623 281.112 44.4375 281.78 44.4375ZM299.116 46.2202C298.061 46.2202 297.152 45.9811 296.389 45.5028C295.632 45.0199 295.049 44.3546 294.642 43.5071C294.235 42.6596 294.031 41.6889 294.031 40.5952C294.031 39.4872 294.24 38.5095 294.656 37.6619C295.073 36.8097 295.66 36.1444 296.418 35.6662C297.175 35.188 298.068 34.9489 299.095 34.9489C299.924 34.9489 300.662 35.1027 301.311 35.4105C301.96 35.7135 302.483 36.1397 302.881 36.6889C303.283 37.2382 303.522 37.8797 303.598 38.6136H301.531C301.418 38.1023 301.157 37.6619 300.75 37.2926C300.348 36.9233 299.808 36.7386 299.131 36.7386C298.539 36.7386 298.02 36.8949 297.575 37.2074C297.135 37.5152 296.792 37.9555 296.545 38.5284C296.299 39.0966 296.176 39.7689 296.176 40.5455C296.176 41.3409 296.297 42.0275 296.538 42.6051C296.78 43.1828 297.121 43.6302 297.561 43.9474C298.006 44.2647 298.529 44.4233 299.131 44.4233C299.533 44.4233 299.898 44.3499 300.224 44.2031C300.556 44.0516 300.833 43.8362 301.055 43.5568C301.283 43.2775 301.441 42.9413 301.531 42.5483H303.598C303.522 43.2538 303.293 43.8835 302.909 44.4375C302.526 44.9915 302.012 45.4271 301.368 45.7443C300.729 46.0616 299.978 46.2202 299.116 46.2202ZM310.464 46.2202C309.441 46.2202 308.549 45.9858 307.787 45.517C307.024 45.0483 306.432 44.3925 306.011 43.5497C305.59 42.7069 305.379 41.7221 305.379 40.5952C305.379 39.4635 305.59 38.474 306.011 37.6264C306.432 36.7789 307.024 36.1207 307.787 35.652C308.549 35.1832 309.441 34.9489 310.464 34.9489C311.487 34.9489 312.379 35.1832 313.142 35.652C313.904 36.1207 314.496 36.7789 314.917 37.6264C315.339 38.474 315.549 39.4635 315.549 40.5952C315.549 41.7221 315.339 42.7069 314.917 43.5497C314.496 44.3925 313.904 45.0483 313.142 45.517C312.379 45.9858 311.487 46.2202 310.464 46.2202ZM310.471 44.4375C311.134 44.4375 311.683 44.2623 312.119 43.9119C312.555 43.5616 312.877 43.0952 313.085 42.5128C313.298 41.9304 313.404 41.2888 313.404 40.5881C313.404 39.892 313.298 39.2528 313.085 38.6705C312.877 38.0833 312.555 37.6122 312.119 37.2571C311.683 36.902 311.134 36.7244 310.471 36.7244C309.804 36.7244 309.25 36.902 308.809 37.2571C308.374 37.6122 308.049 38.0833 307.836 38.6705C307.628 39.2528 307.524 39.892 307.524 40.5881C307.524 41.2888 307.628 41.9304 307.836 42.5128C308.049 43.0952 308.374 43.5616 308.809 43.9119C309.25 44.2623 309.804 44.4375 310.471 44.4375ZM317.92 46V35.0909H319.972V36.8239H320.086C320.285 36.2367 320.635 35.7751 321.137 35.4389C321.644 35.098 322.217 34.9276 322.856 34.9276C322.988 34.9276 323.145 34.9323 323.325 34.9418C323.509 34.9512 323.654 34.9631 323.758 34.9773V37.0085C323.673 36.9848 323.521 36.9588 323.303 36.9304C323.085 36.8973 322.868 36.8807 322.65 36.8807C322.148 36.8807 321.701 36.9872 321.308 37.2003C320.919 37.4086 320.612 37.6998 320.384 38.0739C320.157 38.4432 320.043 38.8646 320.043 39.3381V46H317.92ZM325.596 46V35.0909H327.648V36.8239H327.762C327.961 36.2367 328.311 35.7751 328.813 35.4389C329.319 35.098 329.892 34.9276 330.532 34.9276C330.664 34.9276 330.82 34.9323 331 34.9418C331.185 34.9512 331.329 34.9631 331.434 34.9773V37.0085C331.348 36.9848 331.197 36.9588 330.979 36.9304C330.761 36.8973 330.543 36.8807 330.326 36.8807C329.824 36.8807 329.376 36.9872 328.983 37.2003C328.595 37.4086 328.287 37.6998 328.06 38.0739C327.833 38.4432 327.719 38.8646 327.719 39.3381V46H325.596ZM337.582 46.2202C336.508 46.2202 335.582 45.9905 334.805 45.5312C334.034 45.0672 333.437 44.4162 333.016 43.5781C332.599 42.7353 332.391 41.7481 332.391 40.6165C332.391 39.4991 332.599 38.5142 333.016 37.6619C333.437 36.8097 334.024 36.1444 334.777 35.6662C335.535 35.188 336.42 34.9489 337.433 34.9489C338.049 34.9489 338.645 35.0507 339.223 35.2543C339.801 35.4579 340.319 35.7775 340.778 36.2131C341.238 36.6487 341.6 37.2145 341.865 37.9105C342.13 38.6018 342.263 39.4422 342.263 40.4318V41.1847H333.591V39.5938H340.182C340.182 39.035 340.068 38.5402 339.841 38.1094C339.614 37.6738 339.294 37.3305 338.882 37.0795C338.475 36.8286 337.997 36.7031 337.447 36.7031C336.851 36.7031 336.33 36.8499 335.885 37.1435C335.445 37.4323 335.104 37.8111 334.862 38.2798C334.625 38.7438 334.507 39.2481 334.507 39.7926V41.0355C334.507 41.7647 334.635 42.3849 334.891 42.8963C335.151 43.4077 335.513 43.7983 335.977 44.0682C336.441 44.3333 336.983 44.4659 337.604 44.4659C338.006 44.4659 338.373 44.4091 338.705 44.2955C339.036 44.1771 339.322 44.0019 339.564 43.7699C339.805 43.5379 339.99 43.2514 340.118 42.9105L342.128 43.2727C341.967 43.8646 341.678 44.383 341.261 44.8281C340.849 45.2685 340.331 45.6117 339.706 45.858C339.086 46.0994 338.378 46.2202 337.582 46.2202ZM349.214 46.2202C348.158 46.2202 347.249 45.9811 346.487 45.5028C345.729 45.0199 345.147 44.3546 344.74 43.5071C344.333 42.6596 344.129 41.6889 344.129 40.5952C344.129 39.4872 344.337 38.5095 344.754 37.6619C345.171 36.8097 345.758 36.1444 346.515 35.6662C347.273 35.188 348.165 34.9489 349.193 34.9489C350.021 34.9489 350.76 35.1027 351.409 35.4105C352.057 35.7135 352.581 36.1397 352.978 36.6889C353.381 37.2382 353.62 37.8797 353.696 38.6136H351.629C351.515 38.1023 351.255 37.6619 350.848 37.2926C350.445 36.9233 349.905 36.7386 349.228 36.7386C348.636 36.7386 348.118 36.8949 347.673 37.2074C347.233 37.5152 346.889 37.9555 346.643 38.5284C346.397 39.0966 346.274 39.7689 346.274 40.5455C346.274 41.3409 346.395 42.0275 346.636 42.6051C346.877 43.1828 347.218 43.6302 347.659 43.9474C348.104 44.2647 348.627 44.4233 349.228 44.4233C349.631 44.4233 349.995 44.3499 350.322 44.2031C350.654 44.0516 350.931 43.8362 351.153 43.5568C351.38 43.2775 351.539 42.9413 351.629 42.5483H353.696C353.62 43.2538 353.39 43.8835 353.007 44.4375C352.623 44.9915 352.109 45.4271 351.466 45.7443C350.826 46.0616 350.076 46.2202 349.214 46.2202ZM361.059 35.0909V36.7955H355.1V35.0909H361.059ZM356.698 32.4773H358.822V42.7969C358.822 43.2088 358.883 43.5189 359.006 43.7273C359.129 43.9309 359.288 44.0705 359.482 44.1463C359.681 44.2173 359.897 44.2528 360.129 44.2528C360.299 44.2528 360.448 44.241 360.576 44.2173C360.704 44.1937 360.803 44.1747 360.874 44.1605L361.258 45.9148C361.135 45.9621 360.96 46.0095 360.732 46.0568C360.505 46.1089 360.221 46.1373 359.88 46.142C359.321 46.1515 358.8 46.0521 358.317 45.8438C357.835 45.6354 357.444 45.3134 357.146 44.8778C356.847 44.4422 356.698 43.8954 356.698 43.2372V32.4773ZM366.583 46.2415C365.891 46.2415 365.266 46.1136 364.708 45.858C364.149 45.5975 363.706 45.2211 363.38 44.7287C363.058 44.2363 362.897 43.6326 362.897 42.9176C362.897 42.3021 363.015 41.7955 363.252 41.3977C363.489 41 363.808 40.6851 364.211 40.4531C364.613 40.2211 365.063 40.0459 365.56 39.9276C366.057 39.8092 366.564 39.7192 367.08 39.6577C367.733 39.5819 368.264 39.5204 368.671 39.473C369.078 39.4209 369.374 39.3381 369.559 39.2244C369.743 39.1108 369.836 38.9261 369.836 38.6705V38.6207C369.836 38.0005 369.66 37.5199 369.31 37.179C368.964 36.8381 368.448 36.6676 367.762 36.6676C367.047 36.6676 366.483 36.8262 366.071 37.1435C365.664 37.456 365.382 37.804 365.226 38.1875L363.23 37.733C363.467 37.0701 363.813 36.535 364.267 36.1278C364.727 35.7159 365.255 35.4176 365.851 35.233C366.448 35.0436 367.075 34.9489 367.733 34.9489C368.169 34.9489 368.631 35.0009 369.118 35.1051C369.611 35.2045 370.07 35.3892 370.496 35.6591C370.927 35.929 371.28 36.3149 371.554 36.8168C371.829 37.3139 371.966 37.9602 371.966 38.7557V46H369.892V44.5085H369.807C369.67 44.7831 369.464 45.053 369.189 45.3182C368.915 45.5833 368.562 45.8035 368.131 45.9787C367.7 46.1539 367.184 46.2415 366.583 46.2415ZM367.044 44.5369C367.632 44.5369 368.133 44.4209 368.55 44.1889C368.971 43.9569 369.291 43.6539 369.509 43.2798C369.731 42.901 369.843 42.4962 369.843 42.0653V40.6591C369.767 40.7348 369.62 40.8059 369.402 40.8722C369.189 40.9337 368.945 40.9882 368.671 41.0355C368.396 41.0781 368.129 41.1184 367.868 41.1562C367.608 41.1894 367.39 41.2178 367.215 41.2415C366.803 41.2936 366.426 41.3812 366.086 41.5043C365.749 41.6274 365.48 41.8049 365.276 42.0369C365.077 42.2642 364.978 42.5672 364.978 42.946C364.978 43.4716 365.172 43.8693 365.56 44.1392C365.948 44.4044 366.443 44.5369 367.044 44.5369ZM374.795 46V35.0909H376.833V36.8665H376.968C377.195 36.2652 377.567 35.7964 378.083 35.4602C378.599 35.1193 379.217 34.9489 379.937 34.9489C380.666 34.9489 381.277 35.1193 381.769 35.4602C382.266 35.8011 382.633 36.2699 382.87 36.8665H382.984C383.244 36.2841 383.658 35.8201 384.227 35.4744C384.795 35.1241 385.472 34.9489 386.258 34.9489C387.247 34.9489 388.055 35.259 388.68 35.8793C389.309 36.4995 389.624 37.4347 389.624 38.6847V46H387.501V38.8835C387.501 38.1449 387.299 37.6098 386.897 37.2784C386.495 36.947 386.014 36.7812 385.455 36.7812C384.764 36.7812 384.227 36.9943 383.843 37.4205C383.46 37.8419 383.268 38.384 383.268 39.0469V46H381.151V38.7486C381.151 38.1567 380.967 37.6809 380.597 37.321C380.228 36.9612 379.747 36.7812 379.156 36.7812C378.753 36.7812 378.381 36.8878 378.04 37.1009C377.704 37.3092 377.432 37.6004 377.224 37.9744C377.02 38.3485 376.918 38.7817 376.918 39.2741V46H374.795ZM397.172 46.2202C396.097 46.2202 395.172 45.9905 394.395 45.5312C393.623 45.0672 393.027 44.4162 392.605 43.5781C392.189 42.7353 391.98 41.7481 391.98 40.6165C391.98 39.4991 392.189 38.5142 392.605 37.6619C393.027 36.8097 393.614 36.1444 394.367 35.6662C395.124 35.188 396.01 34.9489 397.023 34.9489C397.639 34.9489 398.235 35.0507 398.813 35.2543C399.391 35.4579 399.909 35.7775 400.368 36.2131C400.828 36.6487 401.19 37.2145 401.455 37.9105C401.72 38.6018 401.853 39.4422 401.853 40.4318V41.1847H393.181V39.5938H399.772C399.772 39.035 399.658 38.5402 399.431 38.1094C399.203 37.6738 398.884 37.3305 398.472 37.0795C398.065 36.8286 397.587 36.7031 397.037 36.7031C396.441 36.7031 395.92 36.8499 395.475 37.1435C395.034 37.4323 394.694 37.8111 394.452 38.2798C394.215 38.7438 394.097 39.2481 394.097 39.7926V41.0355C394.097 41.7647 394.225 42.3849 394.48 42.8963C394.741 43.4077 395.103 43.7983 395.567 44.0682C396.031 44.3333 396.573 44.4659 397.194 44.4659C397.596 44.4659 397.963 44.4091 398.294 44.2955C398.626 44.1771 398.912 44.0019 399.154 43.7699C399.395 43.5379 399.58 43.2514 399.708 42.9105L401.718 43.2727C401.557 43.8646 401.268 44.383 400.851 44.8281C400.439 45.2685 399.921 45.6117 399.296 45.858C398.676 46.0994 397.968 46.2202 397.172 46.2202ZM406.332 39.5227V46H404.209V35.0909H406.247V36.8665H406.382C406.633 36.2888 407.026 35.8248 407.561 35.4744C408.101 35.1241 408.78 34.9489 409.599 34.9489C410.343 34.9489 410.994 35.1051 411.553 35.4176C412.111 35.7254 412.545 36.1847 412.852 36.7955C413.16 37.4062 413.314 38.1615 413.314 39.0611V46H411.19V39.3168C411.19 38.526 410.984 37.9081 410.572 37.4631C410.161 37.0133 409.595 36.7884 408.875 36.7884C408.383 36.7884 407.945 36.8949 407.561 37.108C407.182 37.321 406.882 37.6335 406.659 38.0455C406.441 38.4527 406.332 38.9451 406.332 39.5227ZM421.254 35.0909V36.7955H415.295V35.0909H421.254ZM416.893 32.4773H419.017V42.7969C419.017 43.2088 419.079 43.5189 419.202 43.7273C419.325 43.9309 419.483 44.0705 419.678 44.1463C419.876 44.2173 420.092 44.2528 420.324 44.2528C420.494 44.2528 420.643 44.241 420.771 44.2173C420.899 44.1937 420.999 44.1747 421.07 44.1605L421.453 45.9148C421.33 45.9621 421.155 46.0095 420.928 46.0568C420.7 46.1089 420.416 46.1373 420.075 46.142C419.517 46.1515 418.996 46.0521 418.513 45.8438C418.03 45.6354 417.639 45.3134 417.341 44.8778C417.043 44.4422 416.893 43.8954 416.893 43.2372V32.4773ZM428.188 46.2202C427.113 46.2202 426.187 45.9905 425.411 45.5312C424.639 45.0672 424.042 44.4162 423.621 43.5781C423.204 42.7353 422.996 41.7481 422.996 40.6165C422.996 39.4991 423.204 38.5142 423.621 37.6619C424.042 36.8097 424.63 36.1444 425.382 35.6662C426.14 35.188 427.025 34.9489 428.039 34.9489C428.654 34.9489 429.251 35.0507 429.828 35.2543C430.406 35.4579 430.925 35.7775 431.384 36.2131C431.843 36.6487 432.205 37.2145 432.471 37.9105C432.736 38.6018 432.868 39.4422 432.868 40.4318V41.1847H424.196V39.5938H430.787C430.787 39.035 430.674 38.5402 430.446 38.1094C430.219 37.6738 429.9 37.3305 429.488 37.0795C429.08 36.8286 428.602 36.7031 428.053 36.7031C427.456 36.7031 426.935 36.8499 426.49 37.1435C426.05 37.4323 425.709 37.8111 425.468 38.2798C425.231 38.7438 425.113 39.2481 425.113 39.7926V41.0355C425.113 41.7647 425.24 42.3849 425.496 42.8963C425.757 43.4077 426.119 43.7983 426.583 44.0682C427.047 44.3333 427.589 44.4659 428.209 44.4659C428.612 44.4659 428.979 44.4091 429.31 44.2955C429.641 44.1771 429.928 44.0019 430.169 43.7699C430.411 43.5379 430.596 43.2514 430.723 42.9105L432.733 43.2727C432.572 43.8646 432.283 44.383 431.867 44.8281C431.455 45.2685 430.936 45.6117 430.311 45.858C429.691 46.0994 428.983 46.2202 428.188 46.2202Z" fill="#1B1818"/>
<g filter="url(#filter0_d_6_2)">
<path d="M34 18.125C39.8016 18.125 45.3656 20.4297 49.468 24.532C53.5703 28.6344 55.875 34.1984 55.875 40C55.875 45.8016 53.5703 51.3656 49.468 55.468C45.3656 59.5703 39.8016 61.875 34 61.875C28.1984 61.875 22.6344 59.5703 18.532 55.468C14.4297 51.3656 12.125 45.8016 12.125 40C12.125 34.1984 14.4297 28.6344 18.532 24.532C22.6344 20.4297 28.1984 18.125 34 18.125ZM31.275 44.3156L26.4156 39.4531C26.2414 39.2789 26.0346 39.1407 25.807 39.0464C25.5794 38.9522 25.3354 38.9036 25.0891 38.9036C24.8427 38.9036 24.5987 38.9522 24.3711 39.0464C24.1435 39.1407 23.9367 39.2789 23.7625 39.4531C23.4107 39.805 23.213 40.2821 23.213 40.7797C23.213 41.2772 23.4107 41.7544 23.7625 42.1062L29.95 48.2938C30.1237 48.4688 30.3304 48.6078 30.558 48.7026C30.7857 48.7975 31.0299 48.8463 31.2766 48.8463C31.5232 48.8463 31.7674 48.7975 31.9951 48.7026C32.2228 48.6078 32.4294 48.4688 32.6031 48.2938L45.4156 35.4781C45.5922 35.3046 45.7326 35.0979 45.8288 34.8699C45.9251 34.6419 45.9752 34.397 45.9764 34.1495C45.9775 33.902 45.9297 33.6567 45.8355 33.4278C45.7414 33.1989 45.6029 32.9909 45.428 32.8158C45.2531 32.6406 45.0452 32.5019 44.8164 32.4075C44.5876 32.3131 44.3424 32.265 44.0949 32.2658C43.8474 32.2667 43.6025 32.3165 43.3743 32.4125C43.1462 32.5085 42.9393 32.6487 42.7656 32.825L31.275 44.3156Z" fill="white"/>
</g>
<defs>
<filter id="filter0_d_6_2" x="-1" y="9" width="70" height="70" filterUnits="userSpaceOnUse" color-interpolation-filters="sRGB">
<feFlood flood-opacity="0" result="BackgroundImageFix"/>
<feColorMatrix in="SourceAlpha" type="matrix" values="0 0 0 0 0 0 0 0 0 0 0 0 0 0 0 0 0 0 127 0" result="hardAlpha"/>
<feOffset dy="4"/>
<feGaussianBlur stdDeviation="5"/>
<feComposite in2="hardAlpha" operator="out"/>
<feColorMatrix type="matrix" values="0 0 0 0 0 0 0 0 0 0 0 0 0 0 0 0 0 0 0.25 0"/>
<feBlend mode="normal" in2="BackgroundImageFix" result="effect1_dropShadow_6_2"/>
<feBlend mode="normal" in="SourceGraphic" in2="effect1_dropShadow_6_2" result="shape"/>
</filter>
</defs>
</svg>
