<svg width="433" height="309" viewBox="0 0 533 409" fill="none" xmlns="http://www.w3.org/2000/svg">
<path d="M29.8691 15C29.8691 6.71574 36.5848 0 44.8691 0H502.6C510.885 0 517.6 6.71573 517.6 15V387.474H29.8691V15Z" fill="#EFEDED"/>
<g filter="url(#filter0_d_4_125)">
<path opacity="0.5" d="M52.1667 44.0425C52.1667 34.2216 52.1667 29.3111 55.2176 26.2602C58.2686 23.2092 63.1791 23.2092 73 23.2092C82.8208 23.2092 87.7315 23.2092 90.7823 26.2602C93.8333 29.3111 93.8333 34.2216 93.8333 44.0425C93.8333 53.8633 93.8333 58.774 90.7823 61.8248C87.7315 64.8758 82.8208 64.8758 73 64.8758C63.1791 64.8758 58.2686 64.8758 55.2176 61.8248C52.1667 58.774 52.1667 53.8633 52.1667 44.0425Z" fill="#969090"/>
<path d="M93.8333 29.4592C93.8333 32.9109 91.0352 35.7092 87.5833 35.7092C84.1315 35.7092 81.3333 32.9109 81.3333 29.4592C81.3333 26.0074 84.1315 23.2092 87.5833 23.2092C91.0352 23.2092 93.8333 26.0074 93.8333 29.4592Z" fill="#969090"/>
<path d="M78.2083 41.4383C77.3454 41.4383 76.6458 40.7388 76.6458 39.8758C76.6458 39.0129 77.3454 38.3133 78.2083 38.3133H83.4167C84.2796 38.3133 84.9792 39.0129 84.9792 39.8758V45.0842C84.9792 45.9471 84.2796 46.6467 83.4167 46.6467C82.5538 46.6467 81.8542 45.9471 81.8542 45.0842V43.6481L77.6612 47.8408C76.2375 49.2646 73.9292 49.2646 72.5054 47.8408L69.2017 44.5371C68.9981 44.3338 68.6684 44.3338 68.465 44.5371L63.6882 49.314C63.078 49.9242 62.0887 49.9242 61.4785 49.314C60.8683 48.7038 60.8683 47.7146 61.4785 47.1044L66.2553 42.3275C67.6791 40.9038 69.9875 40.9038 71.4113 42.3275L74.715 45.6313C74.9185 45.8346 75.2481 45.8346 75.4517 45.6313L79.6444 41.4383H78.2083Z" fill="#969090"/>
</g>
<path d="M124.091 41.1875C123.972 40.7727 123.804 40.4062 123.588 40.0881C123.372 39.7642 123.108 39.4915 122.795 39.2699C122.489 39.0426 122.136 38.8693 121.739 38.75C121.347 38.6307 120.912 38.571 120.435 38.571C119.543 38.571 118.759 38.7926 118.082 39.2358C117.412 39.679 116.889 40.3239 116.514 41.1705C116.139 42.0114 115.952 43.0398 115.952 44.2557C115.952 45.4716 116.136 46.5057 116.506 47.358C116.875 48.2102 117.398 48.8608 118.074 49.3097C118.75 49.7528 119.548 49.9744 120.469 49.9744C121.304 49.9744 122.017 49.8267 122.608 49.5312C123.205 49.2301 123.659 48.8068 123.972 48.2614C124.29 47.7159 124.449 47.071 124.449 46.3267L125.199 46.4375H120.699V43.6591H128.003V45.858C128.003 47.392 127.679 48.7102 127.031 49.8125C126.384 50.9091 125.491 51.7557 124.355 52.3523C123.219 52.9432 121.918 53.2386 120.452 53.2386C118.815 53.2386 117.378 52.8778 116.139 52.1562C114.901 51.429 113.935 50.3977 113.241 49.0625C112.554 47.7216 112.21 46.1307 112.21 44.2898C112.21 42.875 112.415 41.6136 112.824 40.5057C113.239 39.392 113.818 38.4489 114.562 37.6761C115.307 36.9034 116.173 36.3153 117.162 35.9119C118.151 35.5085 119.222 35.3068 120.375 35.3068C121.364 35.3068 122.284 35.4517 123.136 35.7415C123.989 36.0256 124.744 36.429 125.403 36.9517C126.068 37.4744 126.611 38.0966 127.031 38.8182C127.452 39.5341 127.722 40.3239 127.841 41.1875H124.091ZM130.707 53V39.9091H134.227V42.1932H134.363C134.602 41.3807 135.002 40.767 135.565 40.3523C136.127 39.9318 136.775 39.7216 137.508 39.7216C137.69 39.7216 137.886 39.733 138.096 39.7557C138.306 39.7784 138.491 39.8097 138.65 39.8494V43.071C138.479 43.0199 138.244 42.9744 137.942 42.9347C137.641 42.8949 137.366 42.875 137.116 42.875C136.582 42.875 136.104 42.9915 135.684 43.2244C135.269 43.4517 134.94 43.7699 134.695 44.179C134.457 44.5881 134.337 45.0597 134.337 45.5938V53H130.707ZM143.885 53.2472C143.05 53.2472 142.305 53.1023 141.652 52.8125C140.999 52.517 140.482 52.0824 140.101 51.5085C139.726 50.929 139.538 50.2074 139.538 49.3438C139.538 48.6165 139.672 48.0057 139.939 47.5114C140.206 47.017 140.57 46.6193 141.03 46.3182C141.49 46.017 142.013 45.7898 142.598 45.6364C143.189 45.483 143.808 45.375 144.456 45.3125C145.217 45.233 145.831 45.1591 146.297 45.0909C146.763 45.017 147.101 44.9091 147.311 44.767C147.521 44.625 147.626 44.4148 147.626 44.1364V44.0852C147.626 43.5455 147.456 43.1278 147.115 42.8324C146.78 42.5369 146.303 42.3892 145.683 42.3892C145.03 42.3892 144.51 42.5341 144.124 42.8239C143.737 43.108 143.482 43.4659 143.357 43.8977L139.999 43.625C140.169 42.8295 140.504 42.142 141.004 41.5625C141.504 40.9773 142.149 40.5284 142.939 40.2159C143.734 39.8977 144.655 39.7386 145.7 39.7386C146.428 39.7386 147.124 39.8239 147.788 39.9943C148.459 40.1648 149.053 40.429 149.57 40.7869C150.092 41.1449 150.504 41.6051 150.805 42.1676C151.107 42.7244 151.257 43.392 151.257 44.1705V53H147.814V51.1847H147.712C147.501 51.5938 147.22 51.9545 146.868 52.267C146.516 52.5739 146.092 52.8153 145.598 52.9915C145.104 53.1619 144.533 53.2472 143.885 53.2472ZM144.925 50.7415C145.459 50.7415 145.93 50.6364 146.339 50.4261C146.749 50.2102 147.07 49.9205 147.303 49.5568C147.536 49.1932 147.652 48.7812 147.652 48.321V46.9318C147.538 47.0057 147.382 47.0739 147.183 47.1364C146.99 47.1932 146.771 47.2472 146.527 47.2983C146.283 47.3437 146.038 47.3864 145.794 47.4261C145.55 47.4602 145.328 47.4915 145.129 47.5199C144.703 47.5824 144.331 47.6818 144.013 47.8182C143.695 47.9545 143.447 48.1392 143.271 48.3722C143.095 48.5994 143.007 48.8835 143.007 49.2244C143.007 49.7188 143.186 50.0966 143.544 50.358C143.908 50.6136 144.368 50.7415 144.925 50.7415ZM161.114 39.9091V42.6364H153.034V39.9091H161.114ZM154.884 53V38.9631C154.884 38.0142 155.068 37.2273 155.438 36.6023C155.812 35.9773 156.324 35.5085 156.972 35.196C157.619 34.8835 158.355 34.7273 159.179 34.7273C159.736 34.7273 160.244 34.7699 160.705 34.8551C161.17 34.9403 161.517 35.017 161.744 35.0852L161.097 37.8125C160.955 37.767 160.778 37.7244 160.568 37.6847C160.364 37.6449 160.153 37.625 159.938 37.625C159.403 37.625 159.031 37.75 158.821 38C158.611 38.2443 158.506 38.5881 158.506 39.0312V53H154.884ZM163.332 53V39.9091H166.962V53H163.332ZM165.156 38.2216C164.616 38.2216 164.153 38.0426 163.766 37.6847C163.386 37.321 163.195 36.8864 163.195 36.3807C163.195 35.8807 163.386 35.4517 163.766 35.0938C164.153 34.7301 164.616 34.5483 165.156 34.5483C165.695 34.5483 166.156 34.7301 166.536 35.0938C166.923 35.4517 167.116 35.8807 167.116 36.3807C167.116 36.8864 166.923 37.321 166.536 37.6847C166.156 38.0426 165.695 38.2216 165.156 38.2216ZM175.786 53.2557C174.445 53.2557 173.291 52.9716 172.325 52.4034C171.365 51.8295 170.626 51.0341 170.109 50.017C169.598 49 169.342 47.8295 169.342 46.5057C169.342 45.1648 169.601 43.9886 170.118 42.9773C170.641 41.9602 171.382 41.1676 172.342 40.5994C173.303 40.0256 174.445 39.7386 175.768 39.7386C176.911 39.7386 177.911 39.946 178.768 40.3608C179.626 40.7756 180.305 41.358 180.805 42.108C181.305 42.858 181.581 43.7386 181.632 44.75H178.206C178.109 44.0966 177.854 43.571 177.439 43.1733C177.03 42.7699 176.493 42.5682 175.828 42.5682C175.266 42.5682 174.774 42.7216 174.354 43.0284C173.939 43.3295 173.615 43.7699 173.382 44.3494C173.149 44.929 173.033 45.6307 173.033 46.4545C173.033 47.2898 173.146 48 173.374 48.5852C173.607 49.1705 173.933 49.6165 174.354 49.9233C174.774 50.2301 175.266 50.3835 175.828 50.3835C176.243 50.3835 176.615 50.2983 176.945 50.1278C177.28 49.9574 177.555 49.7102 177.771 49.3864C177.993 49.0568 178.138 48.6619 178.206 48.2017H181.632C181.575 49.2017 181.303 50.0824 180.814 50.8438C180.331 51.5994 179.663 52.1903 178.811 52.6165C177.959 53.0426 176.95 53.2557 175.786 53.2557ZM189.871 53.2557C188.548 53.2557 187.403 52.9744 186.437 52.4119C185.477 51.8437 184.735 51.054 184.212 50.0426C183.69 49.0256 183.428 47.8466 183.428 46.5057C183.428 45.1534 183.69 43.9716 184.212 42.9602C184.735 41.9432 185.477 41.1534 186.437 40.5909C187.403 40.0227 188.548 39.7386 189.871 39.7386C191.195 39.7386 192.337 40.0227 193.298 40.5909C194.263 41.1534 195.008 41.9432 195.531 42.9602C196.053 43.9716 196.315 45.1534 196.315 46.5057C196.315 47.8466 196.053 49.0256 195.531 50.0426C195.008 51.054 194.263 51.8437 193.298 52.4119C192.337 52.9744 191.195 53.2557 189.871 53.2557ZM189.888 50.4432C190.491 50.4432 190.994 50.2727 191.397 49.9318C191.8 49.5852 192.104 49.1136 192.309 48.517C192.519 47.9205 192.624 47.2415 192.624 46.4801C192.624 45.7188 192.519 45.0398 192.309 44.4432C192.104 43.8466 191.8 43.375 191.397 43.0284C190.994 42.6818 190.491 42.5085 189.888 42.5085C189.281 42.5085 188.769 42.6818 188.354 43.0284C187.945 43.375 187.636 43.8466 187.425 44.4432C187.221 45.0398 187.119 45.7188 187.119 46.4801C187.119 47.2415 187.221 47.9205 187.425 48.517C187.636 49.1136 187.945 49.5852 188.354 49.9318C188.769 50.2727 189.281 50.4432 189.888 50.4432ZM209.054 53.2131C208.06 53.2131 207.159 52.9574 206.352 52.446C205.551 51.929 204.915 51.1705 204.443 50.1705C203.977 49.1648 203.744 47.9318 203.744 46.4716C203.744 44.9716 203.986 43.7244 204.469 42.7301C204.952 41.7301 205.594 40.983 206.395 40.4886C207.202 39.9886 208.085 39.7386 209.045 39.7386C209.778 39.7386 210.389 39.8636 210.878 40.1136C211.372 40.358 211.77 40.6648 212.071 41.0341C212.378 41.3977 212.611 41.7557 212.77 42.108H212.881V35.5455H216.503V53H212.923V50.9034H212.77C212.599 51.267 212.358 51.6278 212.045 51.9858C211.739 52.3381 211.338 52.6307 210.844 52.8636C210.355 53.0966 209.759 53.2131 209.054 53.2131ZM210.205 50.3239C210.79 50.3239 211.284 50.1648 211.688 49.8466C212.097 49.5227 212.409 49.071 212.625 48.4915C212.847 47.9119 212.957 47.233 212.957 46.4545C212.957 45.6761 212.849 45 212.634 44.4261C212.418 43.8523 212.105 43.4091 211.696 43.0966C211.287 42.7841 210.79 42.6278 210.205 42.6278C209.608 42.6278 209.105 42.7898 208.696 43.1136C208.287 43.4375 207.977 43.8864 207.767 44.4602C207.557 45.0341 207.452 45.6989 207.452 46.4545C207.452 47.2159 207.557 47.8892 207.767 48.4744C207.983 49.054 208.293 49.5085 208.696 49.8381C209.105 50.1619 209.608 50.3239 210.205 50.3239ZM225.454 53.2557C224.107 53.2557 222.948 52.983 221.977 52.4375C221.011 51.8864 220.266 51.108 219.744 50.1023C219.221 49.0909 218.96 47.8949 218.96 46.5142C218.96 45.1676 219.221 43.9858 219.744 42.9688C220.266 41.9517 221.002 41.1591 221.951 40.5909C222.906 40.0227 224.025 39.7386 225.309 39.7386C226.173 39.7386 226.977 39.8778 227.721 40.1562C228.471 40.429 229.124 40.8409 229.681 41.392C230.244 41.9432 230.681 42.6364 230.994 43.4716C231.306 44.3011 231.462 45.2727 231.462 46.3864V47.3835H220.408V45.1335H228.045C228.045 44.6108 227.931 44.1477 227.704 43.7443C227.477 43.3409 227.161 43.0256 226.758 42.7983C226.36 42.5653 225.897 42.4489 225.369 42.4489C224.817 42.4489 224.329 42.5767 223.903 42.8324C223.482 43.0824 223.153 43.4205 222.914 43.8466C222.675 44.267 222.553 44.7358 222.548 45.2528V47.392C222.548 48.0398 222.667 48.5994 222.906 49.071C223.15 49.5426 223.494 49.9062 223.937 50.1619C224.38 50.4176 224.906 50.5455 225.513 50.5455C225.917 50.5455 226.286 50.4886 226.621 50.375C226.957 50.2614 227.244 50.0909 227.482 49.8636C227.721 49.6364 227.903 49.358 228.028 49.0284L231.386 49.25C231.215 50.0568 230.866 50.7614 230.337 51.3636C229.815 51.9602 229.138 52.4261 228.309 52.7614C227.485 53.0909 226.533 53.2557 225.454 53.2557ZM248.923 40.5653C248.855 39.8778 248.563 39.3437 248.045 38.9631C247.528 38.5824 246.827 38.392 245.94 38.392C245.338 38.392 244.83 38.4773 244.415 38.6477C244 38.8125 243.682 39.0426 243.46 39.3381C243.244 39.6335 243.136 39.9688 243.136 40.3438C243.125 40.6562 243.19 40.929 243.332 41.1619C243.48 41.3949 243.682 41.5966 243.938 41.767C244.193 41.9318 244.489 42.0767 244.824 42.2017C245.159 42.321 245.517 42.4233 245.898 42.5085L247.466 42.8835C248.227 43.054 248.926 43.2812 249.562 43.5653C250.199 43.8494 250.75 44.1989 251.216 44.6136C251.682 45.0284 252.043 45.517 252.298 46.0795C252.56 46.642 252.693 47.2869 252.699 48.0142C252.693 49.0824 252.42 50.0085 251.881 50.7926C251.347 51.571 250.574 52.1761 249.562 52.608C248.557 53.0341 247.344 53.2472 245.923 53.2472C244.514 53.2472 243.287 53.0312 242.241 52.5994C241.202 52.1676 240.389 51.5284 239.804 50.6818C239.224 49.8295 238.92 48.7756 238.892 47.5199H242.463C242.503 48.1051 242.67 48.5937 242.966 48.9858C243.267 49.3722 243.668 49.6648 244.168 49.8636C244.673 50.0568 245.244 50.1534 245.881 50.1534C246.506 50.1534 247.048 50.0625 247.509 49.8807C247.974 49.6989 248.335 49.446 248.591 49.1222C248.847 48.7983 248.974 48.4261 248.974 48.0057C248.974 47.6136 248.858 47.2841 248.625 47.017C248.398 46.75 248.063 46.5227 247.619 46.3352C247.182 46.1477 246.645 45.9773 246.009 45.8239L244.108 45.3466C242.636 44.9886 241.474 44.429 240.622 43.6676C239.77 42.9062 239.347 41.8807 239.352 40.5909C239.347 39.5341 239.628 38.6108 240.196 37.821C240.77 37.0312 241.557 36.4148 242.557 35.9716C243.557 35.5284 244.693 35.3068 245.966 35.3068C247.261 35.3068 248.392 35.5284 249.358 35.9716C250.33 36.4148 251.085 37.0312 251.625 37.821C252.165 38.6108 252.443 39.5256 252.46 40.5653H248.923ZM261.079 53.2557C259.732 53.2557 258.573 52.983 257.602 52.4375C256.636 51.8864 255.891 51.108 255.369 50.1023C254.846 49.0909 254.585 47.8949 254.585 46.5142C254.585 45.1676 254.846 43.9858 255.369 42.9688C255.891 41.9517 256.627 41.1591 257.576 40.5909C258.531 40.0227 259.65 39.7386 260.934 39.7386C261.798 39.7386 262.602 39.8778 263.346 40.1562C264.096 40.429 264.749 40.8409 265.306 41.392C265.869 41.9432 266.306 42.6364 266.619 43.4716C266.931 44.3011 267.087 45.2727 267.087 46.3864V47.3835H256.033V45.1335H263.67C263.67 44.6108 263.556 44.1477 263.329 43.7443C263.102 43.3409 262.786 43.0256 262.383 42.7983C261.985 42.5653 261.522 42.4489 260.994 42.4489C260.442 42.4489 259.954 42.5767 259.528 42.8324C259.107 43.0824 258.778 43.4205 258.539 43.8466C258.3 44.267 258.178 44.7358 258.173 45.2528V47.392C258.173 48.0398 258.292 48.5994 258.531 49.071C258.775 49.5426 259.119 49.9062 259.562 50.1619C260.005 50.4176 260.531 50.5455 261.138 50.5455C261.542 50.5455 261.911 50.4886 262.246 50.375C262.582 50.2614 262.869 50.0909 263.107 49.8636C263.346 49.6364 263.528 49.358 263.653 49.0284L267.011 49.25C266.84 50.0568 266.491 50.7614 265.962 51.3636C265.44 51.9602 264.763 52.4261 263.934 52.7614C263.11 53.0909 262.158 53.2557 261.079 53.2557ZM275.354 58.1818C274.178 58.1818 273.17 58.0199 272.329 57.696C271.494 57.3778 270.829 56.9432 270.335 56.392C269.84 55.8409 269.519 55.2216 269.371 54.5341L272.729 54.0824C272.832 54.3438 272.994 54.5881 273.215 54.8153C273.437 55.0426 273.729 55.2244 274.093 55.3608C274.462 55.5028 274.911 55.5739 275.44 55.5739C276.229 55.5739 276.88 55.3807 277.391 54.9943C277.908 54.6136 278.167 53.9744 278.167 53.0767V50.6818H278.013C277.854 51.0455 277.616 51.3892 277.298 51.7131C276.979 52.0369 276.57 52.3011 276.07 52.5057C275.57 52.7102 274.974 52.8125 274.281 52.8125C273.298 52.8125 272.403 52.5852 271.596 52.1307C270.795 51.6705 270.156 50.9687 269.678 50.0256C269.207 49.0767 268.971 47.8778 268.971 46.429C268.971 44.946 269.212 43.7074 269.695 42.7131C270.178 41.7187 270.82 40.9744 271.621 40.4801C272.428 39.9858 273.312 39.7386 274.272 39.7386C275.005 39.7386 275.619 39.8636 276.113 40.1136C276.607 40.358 277.005 40.6648 277.306 41.0341C277.613 41.3977 277.849 41.7557 278.013 42.108H278.15V39.9091H281.755V53.1278C281.755 54.2415 281.482 55.1733 280.937 55.9233C280.391 56.6733 279.636 57.2358 278.67 57.6108C277.71 57.9915 276.604 58.1818 275.354 58.1818ZM275.431 50.0852C276.016 50.0852 276.511 49.9403 276.914 49.6506C277.323 49.3551 277.636 48.9347 277.852 48.3892C278.073 47.8381 278.184 47.179 278.184 46.4119C278.184 45.6449 278.076 44.9801 277.86 44.4176C277.644 43.8494 277.332 43.4091 276.923 43.0966C276.513 42.7841 276.016 42.6278 275.431 42.6278C274.835 42.6278 274.332 42.7898 273.923 43.1136C273.513 43.4318 273.204 43.875 272.994 44.4432C272.783 45.0114 272.678 45.6676 272.678 46.4119C272.678 47.1676 272.783 47.821 272.994 48.3722C273.21 48.9176 273.519 49.3409 273.923 49.642C274.332 49.9375 274.835 50.0852 275.431 50.0852ZM293.039 47.4261V39.9091H296.67V53H293.184V50.6222H293.048C292.752 51.3892 292.261 52.0057 291.573 52.4716C290.891 52.9375 290.059 53.1705 289.076 53.1705C288.201 53.1705 287.431 52.9716 286.766 52.5739C286.102 52.1761 285.582 51.6108 285.207 50.8778C284.837 50.1449 284.65 49.267 284.644 48.2443V39.9091H288.275V47.5966C288.281 48.3693 288.488 48.9801 288.897 49.429C289.306 49.8778 289.854 50.1023 290.542 50.1023C290.979 50.1023 291.388 50.0028 291.769 49.804C292.15 49.5994 292.457 49.2983 292.69 48.9006C292.928 48.5028 293.045 48.0114 293.039 47.4261ZM299.574 53V39.9091H303.205V53H299.574ZM301.398 38.2216C300.858 38.2216 300.395 38.0426 300.009 37.6847C299.628 37.321 299.438 36.8864 299.438 36.3807C299.438 35.8807 299.628 35.4517 300.009 35.0938C300.395 34.7301 300.858 34.5483 301.398 34.5483C301.938 34.5483 302.398 34.7301 302.778 35.0938C303.165 35.4517 303.358 35.8807 303.358 36.3807C303.358 36.8864 303.165 37.321 302.778 37.6847C302.398 38.0426 301.938 38.2216 301.398 38.2216ZM306.113 53V39.9091H309.573V42.2188H309.727C309.999 41.4517 310.454 40.8466 311.09 40.4034C311.727 39.9602 312.488 39.7386 313.374 39.7386C314.272 39.7386 315.036 39.9631 315.667 40.4119C316.298 40.8551 316.718 41.4574 316.928 42.2188H317.065C317.332 41.4688 317.815 40.8693 318.513 40.4205C319.218 39.9659 320.05 39.7386 321.011 39.7386C322.232 39.7386 323.224 40.1278 323.985 40.9062C324.752 41.679 325.136 42.7756 325.136 44.196V53H321.513V44.9119C321.513 44.1847 321.32 43.6392 320.934 43.2756C320.548 42.9119 320.065 42.7301 319.485 42.7301C318.826 42.7301 318.312 42.9403 317.942 43.3608C317.573 43.7756 317.388 44.3239 317.388 45.0057V53H313.869V44.8352C313.869 44.1932 313.684 43.6818 313.315 43.3011C312.951 42.9205 312.471 42.7301 311.874 42.7301C311.471 42.7301 311.107 42.8324 310.783 43.0369C310.465 43.2358 310.212 43.517 310.025 43.8807C309.837 44.2386 309.744 44.6591 309.744 45.142V53H306.113ZM328.004 53V39.9091H331.634V53H328.004ZM329.827 38.2216C329.288 38.2216 328.825 38.0426 328.438 37.6847C328.058 37.321 327.867 36.8864 327.867 36.3807C327.867 35.8807 328.058 35.4517 328.438 35.0938C328.825 34.7301 329.288 34.5483 329.827 34.5483C330.367 34.5483 330.827 34.7301 331.208 35.0938C331.594 35.4517 331.788 35.8807 331.788 36.3807C331.788 36.8864 331.594 37.321 331.208 37.6847C330.827 38.0426 330.367 38.2216 329.827 38.2216ZM340.509 53.2557C339.162 53.2557 338.003 52.983 337.031 52.4375C336.065 51.8864 335.321 51.108 334.798 50.1023C334.276 49.0909 334.014 47.8949 334.014 46.5142C334.014 45.1676 334.276 43.9858 334.798 42.9688C335.321 41.9517 336.057 41.1591 337.006 40.5909C337.96 40.0227 339.08 39.7386 340.364 39.7386C341.227 39.7386 342.031 39.8778 342.776 40.1562C343.526 40.429 344.179 40.8409 344.736 41.392C345.298 41.9432 345.736 42.6364 346.048 43.4716C346.361 44.3011 346.517 45.2727 346.517 46.3864V47.3835H335.463V45.1335H343.099C343.099 44.6108 342.986 44.1477 342.759 43.7443C342.531 43.3409 342.216 43.0256 341.812 42.7983C341.415 42.5653 340.952 42.4489 340.423 42.4489C339.872 42.4489 339.384 42.5767 338.957 42.8324C338.537 43.0824 338.207 43.4205 337.969 43.8466C337.73 44.267 337.608 44.7358 337.602 45.2528V47.392C337.602 48.0398 337.722 48.5994 337.96 49.071C338.205 49.5426 338.548 49.9062 338.991 50.1619C339.435 50.4176 339.96 50.5455 340.568 50.5455C340.972 50.5455 341.341 50.4886 341.676 50.375C342.011 50.2614 342.298 50.0909 342.537 49.8636C342.776 49.6364 342.957 49.358 343.082 49.0284L346.44 49.25C346.27 50.0568 345.92 50.7614 345.392 51.3636C344.869 51.9602 344.193 52.4261 343.364 52.7614C342.54 53.0909 341.588 53.2557 340.509 53.2557ZM352.517 45.4318V53H348.886V39.9091H352.347V42.2188H352.5C352.79 41.4574 353.276 40.8551 353.957 40.4119C354.639 39.9631 355.466 39.7386 356.438 39.7386C357.347 39.7386 358.139 39.9375 358.815 40.3352C359.491 40.733 360.017 41.3011 360.392 42.0398C360.767 42.7727 360.955 43.6477 360.955 44.6648V53H357.324V45.3125C357.33 44.5114 357.125 43.8864 356.71 43.4375C356.295 42.983 355.724 42.7557 354.997 42.7557C354.509 42.7557 354.077 42.8608 353.702 43.071C353.332 43.2812 353.043 43.5881 352.832 43.9915C352.628 44.3892 352.523 44.8693 352.517 45.4318ZM370.779 39.9091V42.6364H362.896V39.9091H370.779ZM364.685 36.7727H368.316V48.9773C368.316 49.3125 368.367 49.5739 368.469 49.7614C368.572 49.9432 368.714 50.071 368.896 50.1449C369.083 50.2187 369.299 50.2557 369.543 50.2557C369.714 50.2557 369.884 50.2415 370.055 50.2131C370.225 50.179 370.356 50.1534 370.447 50.1364L371.018 52.8381C370.836 52.8949 370.58 52.9602 370.251 53.0341C369.921 53.1136 369.521 53.1619 369.049 53.179C368.174 53.2131 367.407 53.0966 366.748 52.8295C366.094 52.5625 365.586 52.1477 365.222 51.5852C364.859 51.0227 364.68 50.3125 364.685 49.4545V36.7727ZM378.918 53.2557C377.594 53.2557 376.45 52.9744 375.484 52.4119C374.523 51.8437 373.782 51.054 373.259 50.0426C372.737 49.0256 372.475 47.8466 372.475 46.5057C372.475 45.1534 372.737 43.9716 373.259 42.9602C373.782 41.9432 374.523 41.1534 375.484 40.5909C376.45 40.0227 377.594 39.7386 378.918 39.7386C380.242 39.7386 381.384 40.0227 382.344 40.5909C383.31 41.1534 384.055 41.9432 384.577 42.9602C385.1 43.9716 385.362 45.1534 385.362 46.5057C385.362 47.8466 385.1 49.0256 384.577 50.0426C384.055 51.054 383.31 51.8437 382.344 52.4119C381.384 52.9744 380.242 53.2557 378.918 53.2557ZM378.935 50.4432C379.538 50.4432 380.04 50.2727 380.444 49.9318C380.847 49.5852 381.151 49.1136 381.356 48.517C381.566 47.9205 381.671 47.2415 381.671 46.4801C381.671 45.7188 381.566 45.0398 381.356 44.4432C381.151 43.8466 380.847 43.375 380.444 43.0284C380.04 42.6818 379.538 42.5085 378.935 42.5085C378.327 42.5085 377.816 42.6818 377.401 43.0284C376.992 43.375 376.683 43.8466 376.472 44.4432C376.268 45.0398 376.165 45.7188 376.165 46.4801C376.165 47.2415 376.268 47.9205 376.472 48.517C376.683 49.1136 376.992 49.5852 377.401 49.9318C377.816 50.2727 378.327 50.4432 378.935 50.4432Z" fill="#161515"/>
<path opacity="0.2" fill-rule="evenodd" clip-rule="evenodd" d="M30.6977 380.4C30.6977 379.848 31.1654 379.402 31.7173 379.381C70.515 377.927 72.0847 293.47 111.535 293.47C151.328 293.47 152.579 361.173 192.372 361.173C232.165 361.173 233.416 189.311 273.209 189.311C313.002 189.311 314.254 293.47 354.046 293.47C393.839 293.47 395.091 366.381 434.884 366.381C474.333 366.381 475.904 343.348 514.699 342.95C515.251 342.944 515.721 343.393 515.721 343.945V386.212C515.721 386.764 515.273 387.212 514.721 387.212H31.6977C31.1454 387.212 30.6977 386.764 30.6977 386.212V380.4Z" fill="black"/>
<path d="M30.6977 379.4C70.4906 379.4 71.742 293.47 111.535 293.47C151.328 293.47 152.579 361.173 192.372 361.173C232.165 361.173 233.416 189.311 273.209 189.311C313.002 189.311 314.254 293.47 354.046 293.47C393.839 293.47 395.091 366.38 434.884 366.38C474.677 366.38 475.928 342.945 515.721 342.945" stroke="#307D79" stroke-width="2" stroke-linejoin="round"/>
<path opacity="0.2" fill-rule="evenodd" clip-rule="evenodd" d="M38.0651 358.059C38.0651 357.506 38.5326 357.061 39.0845 357.039C77.228 355.553 78.777 270.72 117.573 270.72C156.711 270.72 157.942 338.744 197.08 338.744C236.219 338.744 237.45 166.066 276.588 166.066C315.727 166.066 316.957 270.72 356.096 270.72C395.234 270.72 396.465 343.977 435.604 343.977C474.399 343.977 475.948 320.842 514.09 320.436C514.642 320.43 515.111 320.878 515.111 321.43V363.908C515.111 364.46 514.664 364.908 514.111 364.908H39.0651C38.5128 364.908 38.0651 364.46 38.0651 363.908V358.059Z" fill="black"/>
<path d="M38.0651 357.059C77.2036 357.059 78.4343 270.72 117.573 270.72C156.711 270.72 157.942 338.744 197.08 338.744C236.219 338.744 237.45 166.066 276.588 166.066C315.727 166.066 316.957 270.72 356.096 270.72C395.234 270.72 396.465 343.977 435.604 343.977C474.742 343.977 475.973 320.43 515.111 320.43" stroke="#307D79" stroke-width="2" stroke-linejoin="round"/>
<path opacity="0.2" fill-rule="evenodd" clip-rule="evenodd" d="M30.6977 328.645C30.6977 328.093 31.1652 327.647 31.7171 327.626C69.8606 326.14 71.4096 241.306 110.205 241.306C149.344 241.306 150.575 309.331 189.713 309.331C228.852 309.331 230.082 136.653 269.221 136.653C308.359 136.653 309.59 241.306 348.728 241.306C387.867 241.306 389.098 314.564 428.236 314.564C467.031 314.564 468.581 291.428 506.722 291.022C507.274 291.016 507.744 291.464 507.744 292.017V334.494C507.744 335.047 507.296 335.494 506.744 335.494H31.6977C31.1454 335.494 30.6977 335.047 30.6977 334.494V328.645Z" fill="black"/>
<path d="M30.6977 327.645C69.8361 327.645 71.0669 241.306 110.205 241.306C149.344 241.306 150.575 309.331 189.713 309.331C228.852 309.331 230.082 136.653 269.221 136.653C308.359 136.653 309.59 241.306 348.728 241.306C387.867 241.306 389.098 314.564 428.236 314.564C467.375 314.564 468.605 291.017 507.744 291.017" stroke="#307D79" stroke-width="2" stroke-linejoin="round"/>
<defs>
<filter id="filter0_d_4_125" x="38" y="13.0425" width="70" height="70" filterUnits="userSpaceOnUse" color-interpolation-filters="sRGB">
<feFlood flood-opacity="0" result="BackgroundImageFix"/>
<feColorMatrix in="SourceAlpha" type="matrix" values="0 0 0 0 0 0 0 0 0 0 0 0 0 0 0 0 0 0 127 0" result="hardAlpha"/>
<feOffset dy="4"/>
<feGaussianBlur stdDeviation="5"/>
<feComposite in2="hardAlpha" operator="out"/>
<feColorMatrix type="matrix" values="0 0 0 0 0 0 0 0 0 0 0 0 0 0 0 0 0 0 0.25 0"/>
<feBlend mode="normal" in2="BackgroundImageFix" result="effect1_dropShadow_4_125"/>
<feBlend mode="normal" in="SourceGraphic" in2="effect1_dropShadow_4_125" result="shape"/>
</filter>
</defs>
</svg>
