<svg width="353" height="83" viewBox="0 0 553 133" fill="none" xmlns="http://www.w3.org/2000/svg">
<rect width="527" height="133" rx="18" fill="#E84852"/>
<path d="M115.264 36.9509V22.4055H118.339V34.4154H124.575V36.9509H115.264ZM126.555 36.9509V26.0418H129.581V36.9509H126.555ZM126.988 24.6356L128.494 21.4041H131.292L129.126 24.6356H126.988ZM132.004 36.9509V26.0418H134.888V27.9666H135.016C135.243 27.3273 135.622 26.8231 136.152 26.4538C136.682 26.0845 137.317 25.8998 138.055 25.8998C138.804 25.8998 139.44 26.0868 139.966 26.4609C140.491 26.8302 140.842 27.3321 141.017 27.9666H141.131C141.353 27.3416 141.756 26.842 142.338 26.468C142.925 26.0892 143.619 25.8998 144.419 25.8998C145.437 25.8998 146.263 26.2241 146.898 26.8728C147.537 27.5167 147.857 28.4306 147.857 29.6143V36.9509H144.838V30.2109C144.838 29.6048 144.677 29.1503 144.355 28.8472C144.033 28.5442 143.631 28.3927 143.148 28.3927C142.598 28.3927 142.17 28.5679 141.862 28.9183C141.554 29.2639 141.401 29.7208 141.401 30.289V36.9509H138.467V30.147C138.467 29.6119 138.313 29.1858 138.006 28.8685C137.703 28.5513 137.303 28.3927 136.805 28.3927C136.469 28.3927 136.166 28.4779 135.896 28.6484C135.631 28.8141 135.42 29.0485 135.264 29.3515C135.108 29.6498 135.03 30.0002 135.03 30.4026V36.9509H132.004ZM150.246 36.9509V26.0418H153.272V36.9509H150.246ZM151.766 24.6356C151.317 24.6356 150.931 24.4864 150.609 24.1881C150.291 23.8851 150.133 23.5229 150.133 23.1015C150.133 22.6848 150.291 22.3273 150.609 22.0291C150.931 21.726 151.317 21.5745 151.766 21.5745C152.216 21.5745 152.6 21.726 152.917 22.0291C153.239 22.3273 153.4 22.6848 153.4 23.1015C153.4 23.5229 153.239 23.8851 152.917 24.1881C152.6 24.4864 152.216 24.6356 151.766 24.6356ZM161.498 26.0418V28.3146H154.929V26.0418H161.498ZM156.42 23.4282H159.446V33.5987C159.446 33.878 159.488 34.0958 159.574 34.2521C159.659 34.4036 159.777 34.5101 159.929 34.5717C160.085 34.6332 160.265 34.664 160.468 34.664C160.61 34.664 160.752 34.6522 160.895 34.6285C161.037 34.6001 161.145 34.5788 161.221 34.5646L161.697 36.816C161.546 36.8633 161.333 36.9178 161.058 36.9793C160.783 37.0456 160.449 37.0859 160.056 37.1001C159.327 37.1285 158.688 37.0314 158.139 36.8089C157.594 36.5863 157.171 36.2407 156.868 35.772C156.565 35.3032 156.415 34.7113 156.42 33.9964V23.4282ZM168.324 37.164C167.201 37.164 166.235 36.9367 165.426 36.4822C164.621 36.0229 164.001 35.3742 163.565 34.5362C163.129 33.6934 162.912 32.6967 162.912 31.5461C162.912 30.4239 163.129 29.4391 163.565 28.5916C164.001 27.744 164.614 27.0835 165.404 26.61C166.2 26.1365 167.133 25.8998 168.203 25.8998C168.922 25.8998 169.592 26.0158 170.213 26.2478C170.838 26.4751 171.382 26.8184 171.846 27.2776C172.315 27.7369 172.68 28.3146 172.94 29.0106C173.2 29.7019 173.331 30.5115 173.331 31.4396V32.2705H164.119V30.3955H170.483C170.483 29.9599 170.388 29.574 170.199 29.2379C170.009 28.9017 169.746 28.6389 169.41 28.4495C169.079 28.2554 168.693 28.1583 168.252 28.1583C167.793 28.1583 167.386 28.2648 167.031 28.4779C166.681 28.6862 166.406 28.968 166.207 29.3231C166.008 29.6735 165.906 30.0641 165.902 30.495V32.2776C165.902 32.8174 166.001 33.2838 166.2 33.6768C166.404 34.0698 166.69 34.3728 167.059 34.5859C167.429 34.7989 167.867 34.9055 168.373 34.9055C168.709 34.9055 169.017 34.8581 169.297 34.7634C169.576 34.6687 169.815 34.5267 170.014 34.3373C170.213 34.1479 170.364 33.9159 170.468 33.6413L173.267 33.8259C173.125 34.4983 172.833 35.0854 172.393 35.5873C171.958 36.0845 171.394 36.4727 170.703 36.7521C170.016 37.0267 169.223 37.164 168.324 37.164ZM182.498 36.9509H179.202L184.224 22.4055H188.187L193.201 36.9509H189.906L186.262 25.7293H186.148L182.498 36.9509ZM182.292 31.2336H190.076V33.6342H182.292V31.2336ZM197.92 22.4055V36.9509H194.895V22.4055H197.92ZM205.273 37.164C204.156 37.164 203.194 36.9273 202.39 36.4538C201.589 35.9755 200.974 35.3127 200.543 34.4651C200.117 33.6176 199.904 32.6422 199.904 31.539C199.904 30.4216 200.119 29.4415 200.55 28.5987C200.986 27.7511 201.604 27.0906 202.404 26.6171C203.204 26.1389 204.156 25.8998 205.259 25.8998C206.211 25.8998 207.044 26.0726 207.759 26.4183C208.474 26.7639 209.04 27.2492 209.456 27.8742C209.873 28.4992 210.103 29.2331 210.145 30.0759H207.29C207.21 29.5314 206.997 29.0934 206.651 28.762C206.31 28.4258 205.863 28.2577 205.309 28.2577C204.84 28.2577 204.43 28.3856 204.08 28.6413C203.734 28.8922 203.464 29.2592 203.27 29.7421C203.076 30.2251 202.979 30.8098 202.979 31.4964C202.979 32.1924 203.074 32.7843 203.263 33.272C203.457 33.7596 203.73 34.1313 204.08 34.387C204.43 34.6427 204.84 34.7705 205.309 34.7705C205.654 34.7705 205.964 34.6995 206.239 34.5575C206.518 34.4154 206.748 34.2095 206.928 33.9396C207.113 33.6649 207.233 33.3359 207.29 32.9523H210.145C210.098 33.7857 209.871 34.5196 209.463 35.1541C209.061 35.7838 208.505 36.2762 207.794 36.6313C207.084 36.9864 206.244 37.164 205.273 37.164ZM215.193 37.1569C214.497 37.1569 213.877 37.0362 213.332 36.7947C212.788 36.5485 212.357 36.1862 212.04 35.708C211.727 35.2251 211.571 34.6237 211.571 33.9041C211.571 33.298 211.682 32.789 211.905 32.3771C212.127 31.9651 212.43 31.6337 212.814 31.3827C213.197 31.1318 213.633 30.9424 214.121 30.8146C214.613 30.6867 215.129 30.5968 215.669 30.5447C216.304 30.4784 216.815 30.4168 217.203 30.36C217.591 30.2985 217.873 30.2085 218.048 30.0901C218.223 29.9718 218.311 29.7966 218.311 29.5646V29.522C218.311 29.0721 218.169 28.7241 217.885 28.4779C217.606 28.2317 217.208 28.1086 216.692 28.1086C216.147 28.1086 215.714 28.2293 215.392 28.4708C215.07 28.7076 214.857 29.0059 214.753 29.3657L211.955 29.1384C212.097 28.4755 212.376 27.9026 212.793 27.4197C213.209 26.932 213.747 26.5579 214.405 26.2975C215.068 26.0324 215.835 25.8998 216.706 25.8998C217.312 25.8998 217.892 25.9708 218.446 26.1129C219.005 26.2549 219.5 26.4751 219.93 26.7734C220.366 27.0717 220.709 27.4552 220.96 27.9239C221.211 28.388 221.337 28.9443 221.337 29.593V36.9509H218.467V35.4381H218.382C218.207 35.7791 217.973 36.0797 217.679 36.3401C217.385 36.5958 217.033 36.797 216.621 36.9438C216.209 37.0859 215.733 37.1569 215.193 37.1569ZM216.06 35.0688C216.505 35.0688 216.898 34.9812 217.239 34.806C217.58 34.6261 217.847 34.3846 218.041 34.0816C218.235 33.7786 218.332 33.4353 218.332 33.0518V31.8941C218.238 31.9557 218.107 32.0125 217.942 32.0646C217.781 32.1119 217.598 32.1569 217.395 32.1995C217.191 32.2374 216.988 32.2729 216.784 32.306C216.58 32.3345 216.396 32.3605 216.23 32.3842C215.875 32.4362 215.565 32.5191 215.3 32.6327C215.035 32.7464 214.829 32.9003 214.682 33.0944C214.535 33.2838 214.462 33.5205 214.462 33.8046C214.462 34.2166 214.611 34.5314 214.909 34.7492C215.212 34.9623 215.596 35.0688 216.06 35.0688ZM226.71 30.6441V36.9509H223.684V26.0418H226.567V27.9666H226.695C226.937 27.3321 227.342 26.8302 227.91 26.4609C228.478 26.0868 229.167 25.8998 229.977 25.8998C230.734 25.8998 231.395 26.0655 231.958 26.397C232.522 26.7284 232.96 27.2019 233.272 27.8174C233.585 28.4282 233.741 29.1574 233.741 30.0049V36.9509H230.715V30.5447C230.72 29.8771 230.549 29.3562 230.204 28.9822C229.858 28.6034 229.382 28.414 228.776 28.414C228.369 28.414 228.009 28.5016 227.697 28.6768C227.389 28.852 227.147 29.1077 226.972 29.4438C226.802 29.7753 226.714 30.1754 226.71 30.6441ZM236.069 36.9509V35.147L241.409 28.5347V28.4566H236.253V26.0418H245.053V28.0092L240.039 34.458V34.5362H245.238V36.9509H236.069ZM250.662 37.1569C249.966 37.1569 249.346 37.0362 248.801 36.7947C248.257 36.5485 247.826 36.1862 247.509 35.708C247.196 35.2251 247.04 34.6237 247.04 33.9041C247.04 33.298 247.151 32.789 247.374 32.3771C247.596 31.9651 247.899 31.6337 248.283 31.3827C248.666 31.1318 249.102 30.9424 249.589 30.8146C250.082 30.6867 250.598 30.5968 251.138 30.5447C251.772 30.4784 252.284 30.4168 252.672 30.36C253.06 30.2985 253.342 30.2085 253.517 30.0901C253.692 29.9718 253.78 29.7966 253.78 29.5646V29.522C253.78 29.0721 253.638 28.7241 253.354 28.4779C253.074 28.2317 252.677 28.1086 252.161 28.1086C251.616 28.1086 251.183 28.2293 250.861 28.4708C250.539 28.7076 250.326 29.0059 250.222 29.3657L247.423 29.1384C247.565 28.4755 247.845 27.9026 248.261 27.4197C248.678 26.932 249.215 26.5579 249.874 26.2975C250.536 26.0324 251.304 25.8998 252.175 25.8998C252.781 25.8998 253.361 25.9708 253.915 26.1129C254.473 26.2549 254.968 26.4751 255.399 26.7734C255.835 27.0717 256.178 27.4552 256.429 27.9239C256.68 28.388 256.805 28.9443 256.805 29.593V36.9509H253.936V35.4381H253.851C253.676 35.7791 253.441 36.0797 253.148 36.3401C252.854 36.5958 252.501 36.797 252.089 36.9438C251.678 37.0859 251.202 37.1569 250.662 37.1569ZM251.528 35.0688C251.973 35.0688 252.366 34.9812 252.707 34.806C253.048 34.6261 253.316 34.3846 253.51 34.0816C253.704 33.7786 253.801 33.4353 253.801 33.0518V31.8941C253.706 31.9557 253.576 32.0125 253.411 32.0646C253.25 32.1119 253.067 32.1569 252.864 32.1995C252.66 32.2374 252.456 32.2729 252.253 32.306C252.049 32.3345 251.865 32.3605 251.699 32.3842C251.344 32.4362 251.034 32.5191 250.768 32.6327C250.503 32.7464 250.297 32.9003 250.151 33.0944C250.004 33.2838 249.93 33.5205 249.93 33.8046C249.93 34.2166 250.08 34.5314 250.378 34.7492C250.681 34.9623 251.064 35.0688 251.528 35.0688ZM263.173 37.1285C262.344 37.1285 261.594 36.9154 260.921 36.4893C260.254 36.0584 259.723 35.4263 259.33 34.593C258.942 33.7549 258.748 32.7274 258.748 31.5106C258.748 30.2606 258.949 29.2213 259.352 28.3927C259.754 27.5594 260.289 26.9367 260.957 26.5248C261.629 26.1081 262.365 25.8998 263.165 25.8998C263.776 25.8998 264.285 26.004 264.692 26.2123C265.104 26.4159 265.436 26.6716 265.687 26.9793C265.942 27.2824 266.137 27.5807 266.269 27.8742H266.362V22.4055H269.38V36.9509H266.397V35.2038H266.269C266.127 35.5068 265.926 35.8075 265.665 36.1058C265.41 36.3993 265.076 36.6432 264.664 36.8373C264.257 37.0314 263.76 37.1285 263.173 37.1285ZM264.131 34.7208C264.619 34.7208 265.031 34.5882 265.367 34.3231C265.708 34.0532 265.969 33.6768 266.148 33.1938C266.333 32.7109 266.425 32.1451 266.425 31.4964C266.425 30.8477 266.335 30.2843 266.156 29.806C265.976 29.3278 265.715 28.9585 265.374 28.6981C265.033 28.4377 264.619 28.3075 264.131 28.3075C263.634 28.3075 263.215 28.4424 262.874 28.7123C262.533 28.9822 262.275 29.3562 262.1 29.8345C261.925 30.3127 261.837 30.8666 261.837 31.4964C261.837 32.1309 261.925 32.6919 262.1 33.1796C262.28 33.6626 262.538 34.0414 262.874 34.316C263.215 34.5859 263.634 34.7208 264.131 34.7208ZM276.797 37.164C275.693 37.164 274.739 36.9296 273.934 36.4609C273.134 35.9874 272.516 35.3292 272.081 34.4864C271.645 33.6389 271.427 32.6564 271.427 31.539C271.427 30.4121 271.645 29.4273 272.081 28.5845C272.516 27.7369 273.134 27.0788 273.934 26.61C274.739 26.1365 275.693 25.8998 276.797 25.8998C277.9 25.8998 278.851 26.1365 279.652 26.61C280.457 27.0788 281.077 27.7369 281.512 28.5845C281.948 29.4273 282.166 30.4121 282.166 31.539C282.166 32.6564 281.948 33.6389 281.512 34.4864C281.077 35.3292 280.457 35.9874 279.652 36.4609C278.851 36.9296 277.9 37.164 276.797 37.164ZM276.811 34.8202C277.313 34.8202 277.732 34.6782 278.068 34.3941C278.404 34.1053 278.657 33.7123 278.828 33.2151C279.003 32.718 279.091 32.1522 279.091 31.5177C279.091 30.8832 279.003 30.3174 278.828 29.8202C278.657 29.3231 278.404 28.9301 278.068 28.6413C277.732 28.3524 277.313 28.208 276.811 28.208C276.304 28.208 275.878 28.3524 275.532 28.6413C275.191 28.9301 274.933 29.3231 274.758 29.8202C274.588 30.3174 274.502 30.8832 274.502 31.5177C274.502 32.1522 274.588 32.718 274.758 33.2151C274.933 33.7123 275.191 34.1053 275.532 34.3941C275.878 34.6782 276.304 34.8202 276.811 34.8202Z" fill="white"/>
<path d="M114.881 62.853V60.9638H126.138V62.853H121.599V75.5092H119.412V62.853H114.881ZM130.145 75.7507C129.454 75.7507 128.829 75.6229 128.27 75.3672C127.712 75.1068 127.269 74.7303 126.942 74.2379C126.62 73.7455 126.459 73.1418 126.459 72.4268C126.459 71.8113 126.578 71.3047 126.814 70.9069C127.051 70.5092 127.371 70.1943 127.773 69.9623C128.176 69.7303 128.625 69.5551 129.123 69.4368C129.62 69.3184 130.126 69.2284 130.642 69.1669C131.296 69.0911 131.826 69.0296 132.233 68.9822C132.641 68.9301 132.936 68.8473 133.121 68.7336C133.306 68.62 133.398 68.4354 133.398 68.1797V68.13C133.398 67.5097 133.223 67.0291 132.873 66.6882C132.527 66.3473 132.011 66.1768 131.324 66.1768C130.609 66.1768 130.046 66.3354 129.634 66.6527C129.227 66.9652 128.945 67.3132 128.789 67.6967L126.793 67.2422C127.03 66.5793 127.375 66.0443 127.83 65.6371C128.289 65.2251 128.817 64.9268 129.414 64.7422C130.01 64.5528 130.638 64.4581 131.296 64.4581C131.731 64.4581 132.193 64.5102 132.681 64.6143C133.173 64.7138 133.632 64.8984 134.059 65.1683C134.489 65.4382 134.842 65.8241 135.117 66.326C135.391 66.8231 135.529 67.4694 135.529 68.2649V75.5092H133.455V74.0177H133.37C133.232 74.2924 133.026 74.5622 132.752 74.8274C132.477 75.0925 132.124 75.3127 131.694 75.4879C131.263 75.6631 130.747 75.7507 130.145 75.7507ZM130.607 74.0461C131.194 74.0461 131.696 73.9301 132.113 73.6981C132.534 73.4661 132.854 73.1631 133.071 72.789C133.294 72.4103 133.405 72.0054 133.405 71.5746V70.1683C133.329 70.2441 133.183 70.3151 132.965 70.3814C132.752 70.4429 132.508 70.4974 132.233 70.5447C131.959 70.5873 131.691 70.6276 131.431 70.6655C131.17 70.6986 130.953 70.727 130.777 70.7507C130.365 70.8028 129.989 70.8904 129.648 71.0135C129.312 71.1366 129.042 71.3141 128.838 71.5461C128.64 71.7734 128.54 72.0765 128.54 72.4552C128.54 72.9808 128.734 73.3785 129.123 73.6484C129.511 73.9136 130.006 74.0461 130.607 74.0461ZM140.481 60.9638V75.5092H138.357V60.9638H140.481ZM148.631 79.6001V64.6001H150.705V66.3686H150.882C151.005 66.1413 151.183 65.8785 151.415 65.5802C151.647 65.2819 151.969 65.0215 152.381 64.799C152.793 64.5717 153.337 64.4581 154.014 64.4581C154.895 64.4581 155.681 64.6806 156.372 65.1257C157.063 65.5708 157.606 66.2123 157.999 67.0504C158.396 67.8885 158.595 68.897 158.595 70.076C158.595 71.255 158.399 72.2658 158.006 73.1086C157.613 73.9467 157.073 74.593 156.386 75.0476C155.7 75.4974 154.916 75.7223 154.036 75.7223C153.373 75.7223 152.83 75.611 152.409 75.3885C151.992 75.1659 151.666 74.9055 151.429 74.6072C151.192 74.3089 151.01 74.0438 150.882 73.8118H150.754V79.6001H148.631ZM150.712 70.0547C150.712 70.8217 150.823 71.4941 151.045 72.0717C151.268 72.6494 151.59 73.1015 152.011 73.4283C152.433 73.7502 152.949 73.9112 153.56 73.9112C154.194 73.9112 154.724 73.7431 155.151 73.4069C155.577 73.066 155.899 72.6044 156.116 72.022C156.339 71.4396 156.45 70.7838 156.45 70.0547C156.45 69.335 156.341 68.6887 156.124 68.1158C155.911 67.5428 155.589 67.0907 155.158 66.7592C154.732 66.4278 154.199 66.2621 153.56 66.2621C152.944 66.2621 152.423 66.4207 151.997 66.7379C151.576 67.0551 151.256 67.4979 151.038 68.066C150.821 68.6342 150.712 69.2971 150.712 70.0547ZM164.149 75.7507C163.458 75.7507 162.833 75.6229 162.274 75.3672C161.715 75.1068 161.273 74.7303 160.946 74.2379C160.624 73.7455 160.463 73.1418 160.463 72.4268C160.463 71.8113 160.581 71.3047 160.818 70.9069C161.055 70.5092 161.375 70.1943 161.777 69.9623C162.179 69.7303 162.629 69.5551 163.126 69.4368C163.624 69.3184 164.13 69.2284 164.646 69.1669C165.3 69.0911 165.83 69.0296 166.237 68.9822C166.644 68.9301 166.94 68.8473 167.125 68.7336C167.31 68.62 167.402 68.4354 167.402 68.1797V68.13C167.402 67.5097 167.227 67.0291 166.876 66.6882C166.531 66.3473 166.015 66.1768 165.328 66.1768C164.613 66.1768 164.05 66.3354 163.638 66.6527C163.231 66.9652 162.949 67.3132 162.793 67.6967L160.797 67.2422C161.034 66.5793 161.379 66.0443 161.834 65.6371C162.293 65.2251 162.821 64.9268 163.418 64.7422C164.014 64.5528 164.642 64.4581 165.3 64.4581C165.735 64.4581 166.197 64.5102 166.685 64.6143C167.177 64.7138 167.636 64.8984 168.062 65.1683C168.493 65.4382 168.846 65.8241 169.121 66.326C169.395 66.8231 169.533 67.4694 169.533 68.2649V75.5092H167.459V74.0177H167.374C167.236 74.2924 167.03 74.5622 166.756 74.8274C166.481 75.0925 166.128 75.3127 165.697 75.4879C165.267 75.6631 164.75 75.7507 164.149 75.7507ZM164.611 74.0461C165.198 74.0461 165.7 73.9301 166.116 73.6981C166.538 73.4661 166.857 73.1631 167.075 72.789C167.298 72.4103 167.409 72.0054 167.409 71.5746V70.1683C167.333 70.2441 167.187 70.3151 166.969 70.3814C166.756 70.4429 166.512 70.4974 166.237 70.5447C165.963 70.5873 165.695 70.6276 165.435 70.6655C165.174 70.6986 164.956 70.727 164.781 70.7507C164.369 70.8028 163.993 70.8904 163.652 71.0135C163.316 71.1366 163.046 71.3141 162.842 71.5461C162.643 71.7734 162.544 72.0765 162.544 72.4552C162.544 72.9808 162.738 73.3785 163.126 73.6484C163.515 73.9136 164.009 74.0461 164.611 74.0461ZM172.361 75.5092V64.6001H174.414V66.3331H174.527C174.726 65.746 175.077 65.2843 175.578 64.9481C176.085 64.6072 176.658 64.4368 177.297 64.4368C177.43 64.4368 177.586 64.4415 177.766 64.451C177.951 64.4604 178.095 64.4723 178.199 64.4865V66.5177C178.114 66.4941 177.962 66.468 177.745 66.4396C177.527 66.4065 177.309 66.3899 177.091 66.3899C176.589 66.3899 176.142 66.4964 175.749 66.7095C175.361 66.9178 175.053 67.209 174.826 67.5831C174.598 67.9524 174.485 68.3738 174.485 68.8473V75.5092H172.361ZM184.348 75.7294C183.273 75.7294 182.348 75.4997 181.571 75.0405C180.799 74.5765 180.203 73.9254 179.781 73.0873C179.365 72.2445 179.156 71.2573 179.156 70.1257C179.156 69.0083 179.365 68.0234 179.781 67.1711C180.203 66.3189 180.79 65.6536 181.543 65.1754C182.3 64.6972 183.186 64.4581 184.199 64.4581C184.814 64.4581 185.411 64.5599 185.989 64.7635C186.566 64.9671 187.085 65.2867 187.544 65.7223C188.003 66.1579 188.366 66.7237 188.631 67.4197C188.896 68.111 189.028 68.9515 189.028 69.941V70.6939H180.357V69.103H186.947C186.947 68.5443 186.834 68.0495 186.607 67.6186C186.379 67.183 186.06 66.8397 185.648 66.5888C185.241 66.3378 184.762 66.2123 184.213 66.2123C183.616 66.2123 183.096 66.3591 182.651 66.6527C182.21 66.9415 181.869 67.3203 181.628 67.789C181.391 68.2531 181.273 68.7573 181.273 69.3018V70.5447C181.273 71.2739 181.401 71.8942 181.656 72.4055C181.917 72.9169 182.279 73.3075 182.743 73.5774C183.207 73.8425 183.749 73.9751 184.369 73.9751C184.772 73.9751 185.139 73.9183 185.47 73.8047C185.802 73.6863 186.088 73.5111 186.33 73.2791C186.571 73.0471 186.756 72.7606 186.884 72.4197L188.893 72.7819C188.732 73.3738 188.444 73.8923 188.027 74.3373C187.615 74.7777 187.097 75.121 186.472 75.3672C185.851 75.6086 185.143 75.7294 184.348 75.7294ZM195.98 75.7294C194.924 75.7294 194.015 75.4903 193.252 75.0121C192.495 74.5291 191.913 73.8639 191.505 73.0163C191.098 72.1688 190.895 71.1981 190.895 70.1044C190.895 68.9964 191.103 68.0187 191.52 67.1711C191.936 66.3189 192.523 65.6536 193.281 65.1754C194.038 64.6972 194.931 64.4581 195.958 64.4581C196.787 64.4581 197.526 64.612 198.174 64.9197C198.823 65.2228 199.346 65.6489 199.744 66.1981C200.146 66.7474 200.386 67.389 200.461 68.1229H198.395C198.281 67.6115 198.02 67.1711 197.613 66.8018C197.211 66.4325 196.671 66.2479 195.994 66.2479C195.402 66.2479 194.884 66.4041 194.439 66.7166C193.998 67.0244 193.655 67.4647 193.409 68.0376C193.163 68.6058 193.039 69.2782 193.039 70.0547C193.039 70.8501 193.16 71.5367 193.402 72.1143C193.643 72.692 193.984 73.1394 194.424 73.4567C194.869 73.7739 195.393 73.9325 195.994 73.9325C196.396 73.9325 196.761 73.8591 197.088 73.7123C197.419 73.5608 197.696 73.3454 197.919 73.066C198.146 72.7867 198.305 72.4505 198.395 72.0575H200.461C200.386 72.763 200.156 73.3927 199.772 73.9467C199.389 74.5007 198.875 74.9363 198.231 75.2535C197.592 75.5708 196.842 75.7294 195.98 75.7294ZM207.434 75.7294C206.359 75.7294 205.433 75.4997 204.657 75.0405C203.885 74.5765 203.289 73.9254 202.867 73.0873C202.451 72.2445 202.242 71.2573 202.242 70.1257C202.242 69.0083 202.451 68.0234 202.867 67.1711C203.289 66.3189 203.876 65.6536 204.629 65.1754C205.386 64.6972 206.272 64.4581 207.285 64.4581C207.9 64.4581 208.497 64.5599 209.075 64.7635C209.652 64.9671 210.171 65.2867 210.63 65.7223C211.089 66.1579 211.451 66.7237 211.717 67.4197C211.982 68.111 212.114 68.9515 212.114 69.941V70.6939H203.442V69.103H210.033C210.033 68.5443 209.92 68.0495 209.692 67.6186C209.465 67.183 209.146 66.8397 208.734 66.5888C208.326 66.3378 207.848 66.2123 207.299 66.2123C206.702 66.2123 206.182 66.3591 205.737 66.6527C205.296 66.9415 204.955 67.3203 204.714 67.789C204.477 68.2531 204.359 68.7573 204.359 69.3018V70.5447C204.359 71.2739 204.487 71.8942 204.742 72.4055C205.003 72.9169 205.365 73.3075 205.829 73.5774C206.293 73.8425 206.835 73.9751 207.455 73.9751C207.858 73.9751 208.225 73.9183 208.556 73.8047C208.888 73.6863 209.174 73.5111 209.415 73.2791C209.657 73.0471 209.842 72.7606 209.969 72.4197L211.979 72.7819C211.818 73.3738 211.53 73.8923 211.113 74.3373C210.701 74.7777 210.183 75.121 209.558 75.3672C208.937 75.6086 208.229 75.7294 207.434 75.7294ZM227.129 79.6001V73.8118H227.001C226.873 74.0438 226.688 74.3089 226.447 74.6072C226.21 74.9055 225.883 75.1659 225.467 75.3885C225.05 75.611 224.51 75.7223 223.847 75.7223C222.967 75.7223 222.181 75.4974 221.489 75.0476C220.803 74.593 220.263 73.9467 219.87 73.1086C219.482 72.2658 219.288 71.255 219.288 70.076C219.288 68.897 219.484 67.8885 219.877 67.0504C220.275 66.2123 220.819 65.5708 221.511 65.1257C222.202 64.6806 222.986 64.4581 223.862 64.4581C224.539 64.4581 225.083 64.5717 225.495 64.799C225.912 65.0215 226.234 65.2819 226.461 65.5802C226.693 65.8785 226.873 66.1413 227.001 66.3686H227.178V64.6001H229.252V79.6001H227.129ZM224.316 73.9112C224.927 73.9112 225.443 73.7502 225.864 73.4283C226.29 73.1015 226.612 72.6494 226.83 72.0717C227.053 71.4941 227.164 70.8217 227.164 70.0547C227.164 69.2971 227.055 68.6342 226.837 68.066C226.62 67.4979 226.3 67.0551 225.879 66.7379C225.457 66.4207 224.936 66.2621 224.316 66.2621C223.677 66.2621 223.144 66.4278 222.718 66.7592C222.292 67.0907 221.97 67.5428 221.752 68.1158C221.539 68.6887 221.433 69.335 221.433 70.0547C221.433 70.7838 221.541 71.4396 221.759 72.022C221.977 72.6044 222.299 73.066 222.725 73.4069C223.156 73.7431 223.686 73.9112 224.316 73.9112ZM239.018 70.9851V64.6001H241.148V75.5092H239.06V73.62H238.947C238.696 74.2024 238.293 74.6877 237.739 75.076C237.19 75.4595 236.506 75.6513 235.687 75.6513C234.986 75.6513 234.366 75.4974 233.826 75.1896C233.291 74.8771 232.87 74.4155 232.562 73.8047C232.259 73.1939 232.107 72.4387 232.107 71.539V64.6001H234.231V71.2834C234.231 72.0267 234.437 72.6186 234.849 73.0589C235.261 73.4993 235.796 73.7194 236.454 73.7194C236.852 73.7194 237.247 73.62 237.64 73.4211C238.038 73.2223 238.367 72.9216 238.627 72.5192C238.892 72.1167 239.022 71.6053 239.018 70.9851ZM248.703 75.7294C247.629 75.7294 246.703 75.4997 245.926 75.0405C245.155 74.5765 244.558 73.9254 244.137 73.0873C243.72 72.2445 243.512 71.2573 243.512 70.1257C243.512 69.0083 243.72 68.0234 244.137 67.1711C244.558 66.3189 245.145 65.6536 245.898 65.1754C246.656 64.6972 247.541 64.4581 248.554 64.4581C249.17 64.4581 249.766 64.5599 250.344 64.7635C250.922 64.9671 251.44 65.2867 251.9 65.7223C252.359 66.1579 252.721 66.7237 252.986 67.4197C253.251 68.111 253.384 68.9515 253.384 69.941V70.6939H244.712V69.103H251.303C251.303 68.5443 251.189 68.0495 250.962 67.6186C250.735 67.183 250.415 66.8397 250.003 66.5888C249.596 66.3378 249.118 66.2123 248.569 66.2123C247.972 66.2123 247.451 66.3591 247.006 66.6527C246.566 66.9415 246.225 67.3203 245.983 67.789C245.747 68.2531 245.628 68.7573 245.628 69.3018V70.5447C245.628 71.2739 245.756 71.8942 246.012 72.4055C246.272 72.9169 246.634 73.3075 247.098 73.5774C247.562 73.8425 248.105 73.9751 248.725 73.9751C249.127 73.9751 249.494 73.9183 249.826 73.8047C250.157 73.6863 250.444 73.5111 250.685 73.2791C250.926 73.0471 251.111 72.7606 251.239 72.4197L253.249 72.7819C253.088 73.3738 252.799 73.8923 252.382 74.3373C251.971 74.7777 251.452 75.121 250.827 75.3672C250.207 75.6086 249.499 75.7294 248.703 75.7294ZM264.208 75.7507C263.516 75.7507 262.891 75.6229 262.333 75.3672C261.774 75.1068 261.331 74.7303 261.005 74.2379C260.683 73.7455 260.522 73.1418 260.522 72.4268C260.522 71.8113 260.64 71.3047 260.877 70.9069C261.114 70.5092 261.433 70.1943 261.836 69.9623C262.238 69.7303 262.688 69.5551 263.185 69.4368C263.682 69.3184 264.189 69.2284 264.705 69.1669C265.358 69.0911 265.889 69.0296 266.296 68.9822C266.703 68.9301 266.999 68.8473 267.184 68.7336C267.368 68.62 267.461 68.4354 267.461 68.1797V68.13C267.461 67.5097 267.285 67.0291 266.935 66.6882C266.589 66.3473 266.073 66.1768 265.387 66.1768C264.672 66.1768 264.108 66.3354 263.696 66.6527C263.289 66.9652 263.007 67.3132 262.851 67.6967L260.855 67.2422C261.092 66.5793 261.438 66.0443 261.892 65.6371C262.352 65.2251 262.88 64.9268 263.476 64.7422C264.073 64.5528 264.7 64.4581 265.358 64.4581C265.794 64.4581 266.256 64.5102 266.743 64.6143C267.236 64.7138 267.695 64.8984 268.121 65.1683C268.552 65.4382 268.905 65.8241 269.179 66.326C269.454 66.8231 269.591 67.4694 269.591 68.2649V75.5092H267.517V74.0177H267.432C267.295 74.2924 267.089 74.5622 266.814 74.8274C266.54 75.0925 266.187 75.3127 265.756 75.4879C265.325 75.6631 264.809 75.7507 264.208 75.7507ZM264.669 74.0461C265.257 74.0461 265.758 73.9301 266.175 73.6981C266.596 73.4661 266.916 73.1631 267.134 72.789C267.356 72.4103 267.468 72.0054 267.468 71.5746V70.1683C267.392 70.2441 267.245 70.3151 267.027 70.3814C266.814 70.4429 266.57 70.4974 266.296 70.5447C266.021 70.5873 265.754 70.6276 265.493 70.6655C265.233 70.6986 265.015 70.727 264.84 70.7507C264.428 70.8028 264.051 70.8904 263.711 71.0135C263.374 71.1366 263.105 71.3141 262.901 71.5461C262.702 71.7734 262.603 72.0765 262.603 72.4552C262.603 72.9808 262.797 73.3785 263.185 73.6484C263.573 73.9136 264.068 74.0461 264.669 74.0461ZM274.543 60.9638V75.5092H272.42V60.9638H274.543ZM281.995 75.7294C280.94 75.7294 280.03 75.4903 279.268 75.0121C278.511 74.5291 277.928 73.8639 277.521 73.0163C277.114 72.1688 276.91 71.1981 276.91 70.1044C276.91 68.9964 277.118 68.0187 277.535 67.1711C277.952 66.3189 278.539 65.6536 279.297 65.1754C280.054 64.6972 280.947 64.4581 281.974 64.4581C282.803 64.4581 283.541 64.612 284.19 64.9197C284.839 65.2228 285.362 65.6489 285.76 66.1981C286.162 66.7474 286.401 67.389 286.477 68.1229H284.41C284.297 67.6115 284.036 67.1711 283.629 66.8018C283.226 66.4325 282.687 66.2479 282.01 66.2479C281.418 66.2479 280.899 66.4041 280.454 66.7166C280.014 67.0244 279.671 67.4647 279.424 68.0376C279.178 68.6058 279.055 69.2782 279.055 70.0547C279.055 70.8501 279.176 71.5367 279.417 72.1143C279.659 72.692 280 73.1394 280.44 73.4567C280.885 73.7739 281.408 73.9325 282.01 73.9325C282.412 73.9325 282.777 73.8591 283.103 73.7123C283.435 73.5608 283.712 73.3454 283.934 73.066C284.162 72.7867 284.32 72.4505 284.41 72.0575H286.477C286.401 72.763 286.172 73.3927 285.788 73.9467C285.404 74.5007 284.891 74.9363 284.247 75.2535C283.608 75.5708 282.857 75.7294 281.995 75.7294ZM291.923 75.7507C291.231 75.7507 290.606 75.6229 290.048 75.3672C289.489 75.1068 289.046 74.7303 288.719 74.2379C288.397 73.7455 288.237 73.1418 288.237 72.4268C288.237 71.8113 288.355 71.3047 288.592 70.9069C288.828 70.5092 289.148 70.1943 289.55 69.9623C289.953 69.7303 290.403 69.5551 290.9 69.4368C291.397 69.3184 291.904 69.2284 292.42 69.1669C293.073 69.0911 293.603 69.0296 294.011 68.9822C294.418 68.9301 294.714 68.8473 294.898 68.7336C295.083 68.62 295.175 68.4354 295.175 68.1797V68.13C295.175 67.5097 295 67.0291 294.65 66.6882C294.304 66.3473 293.788 66.1768 293.102 66.1768C292.387 66.1768 291.823 66.3354 291.411 66.6527C291.004 66.9652 290.722 67.3132 290.566 67.6967L288.57 67.2422C288.807 66.5793 289.153 66.0443 289.607 65.6371C290.067 65.2251 290.594 64.9268 291.191 64.7422C291.788 64.5528 292.415 64.4581 293.073 64.4581C293.509 64.4581 293.97 64.5102 294.458 64.6143C294.951 64.7138 295.41 64.8984 295.836 65.1683C296.267 65.4382 296.62 65.8241 296.894 66.326C297.169 66.8231 297.306 67.4694 297.306 68.2649V75.5092H295.232V74.0177H295.147C295.01 74.2924 294.804 74.5622 294.529 74.8274C294.254 75.0925 293.902 75.3127 293.471 75.4879C293.04 75.6631 292.524 75.7507 291.923 75.7507ZM292.384 74.0461C292.971 74.0461 293.473 73.9301 293.89 73.6981C294.311 73.4661 294.631 73.1631 294.849 72.789C295.071 72.4103 295.183 72.0054 295.183 71.5746V70.1683C295.107 70.2441 294.96 70.3151 294.742 70.3814C294.529 70.4429 294.285 70.4974 294.011 70.5447C293.736 70.5873 293.469 70.6276 293.208 70.6655C292.948 70.6986 292.73 70.727 292.555 70.7507C292.143 70.8028 291.766 70.8904 291.425 71.0135C291.089 71.1366 290.819 71.3141 290.616 71.5461C290.417 71.7734 290.317 72.0765 290.317 72.4552C290.317 72.9808 290.512 73.3785 290.9 73.6484C291.288 73.9136 291.783 74.0461 292.384 74.0461ZM302.258 69.0319V75.5092H300.135V64.6001H302.173V66.3757H302.308C302.559 65.798 302.952 65.334 303.487 64.9836C304.027 64.6333 304.706 64.4581 305.525 64.4581C306.269 64.4581 306.92 64.6143 307.478 64.9268C308.037 65.2346 308.47 65.6939 308.778 66.3047C309.086 66.9155 309.24 67.6707 309.24 68.5703V75.5092H307.116V68.826C307.116 68.0353 306.91 67.4174 306.498 66.9723C306.086 66.5225 305.52 66.2976 304.801 66.2976C304.308 66.2976 303.87 66.4041 303.487 66.6172C303.108 66.8302 302.807 67.1427 302.585 67.5547C302.367 67.9619 302.258 68.4543 302.258 69.0319ZM311.86 75.5092V74.0533L317.77 66.5461V66.4467H312.052V64.6001H320.419V66.1484L314.737 73.5632V73.6626H320.618V75.5092H311.86ZM326.298 75.7507C325.606 75.7507 324.981 75.6229 324.423 75.3672C323.864 75.1068 323.421 74.7303 323.094 74.2379C322.772 73.7455 322.612 73.1418 322.612 72.4268C322.612 71.8113 322.73 71.3047 322.967 70.9069C323.203 70.5092 323.523 70.1943 323.925 69.9623C324.328 69.7303 324.778 69.5551 325.275 69.4368C325.772 69.3184 326.279 69.2284 326.795 69.1669C327.448 69.0911 327.978 69.0296 328.386 68.9822C328.793 68.9301 329.089 68.8473 329.273 68.7336C329.458 68.62 329.55 68.4354 329.55 68.1797V68.13C329.55 67.5097 329.375 67.0291 329.025 66.6882C328.679 66.3473 328.163 66.1768 327.477 66.1768C326.762 66.1768 326.198 66.3354 325.786 66.6527C325.379 66.9652 325.097 67.3132 324.941 67.6967L322.945 67.2422C323.182 66.5793 323.528 66.0443 323.982 65.6371C324.442 65.2251 324.969 64.9268 325.566 64.7422C326.163 64.5528 326.79 64.4581 327.448 64.4581C327.884 64.4581 328.345 64.5102 328.833 64.6143C329.326 64.7138 329.785 64.8984 330.211 65.1683C330.642 65.4382 330.995 65.8241 331.269 66.326C331.544 66.8231 331.681 67.4694 331.681 68.2649V75.5092H329.607V74.0177H329.522C329.385 74.2924 329.179 74.5622 328.904 74.8274C328.629 75.0925 328.277 75.3127 327.846 75.4879C327.415 75.6631 326.899 75.7507 326.298 75.7507ZM326.759 74.0461C327.346 74.0461 327.848 73.9301 328.265 73.6981C328.686 73.4661 329.006 73.1631 329.224 72.789C329.446 72.4103 329.558 72.0054 329.558 71.5746V70.1683C329.482 70.2441 329.335 70.3151 329.117 70.3814C328.904 70.4429 328.66 70.4974 328.386 70.5447C328.111 70.5873 327.844 70.6276 327.583 70.6655C327.323 70.6986 327.105 70.727 326.93 70.7507C326.518 70.8028 326.141 70.8904 325.8 71.0135C325.464 71.1366 325.194 71.3141 324.991 71.5461C324.792 71.7734 324.692 72.0765 324.692 72.4552C324.692 72.9808 324.887 73.3785 325.275 73.6484C325.663 73.9136 326.158 74.0461 326.759 74.0461ZM342.684 67.2635L340.76 67.6044C340.679 67.3582 340.551 67.1238 340.376 66.9013C340.206 66.6787 339.974 66.4964 339.68 66.3544C339.386 66.2123 339.02 66.1413 338.579 66.1413C337.978 66.1413 337.476 66.2763 337.074 66.5461C336.671 66.8113 336.47 67.1546 336.47 67.576C336.47 67.9406 336.605 68.2341 336.875 68.4567C337.145 68.6792 337.58 68.8615 338.181 69.0035L339.914 69.4013C340.918 69.6333 341.666 69.9908 342.159 70.4737C342.651 70.9567 342.897 71.584 342.897 72.3558C342.897 73.0092 342.708 73.5916 342.329 74.103C341.955 74.6096 341.432 75.0073 340.76 75.2961C340.092 75.585 339.318 75.7294 338.437 75.7294C337.216 75.7294 336.219 75.469 335.447 74.9481C334.675 74.4226 334.202 73.6768 334.027 72.7109L336.079 72.3984C336.207 72.9335 336.47 73.3383 336.868 73.6129C337.265 73.8828 337.784 74.0177 338.423 74.0177C339.119 74.0177 339.675 73.8733 340.092 73.5845C340.509 73.2909 340.717 72.9335 340.717 72.5121C340.717 72.1711 340.589 71.8847 340.333 71.6527C340.083 71.4207 339.697 71.2455 339.176 71.1271L337.329 70.7223C336.311 70.4903 335.558 70.121 335.071 69.6143C334.588 69.1077 334.346 68.4661 334.346 67.6896C334.346 67.0457 334.526 66.4822 334.886 65.9993C335.246 65.5163 335.743 65.1399 336.377 64.87C337.012 64.5954 337.739 64.4581 338.558 64.4581C339.737 64.4581 340.665 64.7138 341.342 65.2251C342.019 65.7318 342.467 66.4112 342.684 67.2635ZM350.325 64.6001V66.3047H344.366V64.6001H350.325ZM345.964 61.9865H348.087V72.3061C348.087 72.718 348.149 73.0282 348.272 73.2365C348.395 73.4401 348.554 73.5798 348.748 73.6555C348.947 73.7265 349.162 73.7621 349.394 73.7621C349.565 73.7621 349.714 73.7502 349.842 73.7265C349.969 73.7029 350.069 73.6839 350.14 73.6697L350.523 75.424C350.4 75.4713 350.225 75.5187 349.998 75.566C349.771 75.6181 349.487 75.6465 349.146 75.6513C348.587 75.6607 348.066 75.5613 347.583 75.353C347.1 75.1446 346.71 74.8227 346.411 74.3871C346.113 73.9515 345.964 73.4046 345.964 72.7464V61.9865ZM357.258 75.7294C356.183 75.7294 355.258 75.4997 354.481 75.0405C353.709 74.5765 353.113 73.9254 352.691 73.0873C352.275 72.2445 352.066 71.2573 352.066 70.1257C352.066 69.0083 352.275 68.0234 352.691 67.1711C353.113 66.3189 353.7 65.6536 354.453 65.1754C355.21 64.6972 356.096 64.4581 357.109 64.4581C357.725 64.4581 358.321 64.5599 358.899 64.7635C359.476 64.9671 359.995 65.2867 360.454 65.7223C360.913 66.1579 361.276 66.7237 361.541 67.4197C361.806 68.111 361.939 68.9515 361.939 69.941V70.6939H353.267V69.103H359.858C359.858 68.5443 359.744 68.0495 359.517 67.6186C359.289 67.183 358.97 66.8397 358.558 66.5888C358.151 66.3378 357.672 66.2123 357.123 66.2123C356.527 66.2123 356.006 66.3591 355.561 66.6527C355.12 66.9415 354.779 67.3203 354.538 67.789C354.301 68.2531 354.183 68.7573 354.183 69.3018V70.5447C354.183 71.2739 354.311 71.8942 354.566 72.4055C354.827 72.9169 355.189 73.3075 355.653 73.5774C356.117 73.8425 356.659 73.9751 357.279 73.9751C357.682 73.9751 358.049 73.9183 358.38 73.8047C358.712 73.6863 358.998 73.5111 359.24 73.2791C359.481 73.0471 359.666 72.7606 359.794 72.4197L361.804 72.7819C361.643 73.3738 361.354 73.8923 360.937 74.3373C360.525 74.7777 360.007 75.121 359.382 75.3672C358.761 75.6086 358.054 75.7294 357.258 75.7294ZM374.289 75.7294C373.215 75.7294 372.289 75.4997 371.512 75.0405C370.741 74.5765 370.144 73.9254 369.723 73.0873C369.306 72.2445 369.098 71.2573 369.098 70.1257C369.098 69.0083 369.306 68.0234 369.723 67.1711C370.144 66.3189 370.731 65.6536 371.484 65.1754C372.242 64.6972 373.127 64.4581 374.14 64.4581C374.756 64.4581 375.352 64.5599 375.93 64.7635C376.508 64.9671 377.026 65.2867 377.485 65.7223C377.945 66.1579 378.307 66.7237 378.572 67.4197C378.837 68.111 378.97 68.9515 378.97 69.941V70.6939H370.298V69.103H376.889C376.889 68.5443 376.775 68.0495 376.548 67.6186C376.321 67.183 376.001 66.8397 375.589 66.5888C375.182 66.3378 374.704 66.2123 374.154 66.2123C373.558 66.2123 373.037 66.3591 372.592 66.6527C372.152 66.9415 371.811 67.3203 371.569 67.789C371.333 68.2531 371.214 68.7573 371.214 69.3018V70.5447C371.214 71.2739 371.342 71.8942 371.598 72.4055C371.858 72.9169 372.22 73.3075 372.684 73.5774C373.148 73.8425 373.69 73.9751 374.311 73.9751C374.713 73.9751 375.08 73.9183 375.412 73.8047C375.743 73.6863 376.029 73.5111 376.271 73.2791C376.512 73.0471 376.697 72.7606 376.825 72.4197L378.835 72.7819C378.674 73.3738 378.385 73.8923 377.968 74.3373C377.556 74.7777 377.038 75.121 376.413 75.3672C375.793 75.6086 375.085 75.7294 374.289 75.7294ZM383.45 60.9638V75.5092H381.326V60.9638H383.45ZM393.723 60.9638V75.5092H391.599V60.9638H393.723ZM396.58 75.5092V64.6001H398.703V75.5092H396.58ZM397.652 62.9169C397.283 62.9169 396.966 62.7938 396.701 62.5476C396.44 62.2966 396.31 61.9983 396.31 61.6527C396.31 61.3023 396.44 61.004 396.701 60.7578C396.966 60.5068 397.283 60.3814 397.652 60.3814C398.022 60.3814 398.337 60.5068 398.597 60.7578C398.862 61.004 398.995 61.3023 398.995 61.6527C398.995 61.9983 398.862 62.2966 398.597 62.5476C398.337 62.7938 398.022 62.9169 397.652 62.9169ZM401.56 75.5092V64.6001H403.599V66.3757H403.734C403.961 65.7744 404.333 65.3056 404.849 64.9694C405.365 64.6285 405.983 64.4581 406.702 64.4581C407.432 64.4581 408.042 64.6285 408.535 64.9694C409.032 65.3104 409.399 65.7791 409.636 66.3757H409.749C410.01 65.7933 410.424 65.3293 410.992 64.9836C411.56 64.6333 412.237 64.4581 413.023 64.4581C414.013 64.4581 414.82 64.7682 415.445 65.3885C416.075 66.0087 416.39 66.9439 416.39 68.1939V75.5092H414.266V68.3927C414.266 67.6541 414.065 67.1191 413.663 66.7876C413.26 66.4562 412.78 66.2905 412.221 66.2905C411.53 66.2905 410.992 66.5035 410.609 66.9297C410.225 67.3511 410.033 67.8932 410.033 68.5561V75.5092H407.917V68.2578C407.917 67.6659 407.732 67.1901 407.363 66.8302C406.994 66.4704 406.513 66.2905 405.921 66.2905C405.519 66.2905 405.147 66.397 404.806 66.6101C404.47 66.8184 404.198 67.1096 403.989 67.4836C403.786 67.8577 403.684 68.2909 403.684 68.7834V75.5092H401.56ZM419.236 75.5092V64.6001H421.36V75.5092H419.236ZM420.309 62.9169C419.939 62.9169 419.622 62.7938 419.357 62.5476C419.096 62.2966 418.966 61.9983 418.966 61.6527C418.966 61.3023 419.096 61.004 419.357 60.7578C419.622 60.5068 419.939 60.3814 420.309 60.3814C420.678 60.3814 420.993 60.5068 421.253 60.7578C421.518 61.004 421.651 61.3023 421.651 61.6527C421.651 61.9983 421.518 62.2966 421.253 62.5476C420.993 62.7938 420.678 62.9169 420.309 62.9169ZM429.309 64.6001V66.3047H423.35V64.6001H429.309ZM424.948 61.9865H427.072V72.3061C427.072 72.718 427.133 73.0282 427.256 73.2365C427.379 73.4401 427.538 73.5798 427.732 73.6555C427.931 73.7265 428.147 73.7621 428.379 73.7621C428.549 73.7621 428.698 73.7502 428.826 73.7265C428.954 73.7029 429.053 73.6839 429.124 73.6697L429.508 75.424C429.385 75.4713 429.21 75.5187 428.982 75.566C428.755 75.6181 428.471 75.6465 428.13 75.6513C427.571 75.6607 427.05 75.5613 426.567 75.353C426.085 75.1446 425.694 74.8227 425.396 74.3871C425.097 73.9515 424.948 73.4046 424.948 72.7464V61.9865ZM436.243 75.7294C435.168 75.7294 434.242 75.4997 433.466 75.0405C432.694 74.5765 432.097 73.9254 431.676 73.0873C431.259 72.2445 431.051 71.2573 431.051 70.1257C431.051 69.0083 431.259 68.0234 431.676 67.1711C432.097 66.3189 432.684 65.6536 433.437 65.1754C434.195 64.6972 435.08 64.4581 436.093 64.4581C436.709 64.4581 437.306 64.5599 437.883 64.7635C438.461 64.9671 438.979 65.2867 439.439 65.7223C439.898 66.1579 440.26 66.7237 440.525 67.4197C440.79 68.111 440.923 68.9515 440.923 69.941V70.6939H432.251V69.103H438.842C438.842 68.5443 438.728 68.0495 438.501 67.6186C438.274 67.183 437.954 66.8397 437.542 66.5888C437.135 66.3378 436.657 66.2123 436.108 66.2123C435.511 66.2123 434.99 66.3591 434.545 66.6527C434.105 66.9415 433.764 67.3203 433.522 67.789C433.286 68.2531 433.167 68.7573 433.167 69.3018V70.5447C433.167 71.2739 433.295 71.8942 433.551 72.4055C433.811 72.9169 434.173 73.3075 434.637 73.5774C435.101 73.8425 435.644 73.9751 436.264 73.9751C436.666 73.9751 437.033 73.9183 437.365 73.8047C437.696 73.6863 437.983 73.5111 438.224 73.2791C438.466 73.0471 438.65 72.7606 438.778 72.4197L440.788 72.7819C440.627 73.3738 440.338 73.8923 439.922 74.3373C439.51 74.7777 438.991 75.121 438.366 75.3672C437.746 75.6086 437.038 75.7294 436.243 75.7294ZM455.937 79.6001V73.8118H455.809C455.681 74.0438 455.497 74.3089 455.255 74.6072C455.019 74.9055 454.692 75.1659 454.275 75.3885C453.859 75.611 453.319 75.7223 452.656 75.7223C451.775 75.7223 450.989 75.4974 450.298 75.0476C449.611 74.593 449.072 73.9467 448.679 73.1086C448.29 72.2658 448.096 71.255 448.096 70.076C448.096 68.897 448.293 67.8885 448.686 67.0504C449.083 66.2123 449.628 65.5708 450.319 65.1257C451.011 64.6806 451.794 64.4581 452.67 64.4581C453.347 64.4581 453.892 64.5717 454.304 64.799C454.72 65.0215 455.042 65.2819 455.27 65.5802C455.502 65.8785 455.681 66.1413 455.809 66.3686H455.987V64.6001H458.061V79.6001H455.937ZM453.125 73.9112C453.735 73.9112 454.252 73.7502 454.673 73.4283C455.099 73.1015 455.421 72.6494 455.639 72.0717C455.861 71.4941 455.973 70.8217 455.973 70.0547C455.973 69.2971 455.864 68.6342 455.646 68.066C455.428 67.4979 455.109 67.0551 454.687 66.7379C454.266 66.4207 453.745 66.2621 453.125 66.2621C452.485 66.2621 451.953 66.4278 451.527 66.7592C451.1 67.0907 450.779 67.5428 450.561 68.1158C450.348 68.6887 450.241 69.335 450.241 70.0547C450.241 70.7838 450.35 71.4396 450.568 72.022C450.786 72.6044 451.108 73.066 451.534 73.4069C451.965 73.7431 452.495 73.9112 453.125 73.9112ZM467.826 70.9851V64.6001H469.957V75.5092H467.869V73.62H467.755C467.504 74.2024 467.102 74.6877 466.548 75.076C465.999 75.4595 465.315 75.6513 464.495 75.6513C463.795 75.6513 463.174 75.4974 462.635 75.1896C462.1 74.8771 461.678 74.4155 461.37 73.8047C461.067 73.1939 460.916 72.4387 460.916 71.539V64.6001H463.039V71.2834C463.039 72.0267 463.245 72.6186 463.657 73.0589C464.069 73.4993 464.604 73.7194 465.262 73.7194C465.66 73.7194 466.056 73.62 466.449 73.4211C466.846 73.2223 467.175 72.9216 467.436 72.5192C467.701 72.1167 467.831 71.6053 467.826 70.9851ZM477.512 75.7294C476.437 75.7294 475.512 75.4997 474.735 75.0405C473.963 74.5765 473.367 73.9254 472.945 73.0873C472.529 72.2445 472.32 71.2573 472.32 70.1257C472.32 69.0083 472.529 68.0234 472.945 67.1711C473.367 66.3189 473.954 65.6536 474.707 65.1754C475.464 64.6972 476.35 64.4581 477.363 64.4581C477.978 64.4581 478.575 64.5599 479.153 64.7635C479.73 64.9671 480.249 65.2867 480.708 65.7223C481.167 66.1579 481.53 66.7237 481.795 67.4197C482.06 68.111 482.192 68.9515 482.192 69.941V70.6939H473.521V69.103H480.112C480.112 68.5443 479.998 68.0495 479.771 67.6186C479.543 67.183 479.224 66.8397 478.812 66.5888C478.405 66.3378 477.926 66.2123 477.377 66.2123C476.781 66.2123 476.26 66.3591 475.815 66.6527C475.374 66.9415 475.033 67.3203 474.792 67.789C474.555 68.2531 474.437 68.7573 474.437 69.3018V70.5447C474.437 71.2739 474.565 71.8942 474.82 72.4055C475.081 72.9169 475.443 73.3075 475.907 73.5774C476.371 73.8425 476.913 73.9751 477.533 73.9751C477.936 73.9751 478.303 73.9183 478.634 73.8047C478.966 73.6863 479.252 73.5111 479.494 73.2791C479.735 73.0471 479.92 72.7606 480.048 72.4197L482.058 72.7819C481.897 73.3738 481.608 73.8923 481.191 74.3373C480.779 74.7777 480.261 75.121 479.636 75.3672C479.015 75.6086 478.308 75.7294 477.512 75.7294ZM120.52 88.6001V90.3047H114.561V88.6001H120.52ZM116.159 85.9865H118.283V96.3061C118.283 96.718 118.344 97.0282 118.467 97.2365C118.59 97.4401 118.749 97.5798 118.943 97.6555C119.142 97.7265 119.357 97.7621 119.589 97.7621C119.76 97.7621 119.909 97.7502 120.037 97.7265C120.165 97.7029 120.264 97.6839 120.335 97.6697L120.719 99.424C120.596 99.4713 120.42 99.5187 120.193 99.566C119.966 99.6181 119.682 99.6465 119.341 99.6513C118.782 99.6607 118.261 99.5613 117.778 99.353C117.295 99.1446 116.905 98.8227 116.607 98.3871C116.308 97.9515 116.159 97.4046 116.159 96.7464V85.9865ZM127.453 99.7294C126.379 99.7294 125.453 99.4997 124.676 99.0405C123.905 98.5765 123.308 97.9254 122.887 97.0873C122.47 96.2445 122.262 95.2573 122.262 94.1257C122.262 93.0083 122.47 92.0234 122.887 91.1711C123.308 90.3189 123.895 89.6536 124.648 89.1754C125.406 88.6972 126.291 88.4581 127.304 88.4581C127.92 88.4581 128.516 88.5599 129.094 88.7635C129.672 88.9671 130.19 89.2867 130.65 89.7223C131.109 90.1579 131.471 90.7237 131.736 91.4197C132.001 92.111 132.134 92.9515 132.134 93.941V94.6939H123.462V93.103H130.053C130.053 92.5443 129.939 92.0495 129.712 91.6186C129.485 91.183 129.165 90.8397 128.753 90.5888C128.346 90.3378 127.868 90.2123 127.319 90.2123C126.722 90.2123 126.201 90.3591 125.756 90.6527C125.316 90.9415 124.975 91.3203 124.733 91.789C124.497 92.2531 124.378 92.7573 124.378 93.3018V94.5447C124.378 95.2739 124.506 95.8942 124.762 96.4055C125.022 96.9169 125.384 97.3075 125.848 97.5774C126.312 97.8425 126.855 97.9751 127.475 97.9751C127.877 97.9751 128.244 97.9183 128.576 97.8047C128.907 97.6863 129.194 97.5111 129.435 97.2791C129.676 97.0471 129.861 96.7606 129.989 96.4197L131.999 96.7819C131.838 97.3738 131.549 97.8923 131.132 98.3373C130.721 98.7777 130.202 99.121 129.577 99.3672C128.957 99.6086 128.249 99.7294 127.453 99.7294ZM136.614 93.0319V99.5092H134.49V88.6001H136.528V90.3757H136.663C136.914 89.798 137.307 89.334 137.842 88.9836C138.382 88.6333 139.062 88.4581 139.881 88.4581C140.624 88.4581 141.275 88.6143 141.834 88.9268C142.393 89.2346 142.826 89.6939 143.134 90.3047C143.441 90.9155 143.595 91.6707 143.595 92.5703V99.5092H141.472V92.826C141.472 92.0353 141.266 91.4174 140.854 90.9723C140.442 90.5225 139.876 90.2976 139.156 90.2976C138.664 90.2976 138.226 90.4041 137.842 90.6172C137.464 90.8302 137.163 91.1427 136.94 91.5547C136.723 91.9619 136.614 92.4543 136.614 93.0319ZM146.443 99.5092V88.6001H148.567V99.5092H146.443ZM147.516 86.9169C147.146 86.9169 146.829 86.7938 146.564 86.5476C146.304 86.2966 146.173 85.9983 146.173 85.6527C146.173 85.3023 146.304 85.004 146.564 84.7578C146.829 84.5068 147.146 84.3814 147.516 84.3814C147.885 84.3814 148.2 84.5068 148.46 84.7578C148.725 85.004 148.858 85.3023 148.858 85.6527C148.858 85.9983 148.725 86.2966 148.46 86.5476C148.2 86.7938 147.885 86.9169 147.516 86.9169ZM154.598 99.7507C153.907 99.7507 153.282 99.6229 152.723 99.3672C152.165 99.1068 151.722 98.7303 151.395 98.2379C151.073 97.7455 150.912 97.1418 150.912 96.4268C150.912 95.8113 151.031 95.3047 151.267 94.9069C151.504 94.5092 151.824 94.1943 152.226 93.9623C152.629 93.7303 153.078 93.5551 153.576 93.4368C154.073 93.3184 154.579 93.2284 155.096 93.1669C155.749 93.0911 156.279 93.0296 156.686 92.9822C157.094 92.9301 157.39 92.8473 157.574 92.7336C157.759 92.62 157.851 92.4354 157.851 92.1797V92.13C157.851 91.5097 157.676 91.0291 157.326 90.6882C156.98 90.3473 156.464 90.1768 155.777 90.1768C155.062 90.1768 154.499 90.3354 154.087 90.6527C153.68 90.9652 153.398 91.3132 153.242 91.6967L151.246 91.2422C151.483 90.5793 151.828 90.0443 152.283 89.6371C152.742 89.2251 153.27 88.9268 153.867 88.7422C154.463 88.5528 155.091 88.4581 155.749 88.4581C156.185 88.4581 156.646 88.5102 157.134 88.6143C157.626 88.7138 158.086 88.8984 158.512 89.1683C158.943 89.4382 159.295 89.8241 159.57 90.326C159.845 90.8231 159.982 91.4694 159.982 92.2649V99.5092H157.908V98.0177H157.823C157.685 98.2924 157.48 98.5622 157.205 98.8274C156.93 99.0925 156.578 99.3127 156.147 99.4879C155.716 99.6631 155.2 99.7507 154.598 99.7507ZM155.06 98.0461C155.647 98.0461 156.149 97.9301 156.566 97.6981C156.987 97.4661 157.307 97.1631 157.525 96.789C157.747 96.4103 157.858 96.0054 157.858 95.5746V94.1683C157.783 94.2441 157.636 94.3151 157.418 94.3814C157.205 94.4429 156.961 94.4974 156.686 94.5447C156.412 94.5873 156.144 94.6276 155.884 94.6655C155.623 94.6986 155.406 94.727 155.23 94.7507C154.819 94.8028 154.442 94.8904 154.101 95.0135C153.765 95.1366 153.495 95.3141 153.292 95.5461C153.093 95.7734 152.993 96.0765 152.993 96.4552C152.993 96.9808 153.187 97.3785 153.576 97.6484C153.964 97.9136 154.459 98.0461 155.06 98.0461ZM170.985 91.2635L169.06 91.6044C168.98 91.3582 168.852 91.1238 168.677 90.9013C168.506 90.6787 168.274 90.4964 167.981 90.3544C167.687 90.2123 167.32 90.1413 166.88 90.1413C166.279 90.1413 165.777 90.2763 165.374 90.5461C164.972 90.8113 164.771 91.1546 164.771 91.576C164.771 91.9406 164.906 92.2341 165.175 92.4567C165.445 92.6792 165.881 92.8615 166.482 93.0035L168.215 93.4013C169.219 93.6333 169.967 93.9908 170.46 94.4737C170.952 94.9567 171.198 95.584 171.198 96.3558C171.198 97.0092 171.009 97.5916 170.63 98.103C170.256 98.6096 169.733 99.0073 169.06 99.2961C168.393 99.585 167.619 99.7294 166.738 99.7294C165.516 99.7294 164.52 99.469 163.748 98.9481C162.976 98.4226 162.503 97.6768 162.327 96.7109L164.38 96.3984C164.508 96.9335 164.771 97.3383 165.168 97.6129C165.566 97.8828 166.085 98.0177 166.724 98.0177C167.42 98.0177 167.976 97.8733 168.393 97.5845C168.809 97.2909 169.018 96.9335 169.018 96.5121C169.018 96.1711 168.89 95.8847 168.634 95.6527C168.383 95.4207 167.997 95.2455 167.477 95.1271L165.63 94.7223C164.612 94.4903 163.859 94.121 163.371 93.6143C162.888 93.1077 162.647 92.4661 162.647 91.6896C162.647 91.0457 162.827 90.4822 163.187 89.9993C163.547 89.5163 164.044 89.1399 164.678 88.87C165.313 88.5954 166.04 88.4581 166.859 88.4581C168.038 88.4581 168.966 88.7138 169.643 89.2251C170.32 89.7318 170.767 90.4112 170.985 91.2635ZM178.826 103.6V88.6001H180.9V90.3686H181.077C181.201 90.1413 181.378 89.8785 181.61 89.5802C181.842 89.2819 182.164 89.0215 182.576 88.799C182.988 88.5717 183.532 88.4581 184.21 88.4581C185.09 88.4581 185.876 88.6806 186.567 89.1257C187.259 89.5708 187.801 90.2123 188.194 91.0504C188.592 91.8885 188.79 92.897 188.79 94.076C188.79 95.255 188.594 96.2658 188.201 97.1086C187.808 97.9467 187.268 98.593 186.582 99.0476C185.895 99.4974 185.112 99.7223 184.231 99.7223C183.568 99.7223 183.026 99.611 182.604 99.3885C182.188 99.1659 181.861 98.9055 181.624 98.6072C181.388 98.3089 181.205 98.0438 181.077 97.8118H180.95V103.6H178.826ZM180.907 94.0547C180.907 94.8217 181.018 95.4941 181.241 96.0717C181.463 96.6494 181.785 97.1015 182.207 97.4283C182.628 97.7502 183.144 97.9112 183.755 97.9112C184.389 97.9112 184.92 97.7431 185.346 97.4069C185.772 97.066 186.094 96.6044 186.312 96.022C186.534 95.4396 186.646 94.7838 186.646 94.0547C186.646 93.335 186.537 92.6887 186.319 92.1158C186.106 91.5428 185.784 91.0907 185.353 90.7592C184.927 90.4278 184.394 90.2621 183.755 90.2621C183.139 90.2621 182.619 90.4207 182.192 90.7379C181.771 91.0551 181.451 91.4979 181.234 92.066C181.016 92.6342 180.907 93.2971 180.907 94.0547ZM191.17 99.5092V88.6001H193.222V90.3331H193.336C193.535 89.746 193.885 89.2843 194.387 88.9481C194.894 88.6072 195.467 88.4368 196.106 88.4368C196.238 88.4368 196.395 88.4415 196.575 88.451C196.759 88.4604 196.904 88.4723 197.008 88.4865V90.5177C196.923 90.4941 196.771 90.468 196.553 90.4396C196.335 90.4065 196.118 90.3899 195.9 90.3899C195.398 90.3899 194.951 90.4964 194.558 90.7095C194.169 90.9178 193.862 91.209 193.634 91.5831C193.407 91.9524 193.293 92.3738 193.293 92.8473V99.5092H191.17ZM203.157 99.7294C202.082 99.7294 201.156 99.4997 200.38 99.0405C199.608 98.5765 199.011 97.9254 198.59 97.0873C198.173 96.2445 197.965 95.2573 197.965 94.1257C197.965 93.0083 198.173 92.0234 198.59 91.1711C199.011 90.3189 199.598 89.6536 200.351 89.1754C201.109 88.6972 201.994 88.4581 203.007 88.4581C203.623 88.4581 204.22 88.5599 204.797 88.7635C205.375 88.9671 205.893 89.2867 206.353 89.7223C206.812 90.1579 207.174 90.7237 207.439 91.4197C207.704 92.111 207.837 92.9515 207.837 93.941V94.6939H199.165V93.103H205.756C205.756 92.5443 205.642 92.0495 205.415 91.6186C205.188 91.183 204.868 90.8397 204.456 90.5888C204.049 90.3378 203.571 90.2123 203.022 90.2123C202.425 90.2123 201.904 90.3591 201.459 90.6527C201.019 90.9415 200.678 91.3203 200.436 91.789C200.2 92.2531 200.081 92.7573 200.081 93.3018V94.5447C200.081 95.2739 200.209 95.8942 200.465 96.4055C200.725 96.9169 201.087 97.3075 201.551 97.5774C202.016 97.8425 202.558 97.9751 203.178 97.9751C203.58 97.9751 203.947 97.9183 204.279 97.8047C204.61 97.6863 204.897 97.5111 205.138 97.2791C205.38 97.0471 205.564 96.7606 205.692 96.4197L207.702 96.7819C207.541 97.3738 207.252 97.8923 206.836 98.3373C206.424 98.7777 205.905 99.121 205.28 99.3672C204.66 99.6086 203.952 99.7294 203.157 99.7294ZM218.368 91.2635L216.443 91.6044C216.363 91.3582 216.235 91.1238 216.06 90.9013C215.889 90.6787 215.657 90.4964 215.364 90.3544C215.07 90.2123 214.703 90.1413 214.263 90.1413C213.661 90.1413 213.16 90.2763 212.757 90.5461C212.355 90.8113 212.153 91.1546 212.153 91.576C212.153 91.9406 212.288 92.2341 212.558 92.4567C212.828 92.6792 213.264 92.8615 213.865 93.0035L215.598 93.4013C216.602 93.6333 217.35 93.9908 217.842 94.4737C218.335 94.9567 218.581 95.584 218.581 96.3558C218.581 97.0092 218.392 97.5916 218.013 98.103C217.639 98.6096 217.116 99.0073 216.443 99.2961C215.776 99.585 215.001 99.7294 214.121 99.7294C212.899 99.7294 211.902 99.469 211.131 98.9481C210.359 98.4226 209.885 97.6768 209.71 96.7109L211.763 96.3984C211.891 96.9335 212.153 97.3383 212.551 97.6129C212.949 97.8828 213.467 98.0177 214.107 98.0177C214.803 98.0177 215.359 97.8733 215.776 97.5845C216.192 97.2909 216.401 96.9335 216.401 96.5121C216.401 96.1711 216.273 95.8847 216.017 95.6527C215.766 95.4207 215.38 95.2455 214.859 95.1271L213.013 94.7223C211.995 94.4903 211.242 94.121 210.754 93.6143C210.271 93.1077 210.03 92.4661 210.03 91.6896C210.03 91.0457 210.21 90.4822 210.57 89.9993C210.929 89.5163 211.427 89.1399 212.061 88.87C212.696 88.5954 213.422 88.4581 214.241 88.4581C215.42 88.4581 216.348 88.7138 217.026 89.2251C217.703 89.7318 218.15 90.4112 218.368 91.2635ZM227.826 94.9851V88.6001H229.957V99.5092H227.869V97.62H227.755C227.504 98.2024 227.102 98.6877 226.548 99.076C225.999 99.4595 225.315 99.6513 224.495 99.6513C223.795 99.6513 223.174 99.4974 222.635 99.1896C222.1 98.8771 221.678 98.4155 221.37 97.8047C221.067 97.1939 220.916 96.4387 220.916 95.539V88.6001H223.039V95.2834C223.039 96.0267 223.245 96.6186 223.657 97.0589C224.069 97.4993 224.604 97.7194 225.262 97.7194C225.66 97.7194 226.056 97.62 226.449 97.4211C226.846 97.2223 227.175 96.9216 227.436 96.5192C227.701 96.1167 227.831 95.6053 227.826 94.9851ZM232.81 103.6V88.6001H234.884V90.3686H235.062C235.185 90.1413 235.362 89.8785 235.594 89.5802C235.826 89.2819 236.148 89.0215 236.56 88.799C236.972 88.5717 237.517 88.4581 238.194 88.4581C239.075 88.4581 239.861 88.6806 240.552 89.1257C241.243 89.5708 241.785 90.2123 242.178 91.0504C242.576 91.8885 242.775 92.897 242.775 94.076C242.775 95.255 242.578 96.2658 242.185 97.1086C241.792 97.9467 241.253 98.593 240.566 99.0476C239.879 99.4974 239.096 99.7223 238.215 99.7223C237.552 99.7223 237.01 99.611 236.589 99.3885C236.172 99.1659 235.845 98.9055 235.609 98.6072C235.372 98.3089 235.19 98.0438 235.062 97.8118H234.934V103.6H232.81ZM234.891 94.0547C234.891 94.8217 235.003 95.4941 235.225 96.0717C235.448 96.6494 235.77 97.1015 236.191 97.4283C236.612 97.7502 237.129 97.9112 237.739 97.9112C238.374 97.9112 238.904 97.7431 239.33 97.4069C239.756 97.066 240.078 96.6044 240.296 96.022C240.519 95.4396 240.63 94.7838 240.63 94.0547C240.63 93.335 240.521 92.6887 240.303 92.1158C240.09 91.5428 239.768 91.0907 239.337 90.7592C238.911 90.4278 238.379 90.2621 237.739 90.2621C237.124 90.2621 236.603 90.4207 236.177 90.7379C235.755 91.0551 235.436 91.4979 235.218 92.066C235 92.6342 234.891 93.2971 234.891 94.0547ZM252.065 94.9851V88.6001H254.195V99.5092H252.107V97.62H251.994C251.743 98.2024 251.34 98.6877 250.786 99.076C250.237 99.4595 249.553 99.6513 248.734 99.6513C248.033 99.6513 247.413 99.4974 246.873 99.1896C246.338 98.8771 245.916 98.4155 245.609 97.8047C245.306 97.1939 245.154 96.4387 245.154 95.539V88.6001H247.278V95.2834C247.278 96.0267 247.484 96.6186 247.896 97.0589C248.308 97.4993 248.843 97.7194 249.501 97.7194C249.898 97.7194 250.294 97.62 250.687 97.4211C251.085 97.2223 251.414 96.9216 251.674 96.5192C251.939 96.1167 252.069 95.6053 252.065 94.9851ZM261.75 99.7294C260.676 99.7294 259.75 99.4997 258.973 99.0405C258.202 98.5765 257.605 97.9254 257.184 97.0873C256.767 96.2445 256.559 95.2573 256.559 94.1257C256.559 93.0083 256.767 92.0234 257.184 91.1711C257.605 90.3189 258.192 89.6536 258.945 89.1754C259.703 88.6972 260.588 88.4581 261.601 88.4581C262.217 88.4581 262.813 88.5599 263.391 88.7635C263.969 88.9671 264.487 89.2867 264.946 89.7223C265.406 90.1579 265.768 90.7237 266.033 91.4197C266.298 92.111 266.431 92.9515 266.431 93.941V94.6939H257.759V93.103H264.35C264.35 92.5443 264.236 92.0495 264.009 91.6186C263.782 91.183 263.462 90.8397 263.05 90.5888C262.643 90.3378 262.165 90.2123 261.615 90.2123C261.019 90.2123 260.498 90.3591 260.053 90.6527C259.613 90.9415 259.272 91.3203 259.03 91.789C258.793 92.2531 258.675 92.7573 258.675 93.3018V94.5447C258.675 95.2739 258.803 95.8942 259.059 96.4055C259.319 96.9169 259.681 97.3075 260.145 97.5774C260.609 97.8425 261.151 97.9751 261.772 97.9751C262.174 97.9751 262.541 97.9183 262.873 97.8047C263.204 97.6863 263.49 97.5111 263.732 97.2791C263.973 97.0471 264.158 96.7606 264.286 96.4197L266.296 96.7819C266.135 97.3738 265.846 97.8923 265.429 98.3373C265.017 98.7777 264.499 99.121 263.874 99.3672C263.254 99.6086 262.546 99.7294 261.75 99.7294ZM276.962 91.2635L275.037 91.6044C274.956 91.3582 274.829 91.1238 274.653 90.9013C274.483 90.6787 274.251 90.4964 273.957 90.3544C273.664 90.2123 273.297 90.1413 272.857 90.1413C272.255 90.1413 271.753 90.2763 271.351 90.5461C270.948 90.8113 270.747 91.1546 270.747 91.576C270.747 91.9406 270.882 92.2341 271.152 92.4567C271.422 92.6792 271.857 92.8615 272.459 93.0035L274.192 93.4013C275.196 93.6333 275.944 93.9908 276.436 94.4737C276.929 94.9567 277.175 95.584 277.175 96.3558C277.175 97.0092 276.985 97.5916 276.607 98.103C276.232 98.6096 275.709 99.0073 275.037 99.2961C274.369 99.585 273.595 99.7294 272.714 99.7294C271.493 99.7294 270.496 99.469 269.724 98.9481C268.953 98.4226 268.479 97.6768 268.304 96.7109L270.357 96.3984C270.484 96.9335 270.747 97.3383 271.145 97.6129C271.543 97.8828 272.061 98.0177 272.7 98.0177C273.396 98.0177 273.953 97.8733 274.369 97.5845C274.786 97.2909 274.994 96.9335 274.994 96.5121C274.994 96.1711 274.866 95.8847 274.611 95.6527C274.36 95.4207 273.974 95.2455 273.453 95.1271L271.607 94.7223C270.589 94.4903 269.836 94.121 269.348 93.6143C268.865 93.1077 268.624 92.4661 268.624 91.6896C268.624 91.0457 268.804 90.4822 269.163 89.9993C269.523 89.5163 270.02 89.1399 270.655 88.87C271.289 88.5954 272.016 88.4581 272.835 88.4581C274.014 88.4581 274.942 88.7138 275.619 89.2251C276.296 89.7318 276.744 90.4112 276.962 91.2635ZM284.602 88.6001V90.3047H278.643V88.6001H284.602ZM280.241 85.9865H282.365V96.3061C282.365 96.718 282.426 97.0282 282.549 97.2365C282.672 97.4401 282.831 97.5798 283.025 97.6555C283.224 97.7265 283.44 97.7621 283.672 97.7621C283.842 97.7621 283.991 97.7502 284.119 97.7265C284.247 97.7029 284.346 97.6839 284.417 97.6697L284.801 99.424C284.678 99.4713 284.502 99.5187 284.275 99.566C284.048 99.6181 283.764 99.6465 283.423 99.6513C282.864 99.6607 282.343 99.5613 281.86 99.353C281.377 99.1446 280.987 98.8227 280.689 98.3871C280.39 97.9515 280.241 97.4046 280.241 96.7464V85.9865ZM290.126 99.7507C289.434 99.7507 288.809 99.6229 288.251 99.3672C287.692 99.1068 287.249 98.7303 286.923 98.2379C286.601 97.7455 286.44 97.1418 286.44 96.4268C286.44 95.8113 286.558 95.3047 286.795 94.9069C287.031 94.5092 287.351 94.1943 287.754 93.9623C288.156 93.7303 288.606 93.5551 289.103 93.4368C289.6 93.3184 290.107 93.2284 290.623 93.1669C291.276 93.0911 291.807 93.0296 292.214 92.9822C292.621 92.9301 292.917 92.8473 293.102 92.7336C293.286 92.62 293.379 92.4354 293.379 92.1797V92.13C293.379 91.5097 293.203 91.0291 292.853 90.6882C292.507 90.3473 291.991 90.1768 291.305 90.1768C290.59 90.1768 290.026 90.3354 289.614 90.6527C289.207 90.9652 288.925 91.3132 288.769 91.6967L286.773 91.2422C287.01 90.5793 287.356 90.0443 287.81 89.6371C288.27 89.2251 288.798 88.9268 289.394 88.7422C289.991 88.5528 290.618 88.4581 291.276 88.4581C291.712 88.4581 292.174 88.5102 292.661 88.6143C293.154 88.7138 293.613 88.8984 294.039 89.1683C294.47 89.4382 294.823 89.8241 295.097 90.326C295.372 90.8231 295.509 91.4694 295.509 92.2649V99.5092H293.435V98.0177H293.35C293.213 98.2924 293.007 98.5622 292.732 98.8274C292.458 99.0925 292.105 99.3127 291.674 99.4879C291.243 99.6631 290.727 99.7507 290.126 99.7507ZM290.587 98.0461C291.174 98.0461 291.676 97.9301 292.093 97.6981C292.514 97.4661 292.834 97.1631 293.052 96.789C293.274 96.4103 293.386 96.0054 293.386 95.5746V94.1683C293.31 94.2441 293.163 94.3151 292.945 94.3814C292.732 94.4429 292.488 94.4974 292.214 94.5447C291.939 94.5873 291.672 94.6276 291.411 94.6655C291.151 94.6986 290.933 94.727 290.758 94.7507C290.346 94.8028 289.969 94.8904 289.629 95.0135C289.292 95.1366 289.022 95.3141 288.819 95.5461C288.62 95.7734 288.521 96.0765 288.521 96.4552C288.521 96.9808 288.715 97.3785 289.103 97.6484C289.491 97.9136 289.986 98.0461 290.587 98.0461ZM302.422 99.7223C301.541 99.7223 300.755 99.4974 300.064 99.0476C299.377 98.593 298.837 97.9467 298.444 97.1086C298.056 96.2658 297.862 95.255 297.862 94.076C297.862 92.897 298.058 91.8885 298.451 91.0504C298.849 90.2123 299.394 89.5708 300.085 89.1257C300.776 88.6806 301.56 88.4581 302.436 88.4581C303.113 88.4581 303.657 88.5717 304.069 88.799C304.486 89.0215 304.808 89.2819 305.035 89.5802C305.267 89.8785 305.447 90.1413 305.575 90.3686H305.703V84.9638H307.826V99.5092H305.752V97.8118H305.575C305.447 98.0438 305.262 98.3089 305.021 98.6072C304.784 98.9055 304.458 99.1659 304.041 99.3885C303.624 99.611 303.084 99.7223 302.422 99.7223ZM302.89 97.9112C303.501 97.9112 304.017 97.7502 304.439 97.4283C304.865 97.1015 305.187 96.6494 305.404 96.0717C305.627 95.4941 305.738 94.8217 305.738 94.0547C305.738 93.2971 305.629 92.6342 305.412 92.066C305.194 91.4979 304.874 91.0551 304.453 90.7379C304.031 90.4207 303.511 90.2621 302.89 90.2621C302.251 90.2621 301.718 90.4278 301.292 90.7592C300.866 91.0907 300.544 91.5428 300.326 92.1158C300.113 92.6887 300.007 93.335 300.007 94.0547C300.007 94.7838 300.116 95.4396 300.333 96.022C300.551 96.6044 300.873 97.066 301.299 97.4069C301.73 97.7431 302.261 97.9112 302.89 97.9112ZM315.452 99.7294C314.43 99.7294 313.537 99.495 312.775 99.0263C312.013 98.5575 311.421 97.9017 310.999 97.0589C310.578 96.2161 310.367 95.2313 310.367 94.1044C310.367 92.9728 310.578 91.9832 310.999 91.1356C311.421 90.2881 312.013 89.63 312.775 89.1612C313.537 88.6925 314.43 88.4581 315.452 88.4581C316.475 88.4581 317.368 88.6925 318.13 89.1612C318.892 89.63 319.484 90.2881 319.906 91.1356C320.327 91.9832 320.538 92.9728 320.538 94.1044C320.538 95.2313 320.327 96.2161 319.906 97.0589C319.484 97.9017 318.892 98.5575 318.13 99.0263C317.368 99.495 316.475 99.7294 315.452 99.7294ZM315.46 97.9467C316.122 97.9467 316.672 97.7715 317.107 97.4211C317.543 97.0708 317.865 96.6044 318.073 96.022C318.286 95.4396 318.393 94.798 318.393 94.0973C318.393 93.4013 318.286 92.7621 318.073 92.1797C317.865 91.5925 317.543 91.1214 317.107 90.7663C316.672 90.4112 316.122 90.2336 315.46 90.2336C314.792 90.2336 314.238 90.4112 313.798 90.7663C313.362 91.1214 313.038 91.5925 312.825 92.1797C312.616 92.7621 312.512 93.4013 312.512 94.0973C312.512 94.798 312.616 95.4396 312.825 96.022C313.038 96.6044 313.362 97.0708 313.798 97.4211C314.238 97.7715 314.792 97.9467 315.46 97.9467ZM328.201 103.6V88.6001H330.275V90.3686H330.452C330.576 90.1413 330.753 89.8785 330.985 89.5802C331.217 89.2819 331.539 89.0215 331.951 88.799C332.363 88.5717 332.907 88.4581 333.585 88.4581C334.465 88.4581 335.251 88.6806 335.942 89.1257C336.634 89.5708 337.176 90.2123 337.569 91.0504C337.967 91.8885 338.165 92.897 338.165 94.076C338.165 95.255 337.969 96.2658 337.576 97.1086C337.183 97.9467 336.643 98.593 335.957 99.0476C335.27 99.4974 334.487 99.7223 333.606 99.7223C332.943 99.7223 332.401 99.611 331.979 99.3885C331.563 99.1659 331.236 98.9055 330.999 98.6072C330.763 98.3089 330.58 98.0438 330.452 97.8118H330.325V103.6H328.201ZM330.282 94.0547C330.282 94.8217 330.393 95.4941 330.616 96.0717C330.838 96.6494 331.16 97.1015 331.582 97.4283C332.003 97.7502 332.519 97.9112 333.13 97.9112C333.764 97.9112 334.295 97.7431 334.721 97.4069C335.147 97.066 335.469 96.6044 335.687 96.022C335.909 95.4396 336.021 94.7838 336.021 94.0547C336.021 93.335 335.912 92.6887 335.694 92.1158C335.481 91.5428 335.159 91.0907 334.728 90.7592C334.302 90.4278 333.769 90.2621 333.13 90.2621C332.514 90.2621 331.994 90.4207 331.567 90.7379C331.146 91.0551 330.826 91.4979 330.609 92.066C330.391 92.6342 330.282 93.2971 330.282 94.0547ZM343.719 99.7507C343.028 99.7507 342.403 99.6229 341.844 99.3672C341.286 99.1068 340.843 98.7303 340.516 98.2379C340.194 97.7455 340.033 97.1418 340.033 96.4268C340.033 95.8113 340.152 95.3047 340.388 94.9069C340.625 94.5092 340.945 94.1943 341.347 93.9623C341.75 93.7303 342.2 93.5551 342.697 93.4368C343.194 93.3184 343.701 93.2284 344.217 93.1669C344.87 93.0911 345.4 93.0296 345.808 92.9822C346.215 92.9301 346.511 92.8473 346.695 92.7336C346.88 92.62 346.972 92.4354 346.972 92.1797V92.13C346.972 91.5097 346.797 91.0291 346.447 90.6882C346.101 90.3473 345.585 90.1768 344.898 90.1768C344.183 90.1768 343.62 90.3354 343.208 90.6527C342.801 90.9652 342.519 91.3132 342.363 91.6967L340.367 91.2422C340.604 90.5793 340.95 90.0443 341.404 89.6371C341.863 89.2251 342.391 88.9268 342.988 88.7422C343.585 88.5528 344.212 88.4581 344.87 88.4581C345.306 88.4581 345.767 88.5102 346.255 88.6143C346.747 88.7138 347.207 88.8984 347.633 89.1683C348.064 89.4382 348.416 89.8241 348.691 90.326C348.966 90.8231 349.103 91.4694 349.103 92.2649V99.5092H347.029V98.0177H346.944C346.807 98.2924 346.601 98.5622 346.326 98.8274C346.051 99.0925 345.699 99.3127 345.268 99.4879C344.837 99.6631 344.321 99.7507 343.719 99.7507ZM344.181 98.0461C344.768 98.0461 345.27 97.9301 345.687 97.6981C346.108 97.4661 346.428 97.1631 346.646 96.789C346.868 96.4103 346.979 96.0054 346.979 95.5746V94.1683C346.904 94.2441 346.757 94.3151 346.539 94.3814C346.326 94.4429 346.082 94.4974 345.808 94.5447C345.533 94.5873 345.265 94.6276 345.005 94.6655C344.745 94.6986 344.527 94.727 344.352 94.7507C343.94 94.8028 343.563 94.8904 343.222 95.0135C342.886 95.1366 342.616 95.3141 342.413 95.5461C342.214 95.7734 342.114 96.0765 342.114 96.4552C342.114 96.9808 342.308 97.3785 342.697 97.6484C343.085 97.9136 343.58 98.0461 344.181 98.0461ZM351.931 99.5092V88.6001H353.984V90.3331H354.098C354.297 89.746 354.647 89.2843 355.149 88.9481C355.655 88.6072 356.228 88.4368 356.868 88.4368C357 88.4368 357.156 88.4415 357.336 88.451C357.521 88.4604 357.665 88.4723 357.77 88.4865V90.5177C357.684 90.4941 357.533 90.468 357.315 90.4396C357.097 90.4065 356.879 90.3899 356.662 90.3899C356.16 90.3899 355.712 90.4964 355.319 90.7095C354.931 90.9178 354.623 91.209 354.396 91.5831C354.169 91.9524 354.055 92.3738 354.055 92.8473V99.5092H351.931ZM362.684 99.7507C361.993 99.7507 361.368 99.6229 360.809 99.3672C360.251 99.1068 359.808 98.7303 359.481 98.2379C359.159 97.7455 358.998 97.1418 358.998 96.4268C358.998 95.8113 359.117 95.3047 359.353 94.9069C359.59 94.5092 359.91 94.1943 360.312 93.9623C360.715 93.7303 361.164 93.5551 361.662 93.4368C362.159 93.3184 362.665 93.2284 363.181 93.1669C363.835 93.0911 364.365 93.0296 364.772 92.9822C365.18 92.9301 365.475 92.8473 365.66 92.7336C365.845 92.62 365.937 92.4354 365.937 92.1797V92.13C365.937 91.5097 365.762 91.0291 365.412 90.6882C365.066 90.3473 364.55 90.1768 363.863 90.1768C363.148 90.1768 362.585 90.3354 362.173 90.6527C361.766 90.9652 361.484 91.3132 361.328 91.6967L359.332 91.2422C359.569 90.5793 359.914 90.0443 360.369 89.6371C360.828 89.2251 361.356 88.9268 361.953 88.7422C362.549 88.5528 363.177 88.4581 363.835 88.4581C364.27 88.4581 364.732 88.5102 365.22 88.6143C365.712 88.7138 366.172 88.8984 366.598 89.1683C367.029 89.4382 367.381 89.8241 367.656 90.326C367.931 90.8231 368.068 91.4694 368.068 92.2649V99.5092H365.994V98.0177H365.909C365.771 98.2924 365.565 98.5622 365.291 98.8274C365.016 99.0925 364.663 99.3127 364.233 99.4879C363.802 99.6631 363.286 99.7507 362.684 99.7507ZM363.146 98.0461C363.733 98.0461 364.235 97.9301 364.652 97.6981C365.073 97.4661 365.393 97.1631 365.61 96.789C365.833 96.4103 365.944 96.0054 365.944 95.5746V94.1683C365.868 94.2441 365.722 94.3151 365.504 94.3814C365.291 94.4429 365.047 94.4974 364.772 94.5447C364.498 94.5873 364.23 94.6276 363.97 94.6655C363.709 94.6986 363.492 94.727 363.316 94.7507C362.904 94.8028 362.528 94.8904 362.187 95.0135C361.851 95.1366 361.581 95.3141 361.377 95.5461C361.179 95.7734 361.079 96.0765 361.079 96.4552C361.079 96.9808 361.273 97.3785 361.662 97.6484C362.05 97.9136 362.545 98.0461 363.146 98.0461ZM380.891 99.7294C379.816 99.7294 378.891 99.4997 378.114 99.0405C377.342 98.5765 376.746 97.9254 376.324 97.0873C375.908 96.2445 375.699 95.2573 375.699 94.1257C375.699 93.0083 375.908 92.0234 376.324 91.1711C376.746 90.3189 377.333 89.6536 378.086 89.1754C378.843 88.6972 379.729 88.4581 380.742 88.4581C381.357 88.4581 381.954 88.5599 382.532 88.7635C383.109 88.9671 383.628 89.2867 384.087 89.7223C384.546 90.1579 384.908 90.7237 385.174 91.4197C385.439 92.111 385.571 92.9515 385.571 93.941V94.6939H376.9V93.103H383.49C383.49 92.5443 383.377 92.0495 383.15 91.6186C382.922 91.183 382.603 90.8397 382.191 90.5888C381.783 90.3378 381.305 90.2123 380.756 90.2123C380.159 90.2123 379.639 90.3591 379.194 90.6527C378.753 90.9415 378.412 91.3203 378.171 91.789C377.934 92.2531 377.816 92.7573 377.816 93.3018V94.5447C377.816 95.2739 377.944 95.8942 378.199 96.4055C378.46 96.9169 378.822 97.3075 379.286 97.5774C379.75 97.8425 380.292 97.9751 380.912 97.9751C381.315 97.9751 381.682 97.9183 382.013 97.8047C382.345 97.6863 382.631 97.5111 382.873 97.2791C383.114 97.0471 383.299 96.7606 383.426 96.4197L385.436 96.7819C385.275 97.3738 384.987 97.8923 384.57 98.3373C384.158 98.7777 383.64 99.121 383.015 99.3672C382.394 99.6086 381.686 99.7294 380.891 99.7294ZM396.102 91.2635L394.178 91.6044C394.097 91.3582 393.969 91.1238 393.794 90.9013C393.624 90.6787 393.392 90.4964 393.098 90.3544C392.804 90.2123 392.438 90.1413 391.997 90.1413C391.396 90.1413 390.894 90.2763 390.491 90.5461C390.089 90.8113 389.888 91.1546 389.888 91.576C389.888 91.9406 390.023 92.2341 390.293 92.4567C390.563 92.6792 390.998 92.8615 391.599 93.0035L393.332 93.4013C394.336 93.6333 395.084 93.9908 395.577 94.4737C396.069 94.9567 396.315 95.584 396.315 96.3558C396.315 97.0092 396.126 97.5916 395.747 98.103C395.373 98.6096 394.85 99.0073 394.178 99.2961C393.51 99.585 392.736 99.7294 391.855 99.7294C390.634 99.7294 389.637 99.469 388.865 98.9481C388.093 98.4226 387.62 97.6768 387.445 96.7109L389.497 96.3984C389.625 96.9335 389.888 97.3383 390.286 97.6129C390.683 97.8828 391.202 98.0177 391.841 98.0177C392.537 98.0177 393.093 97.8733 393.51 97.5845C393.927 97.2909 394.135 96.9335 394.135 96.5121C394.135 96.1711 394.007 95.8847 393.751 95.6527C393.5 95.4207 393.115 95.2455 392.594 95.1271L390.747 94.7223C389.729 94.4903 388.976 94.121 388.489 93.6143C388.006 93.1077 387.764 92.4661 387.764 91.6896C387.764 91.0457 387.944 90.4822 388.304 89.9993C388.664 89.5163 389.161 89.1399 389.795 88.87C390.43 88.5954 391.157 88.4581 391.976 88.4581C393.155 88.4581 394.083 88.7138 394.76 89.2251C395.437 89.7318 395.884 90.4112 396.102 91.2635ZM403.743 88.6001V90.3047H397.784V88.6001H403.743ZM399.382 85.9865H401.505V96.3061C401.505 96.718 401.567 97.0282 401.69 97.2365C401.813 97.4401 401.972 97.5798 402.166 97.6555C402.365 97.7265 402.58 97.7621 402.812 97.7621C402.983 97.7621 403.132 97.7502 403.26 97.7265C403.387 97.7029 403.487 97.6839 403.558 97.6697L403.941 99.424C403.818 99.4713 403.643 99.5187 403.416 99.566C403.189 99.6181 402.904 99.6465 402.564 99.6513C402.005 99.6607 401.484 99.5613 401.001 99.353C400.518 99.1446 400.127 98.8227 399.829 98.3871C399.531 97.9515 399.382 97.4046 399.382 96.7464V85.9865ZM410.676 99.7294C409.601 99.7294 408.676 99.4997 407.899 99.0405C407.127 98.5765 406.531 97.9254 406.109 97.0873C405.693 96.2445 405.484 95.2573 405.484 94.1257C405.484 93.0083 405.693 92.0234 406.109 91.1711C406.531 90.3189 407.118 89.6536 407.871 89.1754C408.628 88.6972 409.514 88.4581 410.527 88.4581C411.143 88.4581 411.739 88.5599 412.317 88.7635C412.894 88.9671 413.413 89.2867 413.872 89.7223C414.331 90.1579 414.694 90.7237 414.959 91.4197C415.224 92.111 415.357 92.9515 415.357 93.941V94.6939H406.685V93.103H413.276C413.276 92.5443 413.162 92.0495 412.935 91.6186C412.707 91.183 412.388 90.8397 411.976 90.5888C411.569 90.3378 411.09 90.2123 410.541 90.2123C409.945 90.2123 409.424 90.3591 408.979 90.6527C408.538 90.9415 408.197 91.3203 407.956 91.789C407.719 92.2531 407.601 92.7573 407.601 93.3018V94.5447C407.601 95.2739 407.729 95.8942 407.984 96.4055C408.245 96.9169 408.607 97.3075 409.071 97.5774C409.535 97.8425 410.077 97.9751 410.697 97.9751C411.1 97.9751 411.467 97.9183 411.798 97.8047C412.13 97.6863 412.416 97.5111 412.658 97.2791C412.899 97.0471 413.084 96.7606 413.212 96.4197L415.222 96.7819C415.061 97.3738 414.772 97.8923 414.355 98.3373C413.943 98.7777 413.425 99.121 412.8 99.3672C412.179 99.6086 411.472 99.7294 410.676 99.7294ZM423.006 99.5092V88.6001H425.044V90.3757H425.179C425.406 89.7744 425.778 89.3056 426.294 88.9694C426.81 88.6285 427.428 88.4581 428.148 88.4581C428.877 88.4581 429.488 88.6285 429.98 88.9694C430.477 89.3104 430.844 89.7791 431.081 90.3757H431.195C431.455 89.7933 431.869 89.3293 432.438 88.9836C433.006 88.6333 433.683 88.4581 434.469 88.4581C435.458 88.4581 436.266 88.7682 436.891 89.3885C437.52 90.0087 437.835 90.9439 437.835 92.1939V99.5092H435.712V92.3927C435.712 91.6541 435.51 91.1191 435.108 90.7876C434.705 90.4562 434.225 90.2905 433.666 90.2905C432.975 90.2905 432.438 90.5035 432.054 90.9297C431.67 91.3511 431.479 91.8932 431.479 92.5561V99.5092H429.362V92.2578C429.362 91.6659 429.178 91.1901 428.808 90.8302C428.439 90.4704 427.958 90.2905 427.366 90.2905C426.964 90.2905 426.592 90.397 426.251 90.6101C425.915 90.8184 425.643 91.1096 425.435 91.4836C425.231 91.8577 425.129 92.2909 425.129 92.7834V99.5092H423.006ZM445.383 99.7294C444.308 99.7294 443.383 99.4997 442.606 99.0405C441.834 98.5765 441.238 97.9254 440.816 97.0873C440.4 96.2445 440.191 95.2573 440.191 94.1257C440.191 93.0083 440.4 92.0234 440.816 91.1711C441.238 90.3189 441.825 89.6536 442.578 89.1754C443.335 88.6972 444.221 88.4581 445.234 88.4581C445.85 88.4581 446.446 88.5599 447.024 88.7635C447.601 88.9671 448.12 89.2867 448.579 89.7223C449.038 90.1579 449.401 90.7237 449.666 91.4197C449.931 92.111 450.064 92.9515 450.064 93.941V94.6939H441.392V93.103H447.983C447.983 92.5443 447.869 92.0495 447.642 91.6186C447.414 91.183 447.095 90.8397 446.683 90.5888C446.276 90.3378 445.797 90.2123 445.248 90.2123C444.652 90.2123 444.131 90.3591 443.686 90.6527C443.245 90.9415 442.904 91.3203 442.663 91.789C442.426 92.2531 442.308 92.7573 442.308 93.3018V94.5447C442.308 95.2739 442.436 95.8942 442.691 96.4055C442.952 96.9169 443.314 97.3075 443.778 97.5774C444.242 97.8425 444.784 97.9751 445.404 97.9751C445.807 97.9751 446.174 97.9183 446.505 97.8047C446.837 97.6863 447.123 97.5111 447.365 97.2791C447.606 97.0471 447.791 96.7606 447.919 96.4197L449.929 96.7819C449.768 97.3738 449.479 97.8923 449.062 98.3373C448.65 98.7777 448.132 99.121 447.507 99.3672C446.886 99.6086 446.179 99.7294 445.383 99.7294ZM460.594 91.2635L458.67 91.6044C458.589 91.3582 458.461 91.1238 458.286 90.9013C458.116 90.6787 457.884 90.4964 457.59 90.3544C457.297 90.2123 456.93 90.1413 456.489 90.1413C455.888 90.1413 455.386 90.2763 454.984 90.5461C454.581 90.8113 454.38 91.1546 454.38 91.576C454.38 91.9406 454.515 92.2341 454.785 92.4567C455.055 92.6792 455.49 92.8615 456.092 93.0035L457.825 93.4013C458.828 93.6333 459.576 93.9908 460.069 94.4737C460.561 94.9567 460.808 95.584 460.808 96.3558C460.808 97.0092 460.618 97.5916 460.239 98.103C459.865 98.6096 459.342 99.0073 458.67 99.2961C458.002 99.585 457.228 99.7294 456.347 99.7294C455.126 99.7294 454.129 99.469 453.357 98.9481C452.585 98.4226 452.112 97.6768 451.937 96.7109L453.989 96.3984C454.117 96.9335 454.38 97.3383 454.778 97.6129C455.175 97.8828 455.694 98.0177 456.333 98.0177C457.029 98.0177 457.585 97.8733 458.002 97.5845C458.419 97.2909 458.627 96.9335 458.627 96.5121C458.627 96.1711 458.499 95.8847 458.244 95.6527C457.993 95.4207 457.607 95.2455 457.086 95.1271L455.239 94.7223C454.221 94.4903 453.469 94.121 452.981 93.6143C452.498 93.1077 452.256 92.4661 452.256 91.6896C452.256 91.0457 452.436 90.4822 452.796 89.9993C453.156 89.5163 453.653 89.1399 454.288 88.87C454.922 88.5954 455.649 88.4581 456.468 88.4581C457.647 88.4581 458.575 88.7138 459.252 89.2251C459.929 89.7318 460.377 90.4112 460.594 91.2635Z" fill="white"/>
<g filter="url(#filter0_d_1_11)">
<path d="M48.4549 92.7946C49.1709 96.97 52.764 100 56.9985 100C61.234 100 64.8282 96.97 65.5442 92.7946L65.588 92.5403H48.4112L48.4549 92.7946Z" fill="white"/>
<path d="M86.228 80.8566C85.5272 80.1555 84.8131 79.5627 84.1223 78.9889C81.2167 76.5761 78.7071 74.4925 78.7071 65.841V58.9785C78.7071 48.8876 71.6171 40.0331 61.8073 37.8131C62.2005 37.042 62.3998 36.2315 62.3998 35.3993C62.3998 32.4224 59.9773 30 56.9993 30C54.0221 30 51.6 32.4224 51.6 35.3993C51.6 36.2321 51.7991 37.0424 52.1925 37.8131C42.3823 40.0331 35.2927 48.8876 35.2927 58.9785V65.841C35.2927 74.4925 32.7831 76.5763 29.8776 78.9889C29.1869 79.5626 28.4727 80.1555 27.7718 80.8566L27.7081 80.9204V87.7287H86.2916V80.9204L86.228 80.8566Z" fill="white"/>
</g>
<defs>
<filter id="filter0_d_1_11" x="12" y="24" width="90" height="90" filterUnits="userSpaceOnUse" color-interpolation-filters="sRGB">
<feFlood flood-opacity="0" result="BackgroundImageFix"/>
<feColorMatrix in="SourceAlpha" type="matrix" values="0 0 0 0 0 0 0 0 0 0 0 0 0 0 0 0 0 0 127 0" result="hardAlpha"/>
<feOffset dy="4"/>
<feGaussianBlur stdDeviation="5"/>
<feComposite in2="hardAlpha" operator="out"/>
<feColorMatrix type="matrix" values="0 0 0 0 0 0 0 0 0 0 0 0 0 0 0 0 0 0 0.25 0"/>
<feBlend mode="normal" in2="BackgroundImageFix" result="effect1_dropShadow_1_11"/>
<feBlend mode="normal" in="SourceGraphic" in2="effect1_dropShadow_1_11" result="shape"/>
</filter>
</defs>
</svg>
