<svg width="329" height="154" viewBox="0 0 429 254" fill="none" xmlns="http://www.w3.org/2000/svg">
<rect width="429" height="254" rx="15" fill="#CDBCFE"/>
<g filter="url(#filter0_d_10_51)">
<rect x="39" y="41" width="70" height="70" rx="10" fill="#F9AC81"/>
<path d="M128.598 82V67.4545H130.793V80.1108H137.384V82H128.598ZM139.717 82V71.0909H141.84V82H139.717ZM139.915 69.6349L141.577 66.3608H143.815L141.613 69.6349H139.915ZM144.697 82V71.0909H146.735V72.8665H146.87C147.098 72.2652 147.469 71.7964 147.985 71.4602C148.502 71.1193 149.119 70.9489 149.839 70.9489C150.568 70.9489 151.179 71.1193 151.672 71.4602C152.169 71.8011 152.536 72.2699 152.772 72.8665H152.886C153.146 72.2841 153.561 71.8201 154.129 71.4744C154.697 71.1241 155.374 70.9489 156.16 70.9489C157.15 70.9489 157.957 71.259 158.582 71.8793C159.212 72.4995 159.527 73.4347 159.527 74.6847V82H157.403V74.8835C157.403 74.1449 157.202 73.6098 156.799 73.2784C156.397 72.947 155.916 72.7812 155.358 72.7812C154.666 72.7812 154.129 72.9943 153.745 73.4205C153.362 73.8419 153.17 74.384 153.17 75.0469V82H151.054V74.7486C151.054 74.1567 150.869 73.6809 150.5 73.321C150.13 72.9612 149.65 72.7812 149.058 72.7812C148.655 72.7812 148.284 72.8878 147.943 73.1009C147.607 73.3092 147.334 73.6004 147.126 73.9744C146.922 74.3485 146.821 74.7817 146.821 75.2741V82H144.697ZM162.373 82V71.0909H164.496V82H162.373ZM163.445 69.4077C163.076 69.4077 162.759 69.2846 162.494 69.0384C162.233 68.7874 162.103 68.4891 162.103 68.1435C162.103 67.7931 162.233 67.4948 162.494 67.2486C162.759 66.9976 163.076 66.8722 163.445 66.8722C163.815 66.8722 164.129 66.9976 164.39 67.2486C164.655 67.4948 164.788 67.7931 164.788 68.1435C164.788 68.4891 164.655 68.7874 164.39 69.0384C164.129 69.2846 163.815 69.4077 163.445 69.4077ZM172.446 71.0909V72.7955H166.487V71.0909H172.446ZM168.085 68.4773H170.208V78.7969C170.208 79.2088 170.27 79.5189 170.393 79.7273C170.516 79.9309 170.675 80.0705 170.869 80.1463C171.068 80.2173 171.283 80.2528 171.515 80.2528C171.686 80.2528 171.835 80.241 171.963 80.2173C172.091 80.1937 172.19 80.1747 172.261 80.1605L172.645 81.9148C172.521 81.9621 172.346 82.0095 172.119 82.0568C171.892 82.1089 171.608 82.1373 171.267 82.142C170.708 82.1515 170.187 82.0521 169.704 81.8438C169.221 81.6354 168.831 81.3134 168.532 80.8778C168.234 80.4422 168.085 79.8954 168.085 79.2372V68.4773ZM179.379 82.2202C178.304 82.2202 177.379 81.9905 176.602 81.5312C175.83 81.0672 175.234 80.4162 174.812 79.5781C174.396 78.7353 174.188 77.7481 174.188 76.6165C174.188 75.4991 174.396 74.5142 174.812 73.6619C175.234 72.8097 175.821 72.1444 176.574 71.6662C177.331 71.188 178.217 70.9489 179.23 70.9489C179.846 70.9489 180.442 71.0507 181.02 71.2543C181.598 71.4579 182.116 71.7775 182.575 72.2131C183.035 72.6487 183.397 73.2145 183.662 73.9105C183.927 74.6018 184.06 75.4422 184.06 76.4318V77.1847H175.388V75.5938H181.979C181.979 75.035 181.865 74.5402 181.638 74.1094C181.411 73.6738 181.091 73.3305 180.679 73.0795C180.272 72.8286 179.794 72.7031 179.244 72.7031C178.648 72.7031 178.127 72.8499 177.682 73.1435C177.241 73.4323 176.901 73.8111 176.659 74.2798C176.422 74.7438 176.304 75.2481 176.304 75.7926V77.0355C176.304 77.7647 176.432 78.3849 176.688 78.8963C176.948 79.4077 177.31 79.7983 177.774 80.0682C178.238 80.3333 178.78 80.4659 179.401 80.4659C179.803 80.4659 180.17 80.4091 180.501 80.2955C180.833 80.1771 181.119 80.0019 181.361 79.7699C181.602 79.5379 181.787 79.2514 181.915 78.9105L183.925 79.2727C183.764 79.8646 183.475 80.383 183.058 80.8281C182.646 81.2685 182.128 81.6117 181.503 81.858C180.883 82.0994 180.175 82.2202 179.379 82.2202ZM194.591 73.7543L192.666 74.0952C192.585 73.849 192.458 73.6146 192.282 73.392C192.112 73.1695 191.88 72.9872 191.586 72.8452C191.293 72.7031 190.926 72.6321 190.485 72.6321C189.884 72.6321 189.382 72.767 188.98 73.0369C188.577 73.3021 188.376 73.6454 188.376 74.0668C188.376 74.4313 188.511 74.7249 188.781 74.9474C189.051 75.17 189.486 75.3523 190.088 75.4943L191.821 75.892C192.824 76.1241 193.573 76.4815 194.065 76.9645C194.557 77.4474 194.804 78.0748 194.804 78.8466C194.804 79.5 194.614 80.0824 194.235 80.5938C193.861 81.1004 193.338 81.4981 192.666 81.7869C191.998 82.0758 191.224 82.2202 190.343 82.2202C189.122 82.2202 188.125 81.9598 187.353 81.4389C186.582 80.9134 186.108 80.1676 185.933 79.2017L187.985 78.8892C188.113 79.4242 188.376 79.8291 188.774 80.1037C189.172 80.3736 189.69 80.5085 190.329 80.5085C191.025 80.5085 191.582 80.3641 191.998 80.0753C192.415 79.7817 192.623 79.4242 192.623 79.0028C192.623 78.6619 192.495 78.3755 192.24 78.1435C191.989 77.9115 191.603 77.7363 191.082 77.6179L189.235 77.2131C188.217 76.9811 187.465 76.6117 186.977 76.1051C186.494 75.5985 186.252 74.9569 186.252 74.1804C186.252 73.5365 186.432 72.973 186.792 72.4901C187.152 72.0071 187.649 71.6307 188.284 71.3608C188.918 71.0862 189.645 70.9489 190.464 70.9489C191.643 70.9489 192.571 71.2045 193.248 71.7159C193.925 72.2225 194.373 72.902 194.591 73.7543Z" fill="#222121"/>
<path opacity="0.5" d="M94.8333 76C94.8333 64.4941 85.5058 55.1667 74 55.1667C62.4941 55.1667 53.1667 64.4941 53.1667 76C53.1667 87.5058 62.4941 96.8333 74 96.8333C85.5058 96.8333 94.8333 87.5058 94.8333 76Z" fill="#1C274C"/>
<path d="M74 64.0208C74.8629 64.0208 75.5625 64.7204 75.5625 65.5833V78.0833C75.5625 78.9463 74.8629 79.6458 74 79.6458C73.1371 79.6458 72.4375 78.9463 72.4375 78.0833V65.5833C72.4375 64.7204 73.1371 64.0208 74 64.0208Z" fill="#1C274C"/>
<path d="M74 86.4167C75.1506 86.4167 76.0833 85.484 76.0833 84.3333C76.0833 83.1827 75.1506 82.25 74 82.25C72.8494 82.25 71.9167 83.1827 71.9167 84.3333C71.9167 85.484 72.8494 86.4167 74 86.4167Z" fill="#1C274C"/>
</g>
<circle cx="106.5" cy="44.5" r="7.5" fill="#EB4242"/>
<g filter="url(#filter1_d_10_51)">
<rect x="39" y="136" width="70" height="70" rx="10" fill="#81F995"/>
<path d="M125.598 177V162.455H130.783C131.91 162.455 132.845 162.649 133.588 163.037C134.336 163.425 134.895 163.963 135.264 164.649C135.634 165.331 135.818 166.119 135.818 167.014C135.818 167.904 135.631 168.688 135.257 169.365C134.888 170.037 134.329 170.561 133.581 170.935C132.838 171.309 131.902 171.496 130.776 171.496H126.848V169.607H130.577C131.287 169.607 131.865 169.505 132.31 169.301C132.759 169.098 133.089 168.802 133.297 168.413C133.505 168.025 133.609 167.559 133.609 167.014C133.609 166.465 133.503 165.989 133.29 165.587C133.081 165.184 132.752 164.876 132.303 164.663C131.857 164.446 131.273 164.337 130.548 164.337H127.793V177H125.598ZM132.778 170.438L136.372 177H133.872L130.349 170.438H132.778ZM142.883 177.22C141.808 177.22 140.883 176.991 140.106 176.531C139.334 176.067 138.738 175.416 138.316 174.578C137.9 173.735 137.691 172.748 137.691 171.616C137.691 170.499 137.9 169.514 138.316 168.662C138.738 167.81 139.325 167.144 140.078 166.666C140.835 166.188 141.721 165.949 142.734 165.949C143.35 165.949 143.946 166.051 144.524 166.254C145.101 166.458 145.62 166.777 146.079 167.213C146.538 167.649 146.901 168.214 147.166 168.911C147.431 169.602 147.564 170.442 147.564 171.432V172.185H138.892V170.594H145.483C145.483 170.035 145.369 169.54 145.142 169.109C144.914 168.674 144.595 168.33 144.183 168.08C143.776 167.829 143.297 167.703 142.748 167.703C142.152 167.703 141.631 167.85 141.186 168.143C140.745 168.432 140.404 168.811 140.163 169.28C139.926 169.744 139.808 170.248 139.808 170.793V172.036C139.808 172.765 139.936 173.385 140.191 173.896C140.452 174.408 140.814 174.798 141.278 175.068C141.742 175.333 142.284 175.466 142.904 175.466C143.307 175.466 143.674 175.409 144.005 175.295C144.337 175.177 144.623 175.002 144.865 174.77C145.106 174.538 145.291 174.251 145.419 173.911L147.429 174.273C147.268 174.865 146.979 175.383 146.562 175.828C146.15 176.268 145.632 176.612 145.007 176.858C144.386 177.099 143.679 177.22 142.883 177.22ZM154.494 181.318C153.627 181.318 152.881 181.205 152.256 180.977C151.636 180.75 151.129 180.449 150.737 180.075C150.344 179.701 150.05 179.292 149.856 178.847L151.681 178.094C151.809 178.302 151.979 178.522 152.192 178.754C152.41 178.991 152.704 179.192 153.073 179.358C153.447 179.524 153.928 179.607 154.515 179.607C155.32 179.607 155.985 179.41 156.511 179.017C157.036 178.629 157.299 178.009 157.299 177.156V175.011H157.164C157.036 175.243 156.852 175.501 156.61 175.786C156.373 176.07 156.047 176.316 155.63 176.524C155.213 176.732 154.671 176.837 154.004 176.837C153.142 176.837 152.365 176.635 151.674 176.233C150.987 175.826 150.443 175.227 150.04 174.436C149.643 173.641 149.444 172.663 149.444 171.503C149.444 170.343 149.64 169.348 150.033 168.52C150.431 167.691 150.976 167.057 151.667 166.616C152.358 166.171 153.142 165.949 154.018 165.949C154.695 165.949 155.242 166.062 155.658 166.29C156.075 166.512 156.399 166.773 156.631 167.071C156.868 167.369 157.05 167.632 157.178 167.859H157.335V166.091H159.415V177.241C159.415 178.179 159.198 178.948 158.762 179.55C158.326 180.151 157.737 180.596 156.994 180.885C156.255 181.174 155.422 181.318 154.494 181.318ZM154.472 175.075C155.083 175.075 155.599 174.933 156.021 174.649C156.447 174.36 156.769 173.948 156.987 173.413C157.209 172.874 157.32 172.227 157.32 171.474C157.32 170.741 157.211 170.094 156.994 169.536C156.776 168.977 156.456 168.541 156.035 168.229C155.613 167.911 155.093 167.753 154.472 167.753C153.833 167.753 153.3 167.919 152.874 168.25C152.448 168.577 152.126 169.022 151.908 169.585C151.695 170.149 151.589 170.778 151.589 171.474C151.589 172.189 151.698 172.817 151.915 173.357C152.133 173.896 152.455 174.318 152.881 174.621C153.312 174.924 153.843 175.075 154.472 175.075ZM162.263 177V166.091H164.387V177H162.263ZM163.336 164.408C162.967 164.408 162.649 164.285 162.384 164.038C162.124 163.787 161.994 163.489 161.994 163.143C161.994 162.793 162.124 162.495 162.384 162.249C162.649 161.998 162.967 161.872 163.336 161.872C163.705 161.872 164.02 161.998 164.281 162.249C164.546 162.495 164.678 162.793 164.678 163.143C164.678 163.489 164.546 163.787 164.281 164.038C164.02 164.285 163.705 164.408 163.336 164.408ZM175.419 168.754L173.494 169.095C173.413 168.849 173.286 168.615 173.11 168.392C172.94 168.17 172.708 167.987 172.414 167.845C172.121 167.703 171.754 167.632 171.314 167.632C170.712 167.632 170.21 167.767 169.808 168.037C169.405 168.302 169.204 168.645 169.204 169.067C169.204 169.431 169.339 169.725 169.609 169.947C169.879 170.17 170.315 170.352 170.916 170.494L172.649 170.892C173.653 171.124 174.401 171.482 174.893 171.964C175.386 172.447 175.632 173.075 175.632 173.847C175.632 174.5 175.442 175.082 175.064 175.594C174.69 176.1 174.166 176.498 173.494 176.787C172.826 177.076 172.052 177.22 171.172 177.22C169.95 177.22 168.953 176.96 168.181 176.439C167.41 175.913 166.936 175.168 166.761 174.202L168.814 173.889C168.941 174.424 169.204 174.829 169.602 175.104C170 175.374 170.518 175.509 171.157 175.509C171.853 175.509 172.41 175.364 172.826 175.075C173.243 174.782 173.451 174.424 173.451 174.003C173.451 173.662 173.324 173.375 173.068 173.143C172.817 172.911 172.431 172.736 171.91 172.618L170.064 172.213C169.046 171.981 168.293 171.612 167.805 171.105C167.322 170.598 167.081 169.957 167.081 169.18C167.081 168.536 167.261 167.973 167.62 167.49C167.98 167.007 168.477 166.631 169.112 166.361C169.746 166.086 170.473 165.949 171.292 165.949C172.471 165.949 173.399 166.205 174.076 166.716C174.753 167.223 175.201 167.902 175.419 168.754ZM183.059 166.091V167.795H177.1V166.091H183.059ZM178.698 163.477H180.822V173.797C180.822 174.209 180.883 174.519 181.006 174.727C181.129 174.931 181.288 175.071 181.482 175.146C181.681 175.217 181.897 175.253 182.129 175.253C182.299 175.253 182.448 175.241 182.576 175.217C182.704 175.194 182.803 175.175 182.874 175.161L183.258 176.915C183.135 176.962 182.96 177.009 182.732 177.057C182.505 177.109 182.221 177.137 181.88 177.142C181.321 177.152 180.8 177.052 180.317 176.844C179.835 176.635 179.444 176.313 179.146 175.878C178.847 175.442 178.698 174.895 178.698 174.237V163.477ZM185.408 177V166.091H187.461V167.824H187.574C187.773 167.237 188.123 166.775 188.625 166.439C189.132 166.098 189.705 165.928 190.344 165.928C190.477 165.928 190.633 165.932 190.813 165.942C190.998 165.951 191.142 165.963 191.246 165.977V168.009C191.161 167.985 191.009 167.959 190.792 167.93C190.574 167.897 190.356 167.881 190.138 167.881C189.636 167.881 189.189 167.987 188.796 168.2C188.408 168.409 188.1 168.7 187.873 169.074C187.645 169.443 187.532 169.865 187.532 170.338V177H185.408ZM197.288 177.22C196.266 177.22 195.373 176.986 194.611 176.517C193.848 176.048 193.257 175.393 192.835 174.55C192.414 173.707 192.203 172.722 192.203 171.595C192.203 170.464 192.414 169.474 192.835 168.626C193.257 167.779 193.848 167.121 194.611 166.652C195.373 166.183 196.266 165.949 197.288 165.949C198.311 165.949 199.204 166.183 199.966 166.652C200.728 167.121 201.32 167.779 201.741 168.626C202.163 169.474 202.374 170.464 202.374 171.595C202.374 172.722 202.163 173.707 201.741 174.55C201.32 175.393 200.728 176.048 199.966 176.517C199.204 176.986 198.311 177.22 197.288 177.22ZM197.295 175.438C197.958 175.438 198.508 175.262 198.943 174.912C199.379 174.562 199.701 174.095 199.909 173.513C200.122 172.93 200.229 172.289 200.229 171.588C200.229 170.892 200.122 170.253 199.909 169.67C199.701 169.083 199.379 168.612 198.943 168.257C198.508 167.902 197.958 167.724 197.295 167.724C196.628 167.724 196.074 167.902 195.634 168.257C195.198 168.612 194.874 169.083 194.661 169.67C194.452 170.253 194.348 170.892 194.348 171.588C194.348 172.289 194.452 172.93 194.661 173.513C194.874 174.095 195.198 174.562 195.634 174.912C196.074 175.262 196.628 175.438 197.295 175.438ZM212.919 168.754L210.994 169.095C210.913 168.849 210.786 168.615 210.61 168.392C210.44 168.17 210.208 167.987 209.914 167.845C209.621 167.703 209.254 167.632 208.814 167.632C208.212 167.632 207.71 167.767 207.308 168.037C206.905 168.302 206.704 168.645 206.704 169.067C206.704 169.431 206.839 169.725 207.109 169.947C207.379 170.17 207.815 170.352 208.416 170.494L210.149 170.892C211.153 171.124 211.901 171.482 212.393 171.964C212.886 172.447 213.132 173.075 213.132 173.847C213.132 174.5 212.942 175.082 212.564 175.594C212.19 176.1 211.666 176.498 210.994 176.787C210.326 177.076 209.552 177.22 208.672 177.22C207.45 177.22 206.453 176.96 205.681 176.439C204.91 175.913 204.436 175.168 204.261 174.202L206.314 173.889C206.441 174.424 206.704 174.829 207.102 175.104C207.5 175.374 208.018 175.509 208.657 175.509C209.353 175.509 209.91 175.364 210.326 175.075C210.743 174.782 210.951 174.424 210.951 174.003C210.951 173.662 210.824 173.375 210.568 173.143C210.317 172.911 209.931 172.736 209.41 172.618L207.564 172.213C206.546 171.981 205.793 171.612 205.305 171.105C204.822 170.598 204.581 169.957 204.581 169.18C204.581 168.536 204.761 167.973 205.12 167.49C205.48 167.007 205.977 166.631 206.612 166.361C207.246 166.086 207.973 165.949 208.792 165.949C209.971 165.949 210.899 166.205 211.576 166.716C212.253 167.223 212.701 167.902 212.919 168.754Z" fill="#222121"/>
</g>
<path d="M66.625 170.5H80.375" stroke="#323232" stroke-width="2" stroke-linecap="round" stroke-linejoin="round"/>
<path d="M73.5 163.625V177.375" stroke="#323232" stroke-width="2" stroke-linecap="round" stroke-linejoin="round"/>
<path opacity="0.5" d="M94.6667 170.833C94.6667 159.327 85.3392 150 73.8333 150C62.3274 150 53 159.327 53 170.833C53 182.339 62.3274 191.667 73.8333 191.667C85.3392 191.667 94.6667 182.339 94.6667 170.833Z" fill="#1C274C"/>
<g filter="url(#filter2_d_10_51)">
<rect x="229" y="41" width="70" height="70" rx="10" fill="#81D5F9"/>
<path d="M312.598 71.4545H315.261L319.892 82.7614H320.062L324.693 71.4545H327.357V86H325.268V75.4744H325.134L320.844 85.9787H319.111L314.821 75.4673H314.686V86H312.598V71.4545ZM335.078 86.2202C334.004 86.2202 333.078 85.9905 332.301 85.5312C331.53 85.0672 330.933 84.4162 330.512 83.5781C330.095 82.7353 329.887 81.7481 329.887 80.6165C329.887 79.4991 330.095 78.5142 330.512 77.6619C330.933 76.8097 331.52 76.1444 332.273 75.6662C333.031 75.188 333.916 74.9489 334.929 74.9489C335.545 74.9489 336.141 75.0507 336.719 75.2543C337.297 75.4579 337.815 75.7775 338.275 76.2131C338.734 76.6487 339.096 77.2145 339.361 77.9105C339.626 78.6018 339.759 79.4422 339.759 80.4318V81.1847H331.087V79.5938H337.678C337.678 79.035 337.564 78.5402 337.337 78.1094C337.11 77.6738 336.79 77.3305 336.378 77.0795C335.971 76.8286 335.493 76.7031 334.944 76.7031C334.347 76.7031 333.826 76.8499 333.381 77.1435C332.941 77.4323 332.6 77.8111 332.358 78.2798C332.122 78.7438 332.003 79.2481 332.003 79.7926V81.0355C332.003 81.7647 332.131 82.3849 332.387 82.8963C332.647 83.4077 333.009 83.7983 333.473 84.0682C333.937 84.3333 334.48 84.4659 335.1 84.4659C335.502 84.4659 335.869 84.4091 336.201 84.2955C336.532 84.1771 336.819 84.0019 337.06 83.7699C337.301 83.5379 337.486 83.2514 337.614 82.9105L339.624 83.2727C339.463 83.8646 339.174 84.383 338.757 84.8281C338.346 85.2685 337.827 85.6117 337.202 85.858C336.582 86.0994 335.874 86.2202 335.078 86.2202ZM347.207 75.0909V76.7955H341.249V75.0909H347.207ZM342.847 72.4773H344.97V82.7969C344.97 83.2088 345.032 83.5189 345.155 83.7273C345.278 83.9309 345.437 84.0705 345.631 84.1463C345.83 84.2173 346.045 84.2528 346.277 84.2528C346.447 84.2528 346.597 84.241 346.724 84.2173C346.852 84.1937 346.952 84.1747 347.023 84.1605L347.406 85.9148C347.283 85.9621 347.108 86.0095 346.881 86.0568C346.653 86.1089 346.369 86.1373 346.028 86.142C345.47 86.1515 344.949 86.0521 344.466 85.8438C343.983 85.6354 343.592 85.3134 343.294 84.8778C342.996 84.4422 342.847 83.8954 342.847 83.2372V72.4773ZM352.731 86.2415C352.04 86.2415 351.415 86.1136 350.856 85.858C350.297 85.5975 349.855 85.2211 349.528 84.7287C349.206 84.2363 349.045 83.6326 349.045 82.9176C349.045 82.3021 349.163 81.7955 349.4 81.3977C349.637 81 349.957 80.6851 350.359 80.4531C350.761 80.2211 351.211 80.0459 351.708 79.9276C352.206 79.8092 352.712 79.7192 353.228 79.6577C353.882 79.5819 354.412 79.5204 354.819 79.473C355.226 79.4209 355.522 79.3381 355.707 79.2244C355.892 79.1108 355.984 78.9261 355.984 78.6705V78.6207C355.984 78.0005 355.809 77.5199 355.458 77.179C355.113 76.8381 354.597 76.6676 353.91 76.6676C353.195 76.6676 352.632 76.8262 352.22 77.1435C351.813 77.456 351.531 77.804 351.375 78.1875L349.379 77.733C349.616 77.0701 349.961 76.535 350.416 76.1278C350.875 75.7159 351.403 75.4176 352 75.233C352.596 75.0436 353.224 74.9489 353.882 74.9489C354.317 74.9489 354.779 75.0009 355.267 75.1051C355.759 75.2045 356.218 75.3892 356.645 75.6591C357.075 75.929 357.428 76.3149 357.703 76.8168C357.977 77.3139 358.115 77.9602 358.115 78.7557V86H356.041V84.5085H355.956C355.818 84.7831 355.612 85.053 355.338 85.3182C355.063 85.5833 354.71 85.8035 354.279 85.9787C353.849 86.1539 353.333 86.2415 352.731 86.2415ZM353.193 84.5369C353.78 84.5369 354.282 84.4209 354.699 84.1889C355.12 83.9569 355.44 83.6539 355.657 83.2798C355.88 82.901 355.991 82.4962 355.991 82.0653V80.6591C355.915 80.7348 355.769 80.8059 355.551 80.8722C355.338 80.9337 355.094 80.9882 354.819 81.0355C354.545 81.0781 354.277 81.1184 354.017 81.1562C353.756 81.1894 353.538 81.2178 353.363 81.2415C352.951 81.2936 352.575 81.3812 352.234 81.5043C351.898 81.6274 351.628 81.8049 351.424 82.0369C351.225 82.2642 351.126 82.5672 351.126 82.946C351.126 83.4716 351.32 83.8693 351.708 84.1392C352.097 84.4044 352.592 84.5369 353.193 84.5369ZM369.118 77.7543L367.193 78.0952C367.113 77.849 366.985 77.6146 366.81 77.392C366.639 77.1695 366.407 76.9872 366.114 76.8452C365.82 76.7031 365.453 76.6321 365.013 76.6321C364.411 76.6321 363.91 76.767 363.507 77.0369C363.105 77.3021 362.903 77.6454 362.903 78.0668C362.903 78.4313 363.038 78.7249 363.308 78.9474C363.578 79.17 364.014 79.3523 364.615 79.4943L366.348 79.892C367.352 80.1241 368.1 80.4815 368.592 80.9645C369.085 81.4474 369.331 82.0748 369.331 82.8466C369.331 83.5 369.142 84.0824 368.763 84.5938C368.389 85.1004 367.866 85.4981 367.193 85.7869C366.526 86.0758 365.751 86.2202 364.871 86.2202C363.649 86.2202 362.652 85.9598 361.881 85.4389C361.109 84.9134 360.635 84.1676 360.46 83.2017L362.513 82.8892C362.641 83.4242 362.903 83.8291 363.301 84.1037C363.699 84.3736 364.217 84.5085 364.857 84.5085C365.553 84.5085 366.109 84.3641 366.526 84.0753C366.942 83.7817 367.151 83.4242 367.151 83.0028C367.151 82.6619 367.023 82.3755 366.767 82.1435C366.516 81.9115 366.13 81.7363 365.609 81.6179L363.763 81.2131C362.745 80.9811 361.992 80.6117 361.504 80.1051C361.021 79.5985 360.78 78.9569 360.78 78.1804C360.78 77.5365 360.96 76.973 361.32 76.4901C361.679 76.0071 362.177 75.6307 362.811 75.3608C363.446 75.0862 364.172 74.9489 364.991 74.9489C366.17 74.9489 367.098 75.2045 367.776 75.7159C368.453 76.2225 368.9 76.902 369.118 77.7543Z" fill="#222121"/>
</g>
<g filter="url(#filter3_d_10_51)">
<rect x="229" y="132" width="70" height="70" rx="10" fill="#C481F9"/>
<path d="M313.827 176H311.497L316.732 161.455H319.267L324.501 176H322.172L318.06 164.097H317.946L313.827 176ZM314.217 170.304H321.774V172.151H314.217V170.304ZM328.555 169.523V176H326.431V161.455H328.527V166.866H328.662C328.917 166.279 329.308 165.813 329.833 165.467C330.359 165.122 331.046 164.949 331.893 164.949C332.641 164.949 333.295 165.103 333.853 165.411C334.417 165.718 334.852 166.178 335.16 166.788C335.473 167.394 335.629 168.152 335.629 169.061V176H333.505V169.317C333.505 168.517 333.299 167.896 332.887 167.456C332.475 167.011 331.903 166.788 331.169 166.788C330.667 166.788 330.217 166.895 329.819 167.108C329.426 167.321 329.116 167.634 328.889 168.045C328.666 168.453 328.555 168.945 328.555 169.523ZM343.058 176.22C342.035 176.22 341.143 175.986 340.38 175.517C339.618 175.048 339.026 174.393 338.605 173.55C338.183 172.707 337.973 171.722 337.973 170.595C337.973 169.464 338.183 168.474 338.605 167.626C339.026 166.779 339.618 166.121 340.38 165.652C341.143 165.183 342.035 164.949 343.058 164.949C344.081 164.949 344.973 165.183 345.735 165.652C346.498 166.121 347.09 166.779 347.511 167.626C347.932 168.474 348.143 169.464 348.143 170.595C348.143 171.722 347.932 172.707 347.511 173.55C347.09 174.393 346.498 175.048 345.735 175.517C344.973 175.986 344.081 176.22 343.058 176.22ZM343.065 174.438C343.728 174.438 344.277 174.262 344.713 173.912C345.148 173.562 345.47 173.095 345.679 172.513C345.892 171.93 345.998 171.289 345.998 170.588C345.998 169.892 345.892 169.253 345.679 168.67C345.47 168.083 345.148 167.612 344.713 167.257C344.277 166.902 343.728 166.724 343.065 166.724C342.397 166.724 341.843 166.902 341.403 167.257C340.967 167.612 340.643 168.083 340.43 168.67C340.222 169.253 340.118 169.892 340.118 170.588C340.118 171.289 340.222 171.93 340.43 172.513C340.643 173.095 340.967 173.562 341.403 173.912C341.843 174.262 342.397 174.438 343.065 174.438ZM350.513 176V165.091H352.566V166.824H352.68C352.879 166.237 353.229 165.775 353.731 165.439C354.237 165.098 354.81 164.928 355.45 164.928C355.582 164.928 355.738 164.932 355.918 164.942C356.103 164.951 356.247 164.963 356.352 164.977V167.009C356.266 166.985 356.115 166.959 355.897 166.93C355.679 166.897 355.461 166.881 355.244 166.881C354.742 166.881 354.294 166.987 353.901 167.2C353.513 167.409 353.205 167.7 352.978 168.074C352.751 168.443 352.637 168.865 352.637 169.338V176H350.513ZM358.189 176V165.091H360.242V166.824H360.355C360.554 166.237 360.905 165.775 361.407 165.439C361.913 165.098 362.486 164.928 363.125 164.928C363.258 164.928 363.414 164.932 363.594 164.942C363.779 164.951 363.923 164.963 364.027 164.977V167.009C363.942 166.985 363.791 166.959 363.573 166.93C363.355 166.897 363.137 166.881 362.919 166.881C362.417 166.881 361.97 166.987 361.577 167.2C361.189 167.409 360.881 167.7 360.654 168.074C360.426 168.443 360.313 168.865 360.313 169.338V176H358.189ZM370.07 176.22C369.047 176.22 368.154 175.986 367.392 175.517C366.63 175.048 366.038 174.393 365.616 173.55C365.195 172.707 364.984 171.722 364.984 170.595C364.984 169.464 365.195 168.474 365.616 167.626C366.038 166.779 366.63 166.121 367.392 165.652C368.154 165.183 369.047 164.949 370.07 164.949C371.092 164.949 371.985 165.183 372.747 165.652C373.509 166.121 374.101 166.779 374.523 167.626C374.944 168.474 375.155 169.464 375.155 170.595C375.155 171.722 374.944 172.707 374.523 173.55C374.101 174.393 373.509 175.048 372.747 175.517C371.985 175.986 371.092 176.22 370.07 176.22ZM370.077 174.438C370.74 174.438 371.289 174.262 371.724 173.912C372.16 173.562 372.482 173.095 372.69 172.513C372.903 171.93 373.01 171.289 373.01 170.588C373.01 169.892 372.903 169.253 372.69 168.67C372.482 168.083 372.16 167.612 371.724 167.257C371.289 166.902 370.74 166.724 370.077 166.724C369.409 166.724 368.855 166.902 368.415 167.257C367.979 167.612 367.655 168.083 367.442 168.67C367.233 169.253 367.129 169.892 367.129 170.588C367.129 171.289 367.233 171.93 367.442 172.513C367.655 173.095 367.979 173.562 368.415 173.912C368.855 174.262 369.409 174.438 370.077 174.438ZM385.7 167.754L383.775 168.095C383.695 167.849 383.567 167.615 383.392 167.392C383.221 167.17 382.989 166.987 382.696 166.845C382.402 166.703 382.035 166.632 381.595 166.632C380.993 166.632 380.492 166.767 380.089 167.037C379.687 167.302 379.485 167.645 379.485 168.067C379.485 168.431 379.62 168.725 379.89 168.947C380.16 169.17 380.596 169.352 381.197 169.494L382.93 169.892C383.934 170.124 384.682 170.482 385.174 170.964C385.667 171.447 385.913 172.075 385.913 172.847C385.913 173.5 385.724 174.082 385.345 174.594C384.971 175.1 384.448 175.498 383.775 175.787C383.108 176.076 382.333 176.22 381.453 176.22C380.231 176.22 379.234 175.96 378.463 175.439C377.691 174.913 377.217 174.168 377.042 173.202L379.095 172.889C379.223 173.424 379.485 173.829 379.883 174.104C380.281 174.374 380.799 174.509 381.439 174.509C382.135 174.509 382.691 174.364 383.108 174.075C383.524 173.782 383.733 173.424 383.733 173.003C383.733 172.662 383.605 172.375 383.349 172.143C383.098 171.911 382.712 171.736 382.191 171.618L380.345 171.213C379.327 170.981 378.574 170.612 378.086 170.105C377.603 169.598 377.362 168.957 377.362 168.18C377.362 167.536 377.542 166.973 377.902 166.49C378.261 166.007 378.759 165.631 379.393 165.361C380.028 165.086 380.754 164.949 381.574 164.949C382.752 164.949 383.681 165.205 384.358 165.716C385.035 166.223 385.482 166.902 385.7 167.754Z" fill="#222121"/>
</g>
<path opacity="0.5" fill-rule="evenodd" clip-rule="evenodd" d="M284.833 76C284.833 87.5058 275.506 96.8333 264 96.8333C252.494 96.8333 243.167 87.5058 243.167 76C243.167 64.4941 252.494 55.1667 264 55.1667C275.506 55.1667 284.833 64.4941 284.833 76Z" fill="#1C274C"/>
<g opacity="0.5">
<path d="M258.719 77.4045L259.869 78.5007C260.192 78.8082 260.375 79.237 260.375 79.6856C260.375 80.3597 260.915 80.9061 261.58 80.9061H265.42C266.085 80.9061 266.625 80.3597 266.625 79.6856C266.625 79.237 266.808 78.8082 267.131 78.5007L268.281 77.4045C269.886 75.8626 270.783 73.8369 270.792 71.7309L270.792 71.6425C270.792 68.0442 267.527 65.0833 263.5 65.0833C259.473 65.0833 256.208 68.0442 256.208 71.6425L256.208 71.7309C256.217 73.8369 257.114 75.8626 258.719 77.4045Z" fill="#1C274C"/>
</g>
<path fill-rule="evenodd" clip-rule="evenodd" d="M260.635 82.4882C260.635 82.0514 260.985 81.6971 261.417 81.6971H265.583C266.015 81.6971 266.365 82.0514 266.365 82.4882C266.365 82.9252 266.015 83.2794 265.583 83.2794H261.417C260.985 83.2794 260.635 82.9252 260.635 82.4882ZM261.33 85.1254C261.33 84.6884 261.68 84.3343 262.111 84.3343H264.889C265.32 84.3343 265.67 84.6884 265.67 85.1254C265.67 85.5623 265.32 85.9166 264.889 85.9166H262.111C261.68 85.9166 261.33 85.5623 261.33 85.1254Z" fill="#1C274C"/>
<path opacity="0.5" fill-rule="evenodd" clip-rule="evenodd" d="M284.833 167C284.833 178.506 275.506 187.833 264 187.833C252.494 187.833 243.167 178.506 243.167 167C243.167 155.494 252.494 146.167 264 146.167C275.506 146.167 284.833 155.494 284.833 167Z" fill="#1C274C"/>
<path d="M265.562 154.5C265.562 153.637 264.863 152.938 264 152.938C263.137 152.938 262.437 153.637 262.437 154.5V155.16C259.041 155.768 256.188 158.32 256.188 161.792C256.188 165.786 259.964 168.562 264 168.562C266.868 168.562 268.687 170.449 268.687 172.208C268.687 173.967 266.868 175.854 264 175.854C261.132 175.854 259.312 173.967 259.312 172.208C259.312 171.345 258.613 170.646 257.75 170.646C256.887 170.646 256.188 171.345 256.188 172.208C256.188 175.68 259.041 178.232 262.437 178.84V179.5C262.437 180.363 263.137 181.062 264 181.062C264.863 181.062 265.562 180.363 265.562 179.5V178.84C268.959 178.232 271.812 175.68 271.812 172.208C271.812 168.214 268.036 165.437 264 165.437C261.132 165.437 259.312 163.551 259.312 161.792C259.312 160.033 261.132 158.146 264 158.146C266.868 158.146 268.687 160.033 268.687 161.792C268.687 162.655 269.387 163.354 270.25 163.354C271.113 163.354 271.812 162.655 271.812 161.792C271.812 158.32 268.959 155.768 265.562 155.16V154.5Z" fill="#1C274C"/>
<circle cx="296.5" cy="136.5" r="7.5" fill="#EB4242"/>
<defs>
<filter id="filter0_d_10_51" x="29" y="38" width="175.804" height="90" filterUnits="userSpaceOnUse" color-interpolation-filters="sRGB">
<feFlood flood-opacity="0" result="BackgroundImageFix"/>
<feColorMatrix in="SourceAlpha" type="matrix" values="0 0 0 0 0 0 0 0 0 0 0 0 0 0 0 0 0 0 127 0" result="hardAlpha"/>
<feOffset dy="7"/>
<feGaussianBlur stdDeviation="5"/>
<feComposite in2="hardAlpha" operator="out"/>
<feColorMatrix type="matrix" values="0 0 0 0 0 0 0 0 0 0 0 0 0 0 0 0 0 0 0.25 0"/>
<feBlend mode="normal" in2="BackgroundImageFix" result="effect1_dropShadow_10_51"/>
<feBlend mode="normal" in="SourceGraphic" in2="effect1_dropShadow_10_51" result="shape"/>
</filter>
<filter id="filter1_d_10_51" x="29" y="133" width="194.132" height="90" filterUnits="userSpaceOnUse" color-interpolation-filters="sRGB">
<feFlood flood-opacity="0" result="BackgroundImageFix"/>
<feColorMatrix in="SourceAlpha" type="matrix" values="0 0 0 0 0 0 0 0 0 0 0 0 0 0 0 0 0 0 127 0" result="hardAlpha"/>
<feOffset dy="7"/>
<feGaussianBlur stdDeviation="5"/>
<feComposite in2="hardAlpha" operator="out"/>
<feColorMatrix type="matrix" values="0 0 0 0 0 0 0 0 0 0 0 0 0 0 0 0 0 0 0.25 0"/>
<feBlend mode="normal" in2="BackgroundImageFix" result="effect1_dropShadow_10_51"/>
<feBlend mode="normal" in="SourceGraphic" in2="effect1_dropShadow_10_51" result="shape"/>
</filter>
<filter id="filter2_d_10_51" x="219" y="38" width="160.331" height="90" filterUnits="userSpaceOnUse" color-interpolation-filters="sRGB">
<feFlood flood-opacity="0" result="BackgroundImageFix"/>
<feColorMatrix in="SourceAlpha" type="matrix" values="0 0 0 0 0 0 0 0 0 0 0 0 0 0 0 0 0 0 127 0" result="hardAlpha"/>
<feOffset dy="7"/>
<feGaussianBlur stdDeviation="5"/>
<feComposite in2="hardAlpha" operator="out"/>
<feColorMatrix type="matrix" values="0 0 0 0 0 0 0 0 0 0 0 0 0 0 0 0 0 0 0.25 0"/>
<feBlend mode="normal" in2="BackgroundImageFix" result="effect1_dropShadow_10_51"/>
<feBlend mode="normal" in="SourceGraphic" in2="effect1_dropShadow_10_51" result="shape"/>
</filter>
<filter id="filter3_d_10_51" x="219" y="129" width="176.913" height="90" filterUnits="userSpaceOnUse" color-interpolation-filters="sRGB">
<feFlood flood-opacity="0" result="BackgroundImageFix"/>
<feColorMatrix in="SourceAlpha" type="matrix" values="0 0 0 0 0 0 0 0 0 0 0 0 0 0 0 0 0 0 127 0" result="hardAlpha"/>
<feOffset dy="7"/>
<feGaussianBlur stdDeviation="5"/>
<feComposite in2="hardAlpha" operator="out"/>
<feColorMatrix type="matrix" values="0 0 0 0 0 0 0 0 0 0 0 0 0 0 0 0 0 0 0.25 0"/>
<feBlend mode="normal" in2="BackgroundImageFix" result="effect1_dropShadow_10_51"/>
<feBlend mode="normal" in="SourceGraphic" in2="effect1_dropShadow_10_51" result="shape"/>
</filter>
</defs>
</svg>
