<svg width="327" height="60" viewBox="0 0 527 80" fill="none" xmlns="http://www.w3.org/2000/svg">
<rect width="527" height="80" rx="18" fill="#10828D"/>
<path d="M73.598 46V31.4545H82.7173V33.3438H75.7926V37.7756H82.2415V39.6577H75.7926V44.1108H82.8026V46H73.598ZM87.6019 31.4545V46H85.4783V31.4545H87.6019ZM95.7518 50.0909V35.0909H97.8256V36.8594H98.0032C98.1263 36.6321 98.3039 36.3693 98.5359 36.071C98.7679 35.7727 99.0898 35.5123 99.5018 35.2898C99.9137 35.0625 100.458 34.9489 101.135 34.9489C102.016 34.9489 102.802 35.1714 103.493 35.6165C104.185 36.0616 104.727 36.7031 105.12 37.5412C105.517 38.3793 105.716 39.3878 105.716 40.5668C105.716 41.7457 105.52 42.7566 105.127 43.5994C104.734 44.4375 104.194 45.0838 103.507 45.5384C102.821 45.9882 102.037 46.2131 101.157 46.2131C100.494 46.2131 99.9516 46.1018 99.5302 45.8793C99.1135 45.6567 98.7868 45.3963 98.5501 45.098C98.3133 44.7997 98.131 44.5346 98.0032 44.3026H97.8754V50.0909H95.7518ZM97.8327 40.5455C97.8327 41.3125 97.944 41.9848 98.1665 42.5625C98.3891 43.1402 98.7111 43.5923 99.1325 43.919C99.5539 44.241 100.07 44.402 100.681 44.402C101.315 44.402 101.846 44.2339 102.272 43.8977C102.698 43.5568 103.02 43.0952 103.238 42.5128C103.46 41.9304 103.571 41.2746 103.571 40.5455C103.571 39.8258 103.462 39.1795 103.245 38.6065C103.032 38.0336 102.71 37.5814 102.279 37.25C101.853 36.9186 101.32 36.7528 100.681 36.7528C100.065 36.7528 99.5444 36.9115 99.1183 37.2287C98.6969 37.5459 98.3772 37.9886 98.1594 38.5568C97.9416 39.125 97.8327 39.7879 97.8327 40.5455ZM108.096 46V35.0909H110.148V36.8239H110.262C110.461 36.2367 110.811 35.7751 111.313 35.4389C111.819 35.098 112.392 34.9276 113.032 34.9276C113.164 34.9276 113.32 34.9323 113.5 34.9418C113.685 34.9512 113.829 34.9631 113.934 34.9773V37.0085C113.848 36.9848 113.697 36.9588 113.479 36.9304C113.261 36.8973 113.043 36.8807 112.826 36.8807C112.324 36.8807 111.876 36.9872 111.483 37.2003C111.095 37.4086 110.787 37.6998 110.56 38.0739C110.333 38.4432 110.219 38.8646 110.219 39.3381V46H108.096ZM120.082 46.2202C119.008 46.2202 118.082 45.9905 117.305 45.5312C116.534 45.0672 115.937 44.4162 115.516 43.5781C115.099 42.7353 114.891 41.7481 114.891 40.6165C114.891 39.4991 115.099 38.5142 115.516 37.6619C115.937 36.8097 116.524 36.1444 117.277 35.6662C118.035 35.188 118.92 34.9489 119.933 34.9489C120.549 34.9489 121.145 35.0507 121.723 35.2543C122.301 35.4579 122.819 35.7775 123.278 36.2131C123.738 36.6487 124.1 37.2145 124.365 37.9105C124.63 38.6018 124.763 39.4422 124.763 40.4318V41.1847H116.091V39.5938H122.682C122.682 39.035 122.568 38.5402 122.341 38.1094C122.114 37.6738 121.794 37.3305 121.382 37.0795C120.975 36.8286 120.497 36.7031 119.947 36.7031C119.351 36.7031 118.83 36.8499 118.385 37.1435C117.945 37.4323 117.604 37.8111 117.362 38.2798C117.125 38.7438 117.007 39.2481 117.007 39.7926V41.0355C117.007 41.7647 117.135 42.3849 117.391 42.8963C117.651 43.4077 118.013 43.7983 118.477 44.0682C118.941 44.3333 119.483 44.4659 120.104 44.4659C120.506 44.4659 120.873 44.4091 121.205 44.2955C121.536 44.1771 121.822 44.0019 122.064 43.7699C122.305 43.5379 122.49 43.2514 122.618 42.9105L124.628 43.2727C124.467 43.8646 124.178 44.383 123.761 44.8281C123.349 45.2685 122.831 45.6117 122.206 45.858C121.586 46.0994 120.878 46.2202 120.082 46.2202ZM135.294 37.7543L133.369 38.0952C133.288 37.849 133.161 37.6146 132.985 37.392C132.815 37.1695 132.583 36.9872 132.289 36.8452C131.996 36.7031 131.629 36.6321 131.189 36.6321C130.587 36.6321 130.085 36.767 129.683 37.0369C129.28 37.3021 129.079 37.6454 129.079 38.0668C129.079 38.4313 129.214 38.7249 129.484 38.9474C129.754 39.17 130.19 39.3523 130.791 39.4943L132.524 39.892C133.528 40.1241 134.276 40.4815 134.768 40.9645C135.261 41.4474 135.507 42.0748 135.507 42.8466C135.507 43.5 135.317 44.0824 134.939 44.5938C134.565 45.1004 134.041 45.4981 133.369 45.7869C132.701 46.0758 131.927 46.2202 131.047 46.2202C129.825 46.2202 128.828 45.9598 128.056 45.4389C127.285 44.9134 126.811 44.1676 126.636 43.2017L128.689 42.8892C128.816 43.4242 129.079 43.8291 129.477 44.1037C129.875 44.3736 130.393 44.5085 131.032 44.5085C131.728 44.5085 132.285 44.3641 132.701 44.0753C133.118 43.7817 133.326 43.4242 133.326 43.0028C133.326 42.6619 133.199 42.3755 132.943 42.1435C132.692 41.9115 132.306 41.7363 131.785 41.6179L129.939 41.2131C128.921 40.9811 128.168 40.6117 127.68 40.1051C127.197 39.5985 126.956 38.9569 126.956 38.1804C126.956 37.5365 127.136 36.973 127.495 36.4901C127.855 36.0071 128.352 35.6307 128.987 35.3608C129.621 35.0862 130.348 34.9489 131.167 34.9489C132.346 34.9489 133.274 35.2045 133.951 35.7159C134.628 36.2225 135.076 36.902 135.294 37.7543ZM144.752 41.4759V35.0909H146.883V46H144.795V44.1108H144.681C144.43 44.6932 144.028 45.1785 143.474 45.5668C142.924 45.9503 142.24 46.142 141.421 46.142C140.72 46.142 140.1 45.9882 139.56 45.6804C139.025 45.3679 138.604 44.9062 138.296 44.2955C137.993 43.6847 137.842 42.9295 137.842 42.0298V35.0909H139.965V41.7741C139.965 42.5175 140.171 43.1094 140.583 43.5497C140.995 43.9901 141.53 44.2102 142.188 44.2102C142.586 44.2102 142.981 44.1108 143.374 43.9119C143.772 43.7131 144.101 43.4124 144.362 43.0099C144.627 42.6075 144.757 42.0961 144.752 41.4759ZM149.736 50.0909V35.0909H151.81V36.8594H151.988C152.111 36.6321 152.288 36.3693 152.52 36.071C152.752 35.7727 153.074 35.5123 153.486 35.2898C153.898 35.0625 154.443 34.9489 155.12 34.9489C156 34.9489 156.786 35.1714 157.478 35.6165C158.169 36.0616 158.711 36.7031 159.104 37.5412C159.502 38.3793 159.701 39.3878 159.701 40.5668C159.701 41.7457 159.504 42.7566 159.111 43.5994C158.718 44.4375 158.178 45.0838 157.492 45.5384C156.805 45.9882 156.022 46.2131 155.141 46.2131C154.478 46.2131 153.936 46.1018 153.515 45.8793C153.098 45.6567 152.771 45.3963 152.534 45.098C152.298 44.7997 152.115 44.5346 151.988 44.3026H151.86V50.0909H149.736ZM151.817 40.5455C151.817 41.3125 151.928 41.9848 152.151 42.5625C152.373 43.1402 152.695 43.5923 153.117 43.919C153.538 44.241 154.054 44.402 154.665 44.402C155.3 44.402 155.83 44.2339 156.256 43.8977C156.682 43.5568 157.004 43.0952 157.222 42.5128C157.444 41.9304 157.556 41.2746 157.556 40.5455C157.556 39.8258 157.447 39.1795 157.229 38.6065C157.016 38.0336 156.694 37.5814 156.263 37.25C155.837 36.9186 155.304 36.7528 154.665 36.7528C154.05 36.7528 153.529 36.9115 153.103 37.2287C152.681 37.5459 152.362 37.9886 152.144 38.5568C151.926 39.125 151.817 39.7879 151.817 40.5455ZM168.99 41.4759V35.0909H171.121V46H169.033V44.1108H168.919C168.668 44.6932 168.266 45.1785 167.712 45.5668C167.163 45.9503 166.479 46.142 165.659 46.142C164.959 46.142 164.338 45.9882 163.799 45.6804C163.264 45.3679 162.842 44.9062 162.534 44.2955C162.231 43.6847 162.08 42.9295 162.08 42.0298V35.0909H164.203V41.7741C164.203 42.5175 164.409 43.1094 164.821 43.5497C165.233 43.9901 165.768 44.2102 166.426 44.2102C166.824 44.2102 167.22 44.1108 167.613 43.9119C168.01 43.7131 168.339 43.4124 168.6 43.0099C168.865 42.6075 168.995 42.0961 168.99 41.4759ZM178.676 46.2202C177.601 46.2202 176.676 45.9905 175.899 45.5312C175.127 45.0672 174.531 44.4162 174.109 43.5781C173.693 42.7353 173.484 41.7481 173.484 40.6165C173.484 39.4991 173.693 38.5142 174.109 37.6619C174.531 36.8097 175.118 36.1444 175.871 35.6662C176.628 35.188 177.514 34.9489 178.527 34.9489C179.143 34.9489 179.739 35.0507 180.317 35.2543C180.894 35.4579 181.413 35.7775 181.872 36.2131C182.331 36.6487 182.694 37.2145 182.959 37.9105C183.224 38.6018 183.357 39.4422 183.357 40.4318V41.1847H174.685V39.5938H181.276C181.276 39.035 181.162 38.5402 180.935 38.1094C180.707 37.6738 180.388 37.3305 179.976 37.0795C179.569 36.8286 179.09 36.7031 178.541 36.7031C177.945 36.7031 177.424 36.8499 176.979 37.1435C176.538 37.4323 176.197 37.8111 175.956 38.2798C175.719 38.7438 175.601 39.2481 175.601 39.7926V41.0355C175.601 41.7647 175.729 42.3849 175.984 42.8963C176.245 43.4077 176.607 43.7983 177.071 44.0682C177.535 44.3333 178.077 44.4659 178.697 44.4659C179.1 44.4659 179.467 44.4091 179.798 44.2955C180.13 44.1771 180.416 44.0019 180.658 43.7699C180.899 43.5379 181.084 43.2514 181.212 42.9105L183.222 43.2727C183.061 43.8646 182.772 44.383 182.355 44.8281C181.943 45.2685 181.425 45.6117 180.8 45.858C180.179 46.0994 179.472 46.2202 178.676 46.2202ZM193.887 37.7543L191.963 38.0952C191.882 37.849 191.754 37.6146 191.579 37.392C191.409 37.1695 191.177 36.9872 190.883 36.8452C190.59 36.7031 190.223 36.6321 189.782 36.6321C189.181 36.6321 188.679 36.767 188.277 37.0369C187.874 37.3021 187.673 37.6454 187.673 38.0668C187.673 38.4313 187.808 38.7249 188.078 38.9474C188.348 39.17 188.783 39.3523 189.385 39.4943L191.118 39.892C192.121 40.1241 192.869 40.4815 193.362 40.9645C193.854 41.4474 194.1 42.0748 194.1 42.8466C194.1 43.5 193.911 44.0824 193.532 44.5938C193.158 45.1004 192.635 45.4981 191.963 45.7869C191.295 46.0758 190.521 46.2202 189.64 46.2202C188.419 46.2202 187.422 45.9598 186.65 45.4389C185.878 44.9134 185.405 44.1676 185.23 43.2017L187.282 42.8892C187.41 43.4242 187.673 43.8291 188.071 44.1037C188.468 44.3736 188.987 44.5085 189.626 44.5085C190.322 44.5085 190.878 44.3641 191.295 44.0753C191.712 43.7817 191.92 43.4242 191.92 43.0028C191.92 42.6619 191.792 42.3755 191.537 42.1435C191.286 41.9115 190.9 41.7363 190.379 41.6179L188.532 41.2131C187.514 40.9811 186.761 40.6117 186.274 40.1051C185.791 39.5985 185.549 38.9569 185.549 38.1804C185.549 37.5365 185.729 36.973 186.089 36.4901C186.449 36.0071 186.946 35.6307 187.581 35.3608C188.215 35.0862 188.942 34.9489 189.761 34.9489C190.94 34.9489 191.868 35.2045 192.545 35.7159C193.222 36.2225 193.67 36.902 193.887 37.7543ZM201.528 35.0909V36.7955H195.569V35.0909H201.528ZM197.167 32.4773H199.29V42.7969C199.29 43.2088 199.352 43.5189 199.475 43.7273C199.598 43.9309 199.757 44.0705 199.951 44.1463C200.15 44.2173 200.365 44.2528 200.597 44.2528C200.768 44.2528 200.917 44.241 201.045 44.2173C201.173 44.1937 201.272 44.1747 201.343 44.1605L201.727 45.9148C201.603 45.9621 201.428 46.0095 201.201 46.0568C200.974 46.1089 200.69 46.1373 200.349 46.142C199.79 46.1515 199.269 46.0521 198.786 45.8438C198.303 45.6354 197.913 45.3134 197.614 44.8778C197.316 44.4422 197.167 43.8954 197.167 43.2372V32.4773ZM208.355 46.2202C207.332 46.2202 206.44 45.9858 205.677 45.517C204.915 45.0483 204.323 44.3925 203.902 43.5497C203.48 42.7069 203.27 41.7221 203.27 40.5952C203.27 39.4635 203.48 38.474 203.902 37.6264C204.323 36.7789 204.915 36.1207 205.677 35.652C206.44 35.1832 207.332 34.9489 208.355 34.9489C209.377 34.9489 210.27 35.1832 211.032 35.652C211.795 36.1207 212.386 36.7789 212.808 37.6264C213.229 38.474 213.44 39.4635 213.44 40.5952C213.44 41.7221 213.229 42.7069 212.808 43.5497C212.386 44.3925 211.795 45.0483 211.032 45.517C210.27 45.9858 209.377 46.2202 208.355 46.2202ZM208.362 44.4375C209.025 44.4375 209.574 44.2623 210.01 43.9119C210.445 43.5616 210.767 43.0952 210.975 42.5128C211.189 41.9304 211.295 41.2888 211.295 40.5881C211.295 39.892 211.189 39.2528 210.975 38.6705C210.767 38.0833 210.445 37.6122 210.01 37.2571C209.574 36.902 209.025 36.7244 208.362 36.7244C207.694 36.7244 207.14 36.902 206.7 37.2571C206.264 37.6122 205.94 38.0833 205.727 38.6705C205.519 39.2528 205.414 39.892 205.414 40.5881C205.414 41.2888 205.519 41.9304 205.727 42.5128C205.94 43.0952 206.264 43.5616 206.7 43.9119C207.14 44.2623 207.694 44.4375 208.362 44.4375ZM225.805 46.2202C224.73 46.2202 223.805 45.9905 223.028 45.5312C222.256 45.0672 221.66 44.4162 221.238 43.5781C220.822 42.7353 220.613 41.7481 220.613 40.6165C220.613 39.4991 220.822 38.5142 221.238 37.6619C221.66 36.8097 222.247 36.1444 223 35.6662C223.757 35.188 224.643 34.9489 225.656 34.9489C226.271 34.9489 226.868 35.0507 227.446 35.2543C228.023 35.4579 228.542 35.7775 229.001 36.2131C229.46 36.6487 229.823 37.2145 230.088 37.9105C230.353 38.6018 230.485 39.4422 230.485 40.4318V41.1847H221.814V39.5938H228.404C228.404 39.035 228.291 38.5402 228.064 38.1094C227.836 37.6738 227.517 37.3305 227.105 37.0795C226.698 36.8286 226.219 36.7031 225.67 36.7031C225.074 36.7031 224.553 36.8499 224.108 37.1435C223.667 37.4323 223.326 37.8111 223.085 38.2798C222.848 38.7438 222.73 39.2481 222.73 39.7926V41.0355C222.73 41.7647 222.858 42.3849 223.113 42.8963C223.374 43.4077 223.736 43.7983 224.2 44.0682C224.664 44.3333 225.206 44.4659 225.826 44.4659C226.229 44.4659 226.596 44.4091 226.927 44.2955C227.259 44.1771 227.545 44.0019 227.787 43.7699C228.028 43.5379 228.213 43.2514 228.341 42.9105L230.35 43.2727C230.19 43.8646 229.901 44.383 229.484 44.8281C229.072 45.2685 228.554 45.6117 227.929 45.858C227.308 46.0994 226.6 46.2202 225.805 46.2202ZM241.016 37.7543L239.092 38.0952C239.011 37.849 238.883 37.6146 238.708 37.392C238.538 37.1695 238.306 36.9872 238.012 36.8452C237.719 36.7031 237.352 36.6321 236.911 36.6321C236.31 36.6321 235.808 36.767 235.406 37.0369C235.003 37.3021 234.802 37.6454 234.802 38.0668C234.802 38.4313 234.937 38.7249 235.207 38.9474C235.477 39.17 235.912 39.3523 236.513 39.4943L238.246 39.892C239.25 40.1241 239.998 40.4815 240.491 40.9645C240.983 41.4474 241.229 42.0748 241.229 42.8466C241.229 43.5 241.04 44.0824 240.661 44.5938C240.287 45.1004 239.764 45.4981 239.092 45.7869C238.424 46.0758 237.65 46.2202 236.769 46.2202C235.548 46.2202 234.551 45.9598 233.779 45.4389C233.007 44.9134 232.534 44.1676 232.359 43.2017L234.411 42.8892C234.539 43.4242 234.802 43.8291 235.2 44.1037C235.597 44.3736 236.116 44.5085 236.755 44.5085C237.451 44.5085 238.007 44.3641 238.424 44.0753C238.841 43.7817 239.049 43.4242 239.049 43.0028C239.049 42.6619 238.921 42.3755 238.665 42.1435C238.415 41.9115 238.029 41.7363 237.508 41.6179L235.661 41.2131C234.643 40.9811 233.89 40.6117 233.403 40.1051C232.92 39.5985 232.678 38.9569 232.678 38.1804C232.678 37.5365 232.858 36.973 233.218 36.4901C233.578 36.0071 234.075 35.6307 234.71 35.3608C235.344 35.0862 236.071 34.9489 236.89 34.9489C238.069 34.9489 238.997 35.2045 239.674 35.7159C240.351 36.2225 240.799 36.902 241.016 37.7543ZM248.657 35.0909V36.7955H242.698V35.0909H248.657ZM244.296 32.4773H246.419V42.7969C246.419 43.2088 246.481 43.5189 246.604 43.7273C246.727 43.9309 246.886 44.0705 247.08 44.1463C247.279 44.2173 247.494 44.2528 247.726 44.2528C247.897 44.2528 248.046 44.241 248.174 44.2173C248.301 44.1937 248.401 44.1747 248.472 44.1605L248.855 45.9148C248.732 45.9621 248.557 46.0095 248.33 46.0568C248.103 46.1089 247.819 46.1373 247.478 46.142C246.919 46.1515 246.398 46.0521 245.915 45.8438C245.432 45.6354 245.042 45.3134 244.743 44.8778C244.445 44.4422 244.296 43.8954 244.296 43.2372V32.4773ZM254.18 46.2415C253.489 46.2415 252.864 46.1136 252.305 45.858C251.747 45.5975 251.304 45.2211 250.977 44.7287C250.655 44.2363 250.494 43.6326 250.494 42.9176C250.494 42.3021 250.613 41.7955 250.849 41.3977C251.086 41 251.406 40.6851 251.808 40.4531C252.211 40.2211 252.661 40.0459 253.158 39.9276C253.655 39.8092 254.161 39.7192 254.678 39.6577C255.331 39.5819 255.861 39.5204 256.268 39.473C256.676 39.4209 256.972 39.3381 257.156 39.2244C257.341 39.1108 257.433 38.9261 257.433 38.6705V38.6207C257.433 38.0005 257.258 37.5199 256.908 37.179C256.562 36.8381 256.046 36.6676 255.359 36.6676C254.644 36.6676 254.081 36.8262 253.669 37.1435C253.262 37.456 252.98 37.804 252.824 38.1875L250.828 37.733C251.065 37.0701 251.411 36.535 251.865 36.1278C252.324 35.7159 252.852 35.4176 253.449 35.233C254.045 35.0436 254.673 34.9489 255.331 34.9489C255.767 34.9489 256.228 35.0009 256.716 35.1051C257.208 35.2045 257.668 35.3892 258.094 35.6591C258.525 35.929 258.877 36.3149 259.152 36.8168C259.427 37.3139 259.564 37.9602 259.564 38.7557V46H257.49V44.5085H257.405C257.268 44.7831 257.062 45.053 256.787 45.3182C256.512 45.5833 256.16 45.8035 255.729 45.9787C255.298 46.1539 254.782 46.2415 254.18 46.2415ZM254.642 44.5369C255.229 44.5369 255.731 44.4209 256.148 44.1889C256.569 43.9569 256.889 43.6539 257.107 43.2798C257.329 42.901 257.44 42.4962 257.44 42.0653V40.6591C257.365 40.7348 257.218 40.8059 257 40.8722C256.787 40.9337 256.543 40.9882 256.268 41.0355C255.994 41.0781 255.726 41.1184 255.466 41.1562C255.205 41.1894 254.988 41.2178 254.812 41.2415C254.401 41.2936 254.024 41.3812 253.683 41.5043C253.347 41.6274 253.077 41.8049 252.874 42.0369C252.675 42.2642 252.575 42.5672 252.575 42.946C252.575 43.4716 252.769 43.8693 253.158 44.1392C253.546 44.4044 254.041 44.5369 254.642 44.5369ZM267.685 46V35.0909H269.738V36.8239H269.852C270.05 36.2367 270.401 35.7751 270.903 35.4389C271.409 35.098 271.982 34.9276 272.621 34.9276C272.754 34.9276 272.91 34.9323 273.09 34.9418C273.275 34.9512 273.419 34.9631 273.523 34.9773V37.0085C273.438 36.9848 273.287 36.9588 273.069 36.9304C272.851 36.8973 272.633 36.8807 272.415 36.8807C271.914 36.8807 271.466 36.9872 271.073 37.2003C270.685 37.4086 270.377 37.6998 270.15 38.0739C269.923 38.4432 269.809 38.8646 269.809 39.3381V46H267.685ZM279.672 46.2202C278.597 46.2202 277.672 45.9905 276.895 45.5312C276.123 45.0672 275.527 44.4162 275.105 43.5781C274.689 42.7353 274.48 41.7481 274.48 40.6165C274.48 39.4991 274.689 38.5142 275.105 37.6619C275.527 36.8097 276.114 36.1444 276.867 35.6662C277.624 35.188 278.51 34.9489 279.523 34.9489C280.139 34.9489 280.735 35.0507 281.313 35.2543C281.891 35.4579 282.409 35.7775 282.868 36.2131C283.328 36.6487 283.69 37.2145 283.955 37.9105C284.22 38.6018 284.353 39.4422 284.353 40.4318V41.1847H275.681V39.5938H282.272C282.272 39.035 282.158 38.5402 281.931 38.1094C281.703 37.6738 281.384 37.3305 280.972 37.0795C280.565 36.8286 280.087 36.7031 279.537 36.7031C278.941 36.7031 278.42 36.8499 277.975 37.1435C277.534 37.4323 277.194 37.8111 276.952 38.2798C276.715 38.7438 276.597 39.2481 276.597 39.7926V41.0355C276.597 41.7647 276.725 42.3849 276.98 42.8963C277.241 43.4077 277.603 43.7983 278.067 44.0682C278.531 44.3333 279.073 44.4659 279.694 44.4659C280.096 44.4659 280.463 44.4091 280.794 44.2955C281.126 44.1771 281.412 44.0019 281.654 43.7699C281.895 43.5379 282.08 43.2514 282.208 42.9105L284.218 43.2727C284.057 43.8646 283.768 44.383 283.351 44.8281C282.939 45.2685 282.421 45.6117 281.796 45.858C281.176 46.0994 280.468 46.2202 279.672 46.2202ZM291.283 50.3182C290.416 50.3182 289.67 50.2045 289.045 49.9773C288.425 49.75 287.919 49.4493 287.526 49.0753C287.133 48.7012 286.839 48.2917 286.645 47.8466L288.47 47.0938C288.598 47.3021 288.768 47.5223 288.982 47.7543C289.199 47.991 289.493 48.1922 289.862 48.358C290.236 48.5237 290.717 48.6065 291.304 48.6065C292.109 48.6065 292.774 48.41 293.3 48.017C293.825 47.6288 294.088 47.0085 294.088 46.1562V44.0114H293.953C293.825 44.2434 293.641 44.5014 293.399 44.7855C293.162 45.0696 292.836 45.3158 292.419 45.5241C292.002 45.7325 291.46 45.8366 290.793 45.8366C289.931 45.8366 289.154 45.6354 288.463 45.233C287.777 44.8258 287.232 44.2268 286.83 43.4361C286.432 42.6406 286.233 41.6629 286.233 40.5028C286.233 39.3428 286.429 38.3485 286.822 37.5199C287.22 36.6913 287.765 36.0568 288.456 35.6165C289.147 35.1714 289.931 34.9489 290.807 34.9489C291.484 34.9489 292.031 35.0625 292.447 35.2898C292.864 35.5123 293.188 35.7727 293.42 36.071C293.657 36.3693 293.839 36.6321 293.967 36.8594H294.124V35.0909H296.205V46.2415C296.205 47.179 295.987 47.9484 295.551 48.5497C295.116 49.151 294.526 49.5961 293.783 49.8849C293.044 50.1738 292.211 50.3182 291.283 50.3182ZM291.261 44.0753C291.872 44.0753 292.388 43.9332 292.81 43.6491C293.236 43.3603 293.558 42.9484 293.776 42.4134C293.998 41.8736 294.109 41.2273 294.109 40.4744C294.109 39.7405 294 39.0942 293.783 38.5355C293.565 37.9768 293.245 37.5412 292.824 37.2287C292.402 36.9115 291.882 36.7528 291.261 36.7528C290.622 36.7528 290.089 36.9186 289.663 37.25C289.237 37.5767 288.915 38.0218 288.697 38.5852C288.484 39.1487 288.378 39.7784 288.378 40.4744C288.378 41.1894 288.487 41.8168 288.705 42.3565C288.922 42.8963 289.244 43.3177 289.67 43.6207C290.101 43.9238 290.632 44.0753 291.261 44.0753ZM299.053 46V35.0909H301.176V46H299.053ZM300.125 33.4077C299.756 33.4077 299.438 33.2846 299.173 33.0384C298.913 32.7874 298.783 32.4891 298.783 32.1435C298.783 31.7931 298.913 31.4948 299.173 31.2486C299.438 30.9976 299.756 30.8722 300.125 30.8722C300.494 30.8722 300.809 30.9976 301.07 31.2486C301.335 31.4948 301.467 31.7931 301.467 32.1435C301.467 32.4891 301.335 32.7874 301.07 33.0384C300.809 33.2846 300.494 33.4077 300.125 33.4077ZM312.208 37.7543L310.283 38.0952C310.203 37.849 310.075 37.6146 309.9 37.392C309.729 37.1695 309.497 36.9872 309.203 36.8452C308.91 36.7031 308.543 36.6321 308.103 36.6321C307.501 36.6321 306.999 36.767 306.597 37.0369C306.194 37.3021 305.993 37.6454 305.993 38.0668C305.993 38.4313 306.128 38.7249 306.398 38.9474C306.668 39.17 307.104 39.3523 307.705 39.4943L309.438 39.892C310.442 40.1241 311.19 40.4815 311.682 40.9645C312.175 41.4474 312.421 42.0748 312.421 42.8466C312.421 43.5 312.231 44.0824 311.853 44.5938C311.479 45.1004 310.955 45.4981 310.283 45.7869C309.615 46.0758 308.841 46.2202 307.961 46.2202C306.739 46.2202 305.742 45.9598 304.971 45.4389C304.199 44.9134 303.725 44.1676 303.55 43.2017L305.603 42.8892C305.73 43.4242 305.993 43.8291 306.391 44.1037C306.789 44.3736 307.307 44.5085 307.946 44.5085C308.642 44.5085 309.199 44.3641 309.615 44.0753C310.032 43.7817 310.24 43.4242 310.24 43.0028C310.24 42.6619 310.113 42.3755 309.857 42.1435C309.606 41.9115 309.22 41.7363 308.699 41.6179L306.853 41.2131C305.835 40.9811 305.082 40.6117 304.594 40.1051C304.111 39.5985 303.87 38.9569 303.87 38.1804C303.87 37.5365 304.05 36.973 304.409 36.4901C304.769 36.0071 305.266 35.6307 305.901 35.3608C306.535 35.0862 307.262 34.9489 308.081 34.9489C309.26 34.9489 310.188 35.2045 310.865 35.7159C311.542 36.2225 311.99 36.902 312.208 37.7543ZM319.848 35.0909V36.7955H313.889V35.0909H319.848ZM315.487 32.4773H317.611V42.7969C317.611 43.2088 317.672 43.5189 317.795 43.7273C317.919 43.9309 318.077 44.0705 318.271 44.1463C318.47 44.2173 318.686 44.2528 318.918 44.2528C319.088 44.2528 319.237 44.241 319.365 44.2173C319.493 44.1937 319.592 44.1747 319.663 44.1605L320.047 45.9148C319.924 45.9621 319.749 46.0095 319.521 46.0568C319.294 46.1089 319.01 46.1373 318.669 46.142C318.11 46.1515 317.589 46.0521 317.107 45.8438C316.624 45.6354 316.233 45.3134 315.935 44.8778C315.636 44.4422 315.487 43.8954 315.487 43.2372V32.4773ZM322.197 46V35.0909H324.25V36.8239H324.363C324.562 36.2367 324.913 35.7751 325.414 35.4389C325.921 35.098 326.494 34.9276 327.133 34.9276C327.266 34.9276 327.422 34.9323 327.602 34.9418C327.787 34.9512 327.931 34.9631 328.035 34.9773V37.0085C327.95 36.9848 327.798 36.9588 327.581 36.9304C327.363 36.8973 327.145 36.8807 326.927 36.8807C326.425 36.8807 325.978 36.9872 325.585 37.2003C325.197 37.4086 324.889 37.6998 324.662 38.0739C324.434 38.4432 324.321 38.8646 324.321 39.3381V46H322.197ZM332.95 46.2415C332.259 46.2415 331.634 46.1136 331.075 45.858C330.516 45.5975 330.074 45.2211 329.747 44.7287C329.425 44.2363 329.264 43.6326 329.264 42.9176C329.264 42.3021 329.382 41.7955 329.619 41.3977C329.856 41 330.175 40.6851 330.578 40.4531C330.98 40.2211 331.43 40.0459 331.927 39.9276C332.424 39.8092 332.931 39.7192 333.447 39.6577C334.1 39.5819 334.631 39.5204 335.038 39.473C335.445 39.4209 335.741 39.3381 335.926 39.2244C336.11 39.1108 336.203 38.9261 336.203 38.6705V38.6207C336.203 38.0005 336.028 37.5199 335.677 37.179C335.332 36.8381 334.815 36.6676 334.129 36.6676C333.414 36.6676 332.85 36.8262 332.439 37.1435C332.031 37.456 331.75 37.804 331.593 38.1875L329.598 37.733C329.834 37.0701 330.18 36.535 330.635 36.1278C331.094 35.7159 331.622 35.4176 332.218 35.233C332.815 35.0436 333.442 34.9489 334.1 34.9489C334.536 34.9489 334.998 35.0009 335.485 35.1051C335.978 35.2045 336.437 35.3892 336.863 35.6591C337.294 35.929 337.647 36.3149 337.922 36.8168C338.196 37.3139 338.333 37.9602 338.333 38.7557V46H336.26V44.5085H336.174C336.037 44.7831 335.831 45.053 335.556 45.3182C335.282 45.5833 334.929 45.8035 334.498 45.9787C334.067 46.1539 333.551 46.2415 332.95 46.2415ZM333.412 44.5369C333.999 44.5369 334.501 44.4209 334.917 44.1889C335.339 43.9569 335.658 43.6539 335.876 43.2798C336.099 42.901 336.21 42.4962 336.21 42.0653V40.6591C336.134 40.7348 335.987 40.8059 335.77 40.8722C335.556 40.9337 335.313 40.9882 335.038 41.0355C334.763 41.0781 334.496 41.1184 334.235 41.1562C333.975 41.1894 333.757 41.2178 333.582 41.2415C333.17 41.2936 332.794 41.3812 332.453 41.5043C332.117 41.6274 331.847 41.8049 331.643 42.0369C331.444 42.2642 331.345 42.5672 331.345 42.946C331.345 43.4716 331.539 43.8693 331.927 44.1392C332.315 44.4044 332.81 44.5369 333.412 44.5369ZM345.246 46.2131C344.365 46.2131 343.579 45.9882 342.888 45.5384C342.201 45.0838 341.661 44.4375 341.268 43.5994C340.88 42.7566 340.686 41.7457 340.686 40.5668C340.686 39.3878 340.883 38.3793 341.276 37.5412C341.673 36.7031 342.218 36.0616 342.909 35.6165C343.6 35.1714 344.384 34.9489 345.26 34.9489C345.937 34.9489 346.482 35.0625 346.893 35.2898C347.31 35.5123 347.632 35.7727 347.859 36.071C348.091 36.3693 348.271 36.6321 348.399 36.8594H348.527V31.4545H350.651V46H348.577V44.3026H348.399C348.271 44.5346 348.087 44.7997 347.845 45.098C347.608 45.3963 347.282 45.6567 346.865 45.8793C346.448 46.1018 345.909 46.2131 345.246 46.2131ZM345.714 44.402C346.325 44.402 346.841 44.241 347.263 43.919C347.689 43.5923 348.011 43.1402 348.229 42.5625C348.451 41.9848 348.562 41.3125 348.562 40.5455C348.562 39.7879 348.454 39.125 348.236 38.5568C348.018 37.9886 347.698 37.5459 347.277 37.2287C346.856 36.9115 346.335 36.7528 345.714 36.7528C345.075 36.7528 344.543 36.9186 344.116 37.25C343.69 37.5814 343.368 38.0336 343.151 38.6065C342.938 39.1795 342.831 39.8258 342.831 40.5455C342.831 41.2746 342.94 41.9304 343.158 42.5128C343.375 43.0952 343.697 43.5568 344.124 43.8977C344.554 44.2339 345.085 44.402 345.714 44.402ZM358.277 46.2202C357.254 46.2202 356.361 45.9858 355.599 45.517C354.837 45.0483 354.245 44.3925 353.824 43.5497C353.402 42.7069 353.191 41.7221 353.191 40.5952C353.191 39.4635 353.402 38.474 353.824 37.6264C354.245 36.7789 354.837 36.1207 355.599 35.652C356.361 35.1832 357.254 34.9489 358.277 34.9489C359.299 34.9489 360.192 35.1832 360.954 35.652C361.717 36.1207 362.308 36.7789 362.73 37.6264C363.151 38.474 363.362 39.4635 363.362 40.5952C363.362 41.7221 363.151 42.7069 362.73 43.5497C362.308 44.3925 361.717 45.0483 360.954 45.517C360.192 45.9858 359.299 46.2202 358.277 46.2202ZM358.284 44.4375C358.947 44.4375 359.496 44.2623 359.931 43.9119C360.367 43.5616 360.689 43.0952 360.897 42.5128C361.11 41.9304 361.217 41.2888 361.217 40.5881C361.217 39.892 361.11 39.2528 360.897 38.6705C360.689 38.0833 360.367 37.6122 359.931 37.2571C359.496 36.902 358.947 36.7244 358.284 36.7244C357.616 36.7244 357.062 36.902 356.622 37.2571C356.186 37.6122 355.862 38.0833 355.649 38.6705C355.44 39.2528 355.336 39.892 355.336 40.5881C355.336 41.2888 355.44 41.9304 355.649 42.5128C355.862 43.0952 356.186 43.5616 356.622 43.9119C357.062 44.2623 357.616 44.4375 358.284 44.4375ZM375.62 46.2202C374.565 46.2202 373.655 45.9811 372.893 45.5028C372.136 45.0199 371.553 44.3546 371.146 43.5071C370.739 42.6596 370.535 41.6889 370.535 40.5952C370.535 39.4872 370.743 38.5095 371.16 37.6619C371.577 36.8097 372.164 36.1444 372.922 35.6662C373.679 35.188 374.572 34.9489 375.599 34.9489C376.428 34.9489 377.166 35.1027 377.815 35.4105C378.464 35.7135 378.987 36.1397 379.385 36.6889C379.787 37.2382 380.026 37.8797 380.102 38.6136H378.035C377.922 38.1023 377.661 37.6619 377.254 37.2926C376.851 36.9233 376.312 36.7386 375.635 36.7386C375.043 36.7386 374.524 36.8949 374.079 37.2074C373.639 37.5152 373.296 37.9555 373.049 38.5284C372.803 39.0966 372.68 39.7689 372.68 40.5455C372.68 41.3409 372.801 42.0275 373.042 42.6051C373.284 43.1828 373.625 43.6302 374.065 43.9474C374.51 44.2647 375.033 44.4233 375.635 44.4233C376.037 44.4233 376.402 44.3499 376.728 44.2031C377.06 44.0516 377.337 43.8362 377.559 43.5568C377.787 43.2775 377.945 42.9413 378.035 42.5483H380.102C380.026 43.2538 379.797 43.8835 379.413 44.4375C379.029 44.9915 378.516 45.4271 377.872 45.7443C377.233 46.0616 376.482 46.2202 375.62 46.2202ZM386.968 46.2202C385.945 46.2202 385.053 45.9858 384.29 45.517C383.528 45.0483 382.936 44.3925 382.515 43.5497C382.094 42.7069 381.883 41.7221 381.883 40.5952C381.883 39.4635 382.094 38.474 382.515 37.6264C382.936 36.7789 383.528 36.1207 384.29 35.652C385.053 35.1832 385.945 34.9489 386.968 34.9489C387.991 34.9489 388.883 35.1832 389.646 35.652C390.408 36.1207 391 36.7789 391.421 37.6264C391.843 38.474 392.053 39.4635 392.053 40.5952C392.053 41.7221 391.843 42.7069 391.421 43.5497C391 44.3925 390.408 45.0483 389.646 45.517C388.883 45.9858 387.991 46.2202 386.968 46.2202ZM386.975 44.4375C387.638 44.4375 388.187 44.2623 388.623 43.9119C389.058 43.5616 389.38 43.0952 389.589 42.5128C389.802 41.9304 389.908 41.2888 389.908 40.5881C389.908 39.892 389.802 39.2528 389.589 38.6705C389.38 38.0833 389.058 37.6122 388.623 37.2571C388.187 36.902 387.638 36.7244 386.975 36.7244C386.308 36.7244 385.754 36.902 385.313 37.2571C384.878 37.6122 384.553 38.0833 384.34 38.6705C384.132 39.2528 384.028 39.892 384.028 40.5881C384.028 41.2888 384.132 41.9304 384.34 42.5128C384.553 43.0952 384.878 43.5616 385.313 43.9119C385.754 44.2623 386.308 44.4375 386.975 44.4375ZM394.424 46V35.0909H396.476V36.8239H396.59C396.789 36.2367 397.139 35.7751 397.641 35.4389C398.148 35.098 398.721 34.9276 399.36 34.9276C399.492 34.9276 399.649 34.9323 399.828 34.9418C400.013 34.9512 400.158 34.9631 400.262 34.9773V37.0085C400.176 36.9848 400.025 36.9588 399.807 36.9304C399.589 36.8973 399.372 36.8807 399.154 36.8807C398.652 36.8807 398.204 36.9872 397.811 37.2003C397.423 37.4086 397.115 37.6998 396.888 38.0739C396.661 38.4432 396.547 38.8646 396.547 39.3381V46H394.424ZM402.099 46V35.0909H404.152V36.8239H404.266C404.464 36.2367 404.815 35.7751 405.317 35.4389C405.823 35.098 406.396 34.9276 407.036 34.9276C407.168 34.9276 407.324 34.9323 407.504 34.9418C407.689 34.9512 407.833 34.9631 407.938 34.9773V37.0085C407.852 36.9848 407.701 36.9588 407.483 36.9304C407.265 36.8973 407.047 36.8807 406.83 36.8807C406.328 36.8807 405.88 36.9872 405.487 37.2003C405.099 37.4086 404.791 37.6998 404.564 38.0739C404.337 38.4432 404.223 38.8646 404.223 39.3381V46H402.099ZM414.086 46.2202C413.011 46.2202 412.086 45.9905 411.309 45.5312C410.538 45.0672 409.941 44.4162 409.52 43.5781C409.103 42.7353 408.895 41.7481 408.895 40.6165C408.895 39.4991 409.103 38.5142 409.52 37.6619C409.941 36.8097 410.528 36.1444 411.281 35.6662C412.038 35.188 412.924 34.9489 413.937 34.9489C414.553 34.9489 415.149 35.0507 415.727 35.2543C416.305 35.4579 416.823 35.7775 417.282 36.2131C417.742 36.6487 418.104 37.2145 418.369 37.9105C418.634 38.6018 418.767 39.4422 418.767 40.4318V41.1847H410.095V39.5938H416.686C416.686 39.035 416.572 38.5402 416.345 38.1094C416.118 37.6738 415.798 37.3305 415.386 37.0795C414.979 36.8286 414.501 36.7031 413.951 36.7031C413.355 36.7031 412.834 36.8499 412.389 37.1435C411.949 37.4323 411.608 37.8111 411.366 38.2798C411.129 38.7438 411.011 39.2481 411.011 39.7926V41.0355C411.011 41.7647 411.139 42.3849 411.395 42.8963C411.655 43.4077 412.017 43.7983 412.481 44.0682C412.945 44.3333 413.487 44.4659 414.108 44.4659C414.51 44.4659 414.877 44.4091 415.208 44.2955C415.54 44.1771 415.826 44.0019 416.068 43.7699C416.309 43.5379 416.494 43.2514 416.622 42.9105L418.632 43.2727C418.471 43.8646 418.182 44.383 417.765 44.8281C417.353 45.2685 416.835 45.6117 416.21 45.858C415.59 46.0994 414.882 46.2202 414.086 46.2202ZM425.718 46.2202C424.662 46.2202 423.753 45.9811 422.991 45.5028C422.233 45.0199 421.651 44.3546 421.244 43.5071C420.836 42.6596 420.633 41.6889 420.633 40.5952C420.633 39.4872 420.841 38.5095 421.258 37.6619C421.674 36.8097 422.262 36.1444 423.019 35.6662C423.777 35.188 424.669 34.9489 425.697 34.9489C426.525 34.9489 427.264 35.1027 427.913 35.4105C428.561 35.7135 429.085 36.1397 429.482 36.6889C429.885 37.2382 430.124 37.8797 430.2 38.6136H428.133C428.019 38.1023 427.759 37.6619 427.352 37.2926C426.949 36.9233 426.409 36.7386 425.732 36.7386C425.14 36.7386 424.622 36.8949 424.177 37.2074C423.737 37.5152 423.393 37.9555 423.147 38.5284C422.901 39.0966 422.778 39.7689 422.778 40.5455C422.778 41.3409 422.898 42.0275 423.14 42.6051C423.381 43.1828 423.722 43.6302 424.163 43.9474C424.608 44.2647 425.131 44.4233 425.732 44.4233C426.135 44.4233 426.499 44.3499 426.826 44.2031C427.157 44.0516 427.434 43.8362 427.657 43.5568C427.884 43.2775 428.043 42.9413 428.133 42.5483H430.2C430.124 43.2538 429.894 43.8835 429.511 44.4375C429.127 44.9915 428.613 45.4271 427.969 45.7443C427.33 46.0616 426.58 46.2202 425.718 46.2202ZM437.563 35.0909V36.7955H431.604V35.0909H437.563ZM433.202 32.4773H435.326V42.7969C435.326 43.2088 435.387 43.5189 435.51 43.7273C435.633 43.9309 435.792 44.0705 435.986 44.1463C436.185 44.2173 436.4 44.2528 436.632 44.2528C436.803 44.2528 436.952 44.241 437.08 44.2173C437.208 44.1937 437.307 44.1747 437.378 44.1605L437.762 45.9148C437.639 45.9621 437.463 46.0095 437.236 46.0568C437.009 46.1089 436.725 46.1373 436.384 46.142C435.825 46.1515 435.304 46.0521 434.821 45.8438C434.338 45.6354 433.948 45.3134 433.65 44.8778C433.351 44.4422 433.202 43.8954 433.202 43.2372V32.4773ZM443.087 46.2415C442.395 46.2415 441.77 46.1136 441.212 45.858C440.653 45.5975 440.21 45.2211 439.884 44.7287C439.562 44.2363 439.401 43.6326 439.401 42.9176C439.401 42.3021 439.519 41.7955 439.756 41.3977C439.992 41 440.312 40.6851 440.714 40.4531C441.117 40.2211 441.567 40.0459 442.064 39.9276C442.561 39.8092 443.068 39.7192 443.584 39.6577C444.237 39.5819 444.768 39.5204 445.175 39.473C445.582 39.4209 445.878 39.3381 446.062 39.2244C446.247 39.1108 446.339 38.9261 446.339 38.6705V38.6207C446.339 38.0005 446.164 37.5199 445.814 37.179C445.468 36.8381 444.952 36.6676 444.266 36.6676C443.551 36.6676 442.987 36.8262 442.575 37.1435C442.168 37.456 441.886 37.804 441.73 38.1875L439.734 37.733C439.971 37.0701 440.317 36.535 440.771 36.1278C441.231 35.7159 441.759 35.4176 442.355 35.233C442.952 35.0436 443.579 34.9489 444.237 34.9489C444.673 34.9489 445.134 35.0009 445.622 35.1051C446.115 35.2045 446.574 35.3892 447 35.6591C447.431 35.929 447.784 36.3149 448.058 36.8168C448.333 37.3139 448.47 37.9602 448.47 38.7557V46H446.396V44.5085H446.311C446.174 44.7831 445.968 45.053 445.693 45.3182C445.419 45.5833 445.066 45.8035 444.635 45.9787C444.204 46.1539 443.688 46.2415 443.087 46.2415ZM443.548 44.5369C444.135 44.5369 444.637 44.4209 445.054 44.1889C445.475 43.9569 445.795 43.6539 446.013 43.2798C446.235 42.901 446.347 42.4962 446.347 42.0653V40.6591C446.271 40.7348 446.124 40.8059 445.906 40.8722C445.693 40.9337 445.449 40.9882 445.175 41.0355C444.9 41.0781 444.633 41.1184 444.372 41.1562C444.112 41.1894 443.894 41.2178 443.719 41.2415C443.307 41.2936 442.93 41.3812 442.589 41.5043C442.253 41.6274 441.983 41.8049 441.78 42.0369C441.581 42.2642 441.482 42.5672 441.482 42.946C441.482 43.4716 441.676 43.8693 442.064 44.1392C442.452 44.4044 442.947 44.5369 443.548 44.5369ZM451.299 46V35.0909H453.337V36.8665H453.472C453.699 36.2652 454.071 35.7964 454.587 35.4602C455.103 35.1193 455.721 34.9489 456.441 34.9489C457.17 34.9489 457.781 35.1193 458.273 35.4602C458.77 35.8011 459.137 36.2699 459.374 36.8665H459.488C459.748 36.2841 460.162 35.8201 460.73 35.4744C461.299 35.1241 461.976 34.9489 462.762 34.9489C463.751 34.9489 464.559 35.259 465.184 35.8793C465.813 36.4995 466.128 37.4347 466.128 38.6847V46H464.005V38.8835C464.005 38.1449 463.803 37.6098 463.401 37.2784C462.998 36.947 462.518 36.7812 461.959 36.7812C461.268 36.7812 460.73 36.9943 460.347 37.4205C459.963 37.8419 459.772 38.384 459.772 39.0469V46H457.655V38.7486C457.655 38.1567 457.471 37.6809 457.101 37.321C456.732 36.9612 456.251 36.7812 455.659 36.7812C455.257 36.7812 454.885 36.8878 454.544 37.1009C454.208 37.3092 453.936 37.6004 453.728 37.9744C453.524 38.3485 453.422 38.7817 453.422 39.2741V46H451.299ZM473.676 46.2202C472.601 46.2202 471.676 45.9905 470.899 45.5312C470.127 45.0672 469.531 44.4162 469.109 43.5781C468.693 42.7353 468.484 41.7481 468.484 40.6165C468.484 39.4991 468.693 38.5142 469.109 37.6619C469.531 36.8097 470.118 36.1444 470.871 35.6662C471.628 35.188 472.514 34.9489 473.527 34.9489C474.143 34.9489 474.739 35.0507 475.317 35.2543C475.894 35.4579 476.413 35.7775 476.872 36.2131C477.331 36.6487 477.694 37.2145 477.959 37.9105C478.224 38.6018 478.357 39.4422 478.357 40.4318V41.1847H469.685V39.5938H476.276C476.276 39.035 476.162 38.5402 475.935 38.1094C475.707 37.6738 475.388 37.3305 474.976 37.0795C474.569 36.8286 474.09 36.7031 473.541 36.7031C472.945 36.7031 472.424 36.8499 471.979 37.1435C471.538 37.4323 471.197 37.8111 470.956 38.2798C470.719 38.7438 470.601 39.2481 470.601 39.7926V41.0355C470.601 41.7647 470.729 42.3849 470.984 42.8963C471.245 43.4077 471.607 43.7983 472.071 44.0682C472.535 44.3333 473.077 44.4659 473.697 44.4659C474.1 44.4659 474.467 44.4091 474.798 44.2955C475.13 44.1771 475.416 44.0019 475.658 43.7699C475.899 43.5379 476.084 43.2514 476.212 42.9105L478.222 43.2727C478.061 43.8646 477.772 44.383 477.355 44.8281C476.943 45.2685 476.425 45.6117 475.8 45.858C475.179 46.0994 474.472 46.2202 473.676 46.2202ZM482.836 39.5227V46H480.713V35.0909H482.751V36.8665H482.886C483.137 36.2888 483.53 35.8248 484.065 35.4744C484.605 35.1241 485.284 34.9489 486.103 34.9489C486.847 34.9489 487.498 35.1051 488.056 35.4176C488.615 35.7254 489.048 36.1847 489.356 36.7955C489.664 37.4062 489.818 38.1615 489.818 39.0611V46H487.694V39.3168C487.694 38.526 487.488 37.9081 487.076 37.4631C486.664 37.0133 486.099 36.7884 485.379 36.7884C484.886 36.7884 484.449 36.8949 484.065 37.108C483.686 37.321 483.386 37.6335 483.163 38.0455C482.945 38.4527 482.836 38.9451 482.836 39.5227ZM497.758 35.0909V36.7955H491.799V35.0909H497.758ZM493.397 32.4773H495.521V42.7969C495.521 43.2088 495.583 43.5189 495.706 43.7273C495.829 43.9309 495.987 44.0705 496.181 44.1463C496.38 44.2173 496.596 44.2528 496.828 44.2528C496.998 44.2528 497.147 44.241 497.275 44.2173C497.403 44.1937 497.502 44.1747 497.574 44.1605L497.957 45.9148C497.834 45.9621 497.659 46.0095 497.431 46.0568C497.204 46.1089 496.92 46.1373 496.579 46.142C496.02 46.1515 495.5 46.0521 495.017 45.8438C494.534 45.6354 494.143 45.3134 493.845 44.8778C493.547 44.4422 493.397 43.8954 493.397 43.2372V32.4773ZM504.692 46.2202C503.617 46.2202 502.691 45.9905 501.915 45.5312C501.143 45.0672 500.546 44.4162 500.125 43.5781C499.708 42.7353 499.5 41.7481 499.5 40.6165C499.5 39.4991 499.708 38.5142 500.125 37.6619C500.546 36.8097 501.134 36.1444 501.886 35.6662C502.644 35.188 503.529 34.9489 504.543 34.9489C505.158 34.9489 505.755 35.0507 506.332 35.2543C506.91 35.4579 507.429 35.7775 507.888 36.2131C508.347 36.6487 508.709 37.2145 508.974 37.9105C509.24 38.6018 509.372 39.4422 509.372 40.4318V41.1847H500.7V39.5938H507.291C507.291 39.035 507.178 38.5402 506.95 38.1094C506.723 37.6738 506.403 37.3305 505.991 37.0795C505.584 36.8286 505.106 36.7031 504.557 36.7031C503.96 36.7031 503.439 36.8499 502.994 37.1435C502.554 37.4323 502.213 37.8111 501.972 38.2798C501.735 38.7438 501.616 39.2481 501.616 39.7926V41.0355C501.616 41.7647 501.744 42.3849 502 42.8963C502.26 43.4077 502.623 43.7983 503.087 44.0682C503.551 44.3333 504.093 44.4659 504.713 44.4659C505.116 44.4659 505.482 44.4091 505.814 44.2955C506.145 44.1771 506.432 44.0019 506.673 43.7699C506.915 43.5379 507.099 43.2514 507.227 42.9105L509.237 43.2727C509.076 43.8646 508.787 44.383 508.371 44.8281C507.959 45.2685 507.44 45.6117 506.815 45.858C506.195 46.0994 505.487 46.2202 504.692 46.2202Z" fill="white"/>
<g filter="url(#filter0_d_1_12)">
<path d="M53.8334 40C53.8334 51.5052 44.5052 60.8333 33 60.8333C21.4948 60.8333 12.1667 51.5052 12.1667 40C12.1667 28.4948 21.4948 19.1667 33 19.1667C44.5052 19.1667 53.8334 28.4948 53.8334 40Z" fill="url(#paint0_linear_1_12)"/>
<path d="M30.1802 49.0698L21.8469 40.7365C21.4396 40.3292 21.4396 39.6698 21.8469 39.2635L23.3198 37.7906C23.7271 37.3833 24.3864 37.3833 24.7927 37.7906L30.9166 43.9146L42.2489 32.5823C42.6562 32.175 43.3156 32.175 43.7219 32.5823L45.1948 34.0552C45.6021 34.4625 45.6021 35.1219 45.1948 35.5281L31.6531 49.0698C31.2469 49.4771 30.5864 49.4771 30.1802 49.0698Z" fill="url(#paint1_linear_1_12)"/>
</g>
<defs>
<filter id="filter0_d_1_12" x="-2" y="9" width="70" height="70" filterUnits="userSpaceOnUse" color-interpolation-filters="sRGB">
<feFlood flood-opacity="0" result="BackgroundImageFix"/>
<feColorMatrix in="SourceAlpha" type="matrix" values="0 0 0 0 0 0 0 0 0 0 0 0 0 0 0 0 0 0 127 0" result="hardAlpha"/>
<feOffset dy="4"/>
<feGaussianBlur stdDeviation="5"/>
<feComposite in2="hardAlpha" operator="out"/>
<feColorMatrix type="matrix" values="0 0 0 0 0 0 0 0 0 0 0 0 0 0 0 0 0 0 0.25 0"/>
<feBlend mode="normal" in2="BackgroundImageFix" result="effect1_dropShadow_1_12"/>
<feBlend mode="normal" in="SourceGraphic" in2="effect1_dropShadow_1_12" result="shape"/>
</filter>
<linearGradient id="paint0_linear_1_12" x1="18.2688" y1="25.2687" x2="47.7313" y2="54.7312" gradientUnits="userSpaceOnUse">
<stop stop-color="#9DFFCE"/>
<stop offset="1" stop-color="#50D18D"/>
</linearGradient>
<linearGradient id="paint1_linear_1_12" x1="21.5416" y1="40.826" x2="45.5" y2="40.826" gradientUnits="userSpaceOnUse">
<stop offset="0.824" stop-color="#10828D"/>
<stop offset="1" stop-color="#10828D"/>
</linearGradient>
</defs>
</svg>
