<svg width="511" height="80" viewBox="0 0 511 80" fill="none" xmlns="http://www.w3.org/2000/svg">
<rect width="461" height="80" rx="18" fill="#68CA3A"/>
<path d="M73.598 46V31.4545H78.7827C79.9096 31.4545 80.8447 31.6487 81.5881 32.0369C82.3362 32.4252 82.8949 32.9626 83.2642 33.6491C83.6335 34.331 83.8182 35.1193 83.8182 36.0142C83.8182 36.9044 83.6312 37.688 83.2571 38.3651C82.8878 39.0374 82.3291 39.5606 81.581 39.9347C80.8376 40.3087 79.9025 40.4957 78.7756 40.4957H74.848V38.6065H78.5767C79.2869 38.6065 79.8646 38.5047 80.3097 38.3011C80.7595 38.0975 81.0885 37.8016 81.2969 37.4134C81.5052 37.0251 81.6094 36.5587 81.6094 36.0142C81.6094 35.465 81.5028 34.9891 81.2898 34.5866C81.0814 34.1842 80.7524 33.8764 80.3026 33.6634C79.8575 33.4455 79.2727 33.3366 78.5483 33.3366H75.7926V46H73.598ZM80.7784 39.4375L84.3722 46H81.8722L78.3494 39.4375H80.7784ZM90.8832 46.2202C89.8084 46.2202 88.8827 45.9905 88.1062 45.5312C87.3344 45.0672 86.7378 44.4162 86.3164 43.5781C85.8997 42.7353 85.6914 41.7481 85.6914 40.6165C85.6914 39.4991 85.8997 38.5142 86.3164 37.6619C86.7378 36.8097 87.3249 36.1444 88.0778 35.6662C88.8353 35.188 89.7208 34.9489 90.734 34.9489C91.3496 34.9489 91.9461 35.0507 92.5238 35.2543C93.1014 35.4579 93.6199 35.7775 94.0792 36.2131C94.5385 36.6487 94.9007 37.2145 95.1658 37.9105C95.431 38.6018 95.5636 39.4422 95.5636 40.4318V41.1847H86.8917V39.5938H93.4826C93.4826 39.035 93.369 38.5402 93.1417 38.1094C92.9144 37.6738 92.5948 37.3305 92.1829 37.0795C91.7757 36.8286 91.2975 36.7031 90.7482 36.7031C90.1516 36.7031 89.6308 36.8499 89.1857 37.1435C88.7454 37.4323 88.4045 37.8111 88.163 38.2798C87.9263 38.7438 87.8079 39.2481 87.8079 39.7926V41.0355C87.8079 41.7647 87.9357 42.3849 88.1914 42.8963C88.4518 43.4077 88.814 43.7983 89.2781 44.0682C89.7421 44.3333 90.2842 44.4659 90.9045 44.4659C91.3069 44.4659 91.6739 44.4091 92.0053 44.2955C92.3368 44.1771 92.6232 44.0019 92.8647 43.7699C93.1062 43.5379 93.2908 43.2514 93.4187 42.9105L95.4286 43.2727C95.2676 43.8646 94.9788 44.383 94.5621 44.8281C94.1502 45.2685 93.6317 45.6117 93.0067 45.858C92.3865 46.0994 91.6786 46.2202 90.8832 46.2202ZM102.494 50.3182C101.627 50.3182 100.881 50.2045 100.256 49.9773C99.6361 49.75 99.1295 49.4493 98.7365 49.0753C98.3435 48.7012 98.05 48.2917 97.8558 47.8466L99.6811 47.0938C99.8089 47.3021 99.9794 47.5223 100.192 47.7543C100.41 47.991 100.704 48.1922 101.073 48.358C101.447 48.5237 101.928 48.6065 102.515 48.6065C103.32 48.6065 103.985 48.41 104.511 48.017C105.036 47.6288 105.299 47.0085 105.299 46.1562V44.0114H105.164C105.036 44.2434 104.852 44.5014 104.61 44.7855C104.373 45.0696 104.047 45.3158 103.63 45.5241C103.213 45.7325 102.671 45.8366 102.004 45.8366C101.142 45.8366 100.365 45.6354 99.674 45.233C98.9875 44.8258 98.4429 44.2268 98.0405 43.4361C97.6428 42.6406 97.4439 41.6629 97.4439 40.5028C97.4439 39.3428 97.6404 38.3485 98.0334 37.5199C98.4311 36.6913 98.9756 36.0568 99.6669 35.6165C100.358 35.1714 101.142 34.9489 102.018 34.9489C102.695 34.9489 103.242 35.0625 103.658 35.2898C104.075 35.5123 104.399 35.7727 104.631 36.071C104.868 36.3693 105.05 36.6321 105.178 36.8594H105.335V35.0909H107.415V46.2415C107.415 47.179 107.198 47.9484 106.762 48.5497C106.326 49.151 105.737 49.5961 104.994 49.8849C104.255 50.1738 103.422 50.3182 102.494 50.3182ZM102.472 44.0753C103.083 44.0753 103.599 43.9332 104.021 43.6491C104.447 43.3603 104.769 42.9484 104.987 42.4134C105.209 41.8736 105.32 41.2273 105.32 40.4744C105.32 39.7405 105.211 39.0942 104.994 38.5355C104.776 37.9768 104.456 37.5412 104.035 37.2287C103.613 36.9115 103.093 36.7528 102.472 36.7528C101.833 36.7528 101.3 36.9186 100.874 37.25C100.448 37.5767 100.126 38.0218 99.9084 38.5852C99.6953 39.1487 99.5888 39.7784 99.5888 40.4744C99.5888 41.1894 99.6977 41.8168 99.9155 42.3565C100.133 42.8963 100.455 43.3177 100.881 43.6207C101.312 43.9238 101.843 44.0753 102.472 44.0753ZM110.263 46V35.0909H112.387V46H110.263ZM111.336 33.4077C110.967 33.4077 110.649 33.2846 110.384 33.0384C110.124 32.7874 109.994 32.4891 109.994 32.1435C109.994 31.7931 110.124 31.4948 110.384 31.2486C110.649 30.9976 110.967 30.8722 111.336 30.8722C111.705 30.8722 112.02 30.9976 112.281 31.2486C112.546 31.4948 112.678 31.7931 112.678 32.1435C112.678 32.4891 112.546 32.7874 112.281 33.0384C112.02 33.2846 111.705 33.4077 111.336 33.4077ZM123.419 37.7543L121.494 38.0952C121.413 37.849 121.286 37.6146 121.11 37.392C120.94 37.1695 120.708 36.9872 120.414 36.8452C120.121 36.7031 119.754 36.6321 119.314 36.6321C118.712 36.6321 118.21 36.767 117.808 37.0369C117.405 37.3021 117.204 37.6454 117.204 38.0668C117.204 38.4313 117.339 38.7249 117.609 38.9474C117.879 39.17 118.315 39.3523 118.916 39.4943L120.649 39.892C121.653 40.1241 122.401 40.4815 122.893 40.9645C123.386 41.4474 123.632 42.0748 123.632 42.8466C123.632 43.5 123.442 44.0824 123.064 44.5938C122.69 45.1004 122.166 45.4981 121.494 45.7869C120.826 46.0758 120.052 46.2202 119.172 46.2202C117.95 46.2202 116.953 45.9598 116.181 45.4389C115.41 44.9134 114.936 44.1676 114.761 43.2017L116.814 42.8892C116.941 43.4242 117.204 43.8291 117.602 44.1037C118 44.3736 118.518 44.5085 119.157 44.5085C119.853 44.5085 120.41 44.3641 120.826 44.0753C121.243 43.7817 121.451 43.4242 121.451 43.0028C121.451 42.6619 121.324 42.3755 121.068 42.1435C120.817 41.9115 120.431 41.7363 119.91 41.6179L118.064 41.2131C117.046 40.9811 116.293 40.6117 115.805 40.1051C115.322 39.5985 115.081 38.9569 115.081 38.1804C115.081 37.5365 115.261 36.973 115.62 36.4901C115.98 36.0071 116.477 35.6307 117.112 35.3608C117.746 35.0862 118.473 34.9489 119.292 34.9489C120.471 34.9489 121.399 35.2045 122.076 35.7159C122.753 36.2225 123.201 36.902 123.419 37.7543ZM131.059 35.0909V36.7955H125.1V35.0909H131.059ZM126.698 32.4773H128.822V42.7969C128.822 43.2088 128.883 43.5189 129.006 43.7273C129.129 43.9309 129.288 44.0705 129.482 44.1463C129.681 44.2173 129.897 44.2528 130.129 44.2528C130.299 44.2528 130.448 44.241 130.576 44.2173C130.704 44.1937 130.803 44.1747 130.874 44.1605L131.258 45.9148C131.135 45.9621 130.96 46.0095 130.732 46.0568C130.505 46.1089 130.221 46.1373 129.88 46.142C129.321 46.1515 128.8 46.0521 128.317 45.8438C127.835 45.6354 127.444 45.3134 127.146 44.8778C126.847 44.4422 126.698 43.8954 126.698 43.2372V32.4773ZM133.408 46V35.0909H135.461V36.8239H135.574C135.773 36.2367 136.123 35.7751 136.625 35.4389C137.132 35.098 137.705 34.9276 138.344 34.9276C138.477 34.9276 138.633 34.9323 138.813 34.9418C138.998 34.9512 139.142 34.9631 139.246 34.9773V37.0085C139.161 36.9848 139.009 36.9588 138.792 36.9304C138.574 36.8973 138.356 36.8807 138.138 36.8807C137.636 36.8807 137.189 36.9872 136.796 37.2003C136.408 37.4086 136.1 37.6998 135.873 38.0739C135.645 38.4432 135.532 38.8646 135.532 39.3381V46H133.408ZM145.288 46.2202C144.266 46.2202 143.373 45.9858 142.611 45.517C141.848 45.0483 141.257 44.3925 140.835 43.5497C140.414 42.7069 140.203 41.7221 140.203 40.5952C140.203 39.4635 140.414 38.474 140.835 37.6264C141.257 36.7789 141.848 36.1207 142.611 35.652C143.373 35.1832 144.266 34.9489 145.288 34.9489C146.311 34.9489 147.204 35.1832 147.966 35.652C148.728 36.1207 149.32 36.7789 149.741 37.6264C150.163 38.474 150.374 39.4635 150.374 40.5952C150.374 41.7221 150.163 42.7069 149.741 43.5497C149.32 44.3925 148.728 45.0483 147.966 45.517C147.204 45.9858 146.311 46.2202 145.288 46.2202ZM145.295 44.4375C145.958 44.4375 146.508 44.2623 146.943 43.9119C147.379 43.5616 147.701 43.0952 147.909 42.5128C148.122 41.9304 148.229 41.2888 148.229 40.5881C148.229 39.892 148.122 39.2528 147.909 38.6705C147.701 38.0833 147.379 37.6122 146.943 37.2571C146.508 36.902 145.958 36.7244 145.295 36.7244C144.628 36.7244 144.074 36.902 143.634 37.2571C143.198 37.6122 142.874 38.0833 142.661 38.6705C142.452 39.2528 142.348 39.892 142.348 40.5881C142.348 41.2888 142.452 41.9304 142.661 42.5128C142.874 43.0952 143.198 43.5616 143.634 43.9119C144.074 44.2623 144.628 44.4375 145.295 44.4375ZM159.436 46H157.107L162.341 31.4545H164.876L170.111 46H167.781L163.669 34.0966H163.555L159.436 46ZM159.827 40.304H167.384V42.1506H159.827V40.304ZM176.46 46.2202C175.404 46.2202 174.495 45.9811 173.733 45.5028C172.975 45.0199 172.393 44.3546 171.986 43.5071C171.579 42.6596 171.375 41.6889 171.375 40.5952C171.375 39.4872 171.583 38.5095 172 37.6619C172.417 36.8097 173.004 36.1444 173.761 35.6662C174.519 35.188 175.411 34.9489 176.439 34.9489C177.268 34.9489 178.006 35.1027 178.655 35.4105C179.304 35.7135 179.827 36.1397 180.224 36.6889C180.627 37.2382 180.866 37.8797 180.942 38.6136H178.875C178.761 38.1023 178.501 37.6619 178.094 37.2926C177.691 36.9233 177.152 36.7386 176.474 36.7386C175.883 36.7386 175.364 36.8949 174.919 37.2074C174.479 37.5152 174.135 37.9555 173.889 38.5284C173.643 39.0966 173.52 39.7689 173.52 40.5455C173.52 41.3409 173.641 42.0275 173.882 42.6051C174.124 43.1828 174.464 43.6302 174.905 43.9474C175.35 44.2647 175.873 44.4233 176.474 44.4233C176.877 44.4233 177.241 44.3499 177.568 44.2031C177.9 44.0516 178.177 43.8362 178.399 43.5568C178.626 43.2775 178.785 42.9413 178.875 42.5483H180.942C180.866 43.2538 180.636 43.8835 180.253 44.4375C179.869 44.9915 179.356 45.4271 178.712 45.7443C178.072 46.0616 177.322 46.2202 176.46 46.2202ZM188.305 35.0909V36.7955H182.346V35.0909H188.305ZM183.944 32.4773H186.068V42.7969C186.068 43.2088 186.129 43.5189 186.252 43.7273C186.376 43.9309 186.534 44.0705 186.728 44.1463C186.927 44.2173 187.143 44.2528 187.375 44.2528C187.545 44.2528 187.694 44.241 187.822 44.2173C187.95 44.1937 188.049 44.1747 188.12 44.1605L188.504 45.9148C188.381 45.9621 188.206 46.0095 187.978 46.0568C187.751 46.1089 187.467 46.1373 187.126 46.142C186.567 46.1515 186.047 46.0521 185.564 45.8438C185.081 45.6354 184.69 45.3134 184.392 44.8778C184.093 44.4422 183.944 43.8954 183.944 43.2372V32.4773ZM197.565 41.4759V35.0909H199.695V46H197.607V44.1108H197.494C197.243 44.6932 196.84 45.1785 196.286 45.5668C195.737 45.9503 195.053 46.142 194.234 46.142C193.533 46.142 192.913 45.9882 192.373 45.6804C191.838 45.3679 191.416 44.9062 191.109 44.2955C190.806 43.6847 190.654 42.9295 190.654 42.0298V35.0909H192.778V41.7741C192.778 42.5175 192.984 43.1094 193.396 43.5497C193.808 43.9901 194.343 44.2102 195.001 44.2102C195.398 44.2102 195.794 44.1108 196.187 43.9119C196.585 43.7131 196.914 43.4124 197.174 43.0099C197.439 42.6075 197.569 42.0961 197.565 41.4759ZM205.723 46.2415C205.032 46.2415 204.407 46.1136 203.848 45.858C203.29 45.5975 202.847 45.2211 202.52 44.7287C202.198 44.2363 202.037 43.6326 202.037 42.9176C202.037 42.3021 202.156 41.7955 202.392 41.3977C202.629 41 202.949 40.6851 203.351 40.4531C203.754 40.2211 204.203 40.0459 204.701 39.9276C205.198 39.8092 205.704 39.7192 206.221 39.6577C206.874 39.5819 207.404 39.5204 207.811 39.473C208.219 39.4209 208.515 39.3381 208.699 39.2244C208.884 39.1108 208.976 38.9261 208.976 38.6705V38.6207C208.976 38.0005 208.801 37.5199 208.451 37.179C208.105 36.8381 207.589 36.6676 206.902 36.6676C206.187 36.6676 205.624 36.8262 205.212 37.1435C204.805 37.456 204.523 37.804 204.367 38.1875L202.371 37.733C202.608 37.0701 202.953 36.535 203.408 36.1278C203.867 35.7159 204.395 35.4176 204.992 35.233C205.588 35.0436 206.216 34.9489 206.874 34.9489C207.31 34.9489 207.771 35.0009 208.259 35.1051C208.751 35.2045 209.211 35.3892 209.637 35.6591C210.068 35.929 210.42 36.3149 210.695 36.8168C210.97 37.3139 211.107 37.9602 211.107 38.7557V46H209.033V44.5085H208.948C208.81 44.7831 208.605 45.053 208.33 45.3182C208.055 45.5833 207.703 45.8035 207.272 45.9787C206.841 46.1539 206.325 46.2415 205.723 46.2415ZM206.185 44.5369C206.772 44.5369 207.274 44.4209 207.691 44.1889C208.112 43.9569 208.432 43.6539 208.65 43.2798C208.872 42.901 208.983 42.4962 208.983 42.0653V40.6591C208.908 40.7348 208.761 40.8059 208.543 40.8722C208.33 40.9337 208.086 40.9882 207.811 41.0355C207.537 41.0781 207.269 41.1184 207.009 41.1562C206.748 41.1894 206.531 41.2178 206.355 41.2415C205.944 41.2936 205.567 41.3812 205.226 41.5043C204.89 41.6274 204.62 41.8049 204.417 42.0369C204.218 42.2642 204.118 42.5672 204.118 42.946C204.118 43.4716 204.312 43.8693 204.701 44.1392C205.089 44.4044 205.584 44.5369 206.185 44.5369ZM216.059 31.4545V46H213.935V31.4545H216.059ZM218.916 46V35.0909H221.039V46H218.916ZM219.988 33.4077C219.619 33.4077 219.302 33.2846 219.037 33.0384C218.776 32.7874 218.646 32.4891 218.646 32.1435C218.646 31.7931 218.776 31.4948 219.037 31.2486C219.302 30.9976 219.619 30.8722 219.988 30.8722C220.358 30.8722 220.672 30.9976 220.933 31.2486C221.198 31.4948 221.331 31.7931 221.331 32.1435C221.331 32.4891 221.198 32.7874 220.933 33.0384C220.672 33.2846 220.358 33.4077 219.988 33.4077ZM223.669 46V44.544L229.578 37.0369V36.9375H223.861V35.0909H232.227V36.6392L226.545 44.054V44.1534H232.426V46H223.669ZM238.106 46.2415C237.415 46.2415 236.79 46.1136 236.231 45.858C235.672 45.5975 235.23 45.2211 234.903 44.7287C234.581 44.2363 234.42 43.6326 234.42 42.9176C234.42 42.3021 234.538 41.7955 234.775 41.3977C235.012 41 235.332 40.6851 235.734 40.4531C236.136 40.2211 236.586 40.0459 237.083 39.9276C237.581 39.8092 238.087 39.7192 238.603 39.6577C239.257 39.5819 239.787 39.5204 240.194 39.473C240.601 39.4209 240.897 39.3381 241.082 39.2244C241.267 39.1108 241.359 38.9261 241.359 38.6705V38.6207C241.359 38.0005 241.184 37.5199 240.833 37.179C240.488 36.8381 239.972 36.6676 239.285 36.6676C238.57 36.6676 238.007 36.8262 237.595 37.1435C237.188 37.456 236.906 37.804 236.75 38.1875L234.754 37.733C234.991 37.0701 235.336 36.535 235.791 36.1278C236.25 35.7159 236.778 35.4176 237.375 35.233C237.971 35.0436 238.599 34.9489 239.257 34.9489C239.692 34.9489 240.154 35.0009 240.642 35.1051C241.134 35.2045 241.593 35.3892 242.02 35.6591C242.45 35.929 242.803 36.3149 243.078 36.8168C243.352 37.3139 243.49 37.9602 243.49 38.7557V46H241.416V44.5085H241.331C241.193 44.7831 240.987 45.053 240.713 45.3182C240.438 45.5833 240.085 45.8035 239.654 45.9787C239.224 46.1539 238.708 46.2415 238.106 46.2415ZM238.568 44.5369C239.155 44.5369 239.657 44.4209 240.074 44.1889C240.495 43.9569 240.815 43.6539 241.032 43.2798C241.255 42.901 241.366 42.4962 241.366 42.0653V40.6591C241.29 40.7348 241.144 40.8059 240.926 40.8722C240.713 40.9337 240.469 40.9882 240.194 41.0355C239.92 41.0781 239.652 41.1184 239.392 41.1562C239.131 41.1894 238.913 41.2178 238.738 41.2415C238.326 41.2936 237.95 41.3812 237.609 41.5043C237.273 41.6274 237.003 41.8049 236.799 42.0369C236.6 42.2642 236.501 42.5672 236.501 42.946C236.501 43.4716 236.695 43.8693 237.083 44.1392C237.472 44.4044 237.967 44.5369 238.568 44.5369ZM250.402 46.2131C249.521 46.2131 248.735 45.9882 248.044 45.5384C247.357 45.0838 246.818 44.4375 246.425 43.5994C246.036 42.7566 245.842 41.7457 245.842 40.5668C245.842 39.3878 246.039 38.3793 246.432 37.5412C246.83 36.7031 247.374 36.0616 248.065 35.6165C248.757 35.1714 249.54 34.9489 250.416 34.9489C251.093 34.9489 251.638 35.0625 252.05 35.2898C252.466 35.5123 252.788 35.7727 253.016 36.071C253.248 36.3693 253.428 36.6321 253.555 36.8594H253.683V31.4545H255.807V46H253.733V44.3026H253.555C253.428 44.5346 253.243 44.7997 253.001 45.098C252.765 45.3963 252.438 45.6567 252.021 45.8793C251.605 46.1018 251.065 46.2131 250.402 46.2131ZM250.871 44.402C251.482 44.402 251.998 44.241 252.419 43.919C252.845 43.5923 253.167 43.1402 253.385 42.5625C253.607 41.9848 253.719 41.3125 253.719 40.5455C253.719 39.7879 253.61 39.125 253.392 38.5568C253.174 37.9886 252.855 37.5459 252.433 37.2287C252.012 36.9115 251.491 36.7528 250.871 36.7528C250.232 36.7528 249.699 36.9186 249.273 37.25C248.847 37.5814 248.525 38.0336 248.307 38.6065C248.094 39.1795 247.987 39.8258 247.987 40.5455C247.987 41.2746 248.096 41.9304 248.314 42.5128C248.532 43.0952 248.854 43.5568 249.28 43.8977C249.711 44.2339 250.241 44.402 250.871 44.402ZM263.433 46.2202C262.41 46.2202 261.518 45.9858 260.755 45.517C259.993 45.0483 259.401 44.3925 258.98 43.5497C258.558 42.7069 258.348 41.7221 258.348 40.5952C258.348 39.4635 258.558 38.474 258.98 37.6264C259.401 36.7789 259.993 36.1207 260.755 35.652C261.518 35.1832 262.41 34.9489 263.433 34.9489C264.456 34.9489 265.348 35.1832 266.11 35.652C266.873 36.1207 267.465 36.7789 267.886 37.6264C268.307 38.474 268.518 39.4635 268.518 40.5952C268.518 41.7221 268.307 42.7069 267.886 43.5497C267.465 44.3925 266.873 45.0483 266.11 45.517C265.348 45.9858 264.456 46.2202 263.433 46.2202ZM263.44 44.4375C264.103 44.4375 264.652 44.2623 265.088 43.9119C265.523 43.5616 265.845 43.0952 266.054 42.5128C266.267 41.9304 266.373 41.2888 266.373 40.5881C266.373 39.892 266.267 39.2528 266.054 38.6705C265.845 38.0833 265.523 37.6122 265.088 37.2571C264.652 36.902 264.103 36.7244 263.44 36.7244C262.772 36.7244 262.218 36.902 261.778 37.2571C261.342 37.6122 261.018 38.0833 260.805 38.6705C260.597 39.2528 260.493 39.892 260.493 40.5881C260.493 41.2888 260.597 41.9304 260.805 42.5128C261.018 43.0952 261.342 43.5616 261.778 43.9119C262.218 44.2623 262.772 44.4375 263.44 44.4375ZM288.433 36.1847H286.217C286.132 35.7112 285.973 35.2945 285.741 34.9347C285.509 34.5748 285.225 34.2694 284.889 34.0185C284.553 33.7675 284.176 33.5781 283.76 33.4503C283.348 33.3224 282.91 33.2585 282.446 33.2585C281.608 33.2585 280.857 33.4692 280.194 33.8906C279.536 34.312 279.015 34.9299 278.632 35.7443C278.253 36.5587 278.064 37.553 278.064 38.7273C278.064 39.911 278.253 40.91 278.632 41.7244C279.015 42.5388 279.538 43.1544 280.201 43.571C280.864 43.9877 281.61 44.196 282.439 44.196C282.898 44.196 283.333 44.1345 283.745 44.0114C284.162 43.8835 284.538 43.6965 284.875 43.4503C285.211 43.2041 285.495 42.9034 285.727 42.5483C285.964 42.1884 286.127 41.7765 286.217 41.3125L288.433 41.3196C288.315 42.0346 288.085 42.6927 287.744 43.294C287.408 43.8906 286.975 44.4067 286.444 44.8423C285.919 45.2732 285.317 45.607 284.64 45.8438C283.963 46.0805 283.225 46.1989 282.424 46.1989C281.165 46.1989 280.043 45.9006 279.058 45.304C278.073 44.7027 277.297 43.8433 276.728 42.7259C276.165 41.6084 275.883 40.2756 275.883 38.7273C275.883 37.1742 276.167 35.8414 276.735 34.7287C277.304 33.6113 278.08 32.7543 279.065 32.1577C280.05 31.5563 281.17 31.2557 282.424 31.2557C283.196 31.2557 283.916 31.367 284.583 31.5895C285.256 31.8073 285.859 32.1293 286.395 32.5554C286.93 32.9768 287.372 33.4929 287.723 34.1037C288.073 34.7098 288.31 35.4034 288.433 36.1847ZM295.484 46.2202C294.461 46.2202 293.568 45.9858 292.806 45.517C292.044 45.0483 291.452 44.3925 291.031 43.5497C290.609 42.7069 290.398 41.7221 290.398 40.5952C290.398 39.4635 290.609 38.474 291.031 37.6264C291.452 36.7789 292.044 36.1207 292.806 35.652C293.568 35.1832 294.461 34.9489 295.484 34.9489C296.506 34.9489 297.399 35.1832 298.161 35.652C298.924 36.1207 299.515 36.7789 299.937 37.6264C300.358 38.474 300.569 39.4635 300.569 40.5952C300.569 41.7221 300.358 42.7069 299.937 43.5497C299.515 44.3925 298.924 45.0483 298.161 45.517C297.399 45.9858 296.506 46.2202 295.484 46.2202ZM295.491 44.4375C296.154 44.4375 296.703 44.2623 297.138 43.9119C297.574 43.5616 297.896 43.0952 298.104 42.5128C298.317 41.9304 298.424 41.2888 298.424 40.5881C298.424 39.892 298.317 39.2528 298.104 38.6705C297.896 38.0833 297.574 37.6122 297.138 37.2571C296.703 36.902 296.154 36.7244 295.491 36.7244C294.823 36.7244 294.269 36.902 293.829 37.2571C293.393 37.6122 293.069 38.0833 292.856 38.6705C292.647 39.2528 292.543 39.892 292.543 40.5881C292.543 41.2888 292.647 41.9304 292.856 42.5128C293.069 43.0952 293.393 43.5616 293.829 43.9119C294.269 44.2623 294.823 44.4375 295.491 44.4375ZM302.939 46V35.0909H304.992V36.8239H305.105C305.304 36.2367 305.655 35.7751 306.157 35.4389C306.663 35.098 307.236 34.9276 307.875 34.9276C308.008 34.9276 308.164 34.9323 308.344 34.9418C308.529 34.9512 308.673 34.9631 308.777 34.9773V37.0085C308.692 36.9848 308.541 36.9588 308.323 36.9304C308.105 36.8973 307.887 36.8807 307.669 36.8807C307.167 36.8807 306.72 36.9872 306.327 37.2003C305.939 37.4086 305.631 37.6998 305.404 38.0739C305.176 38.4432 305.063 38.8646 305.063 39.3381V46H302.939ZM310.615 46V35.0909H312.668V36.8239H312.781C312.98 36.2367 313.33 35.7751 313.832 35.4389C314.339 35.098 314.912 34.9276 315.551 34.9276C315.684 34.9276 315.84 34.9323 316.02 34.9418C316.205 34.9512 316.349 34.9631 316.453 34.9773V37.0085C316.368 36.9848 316.216 36.9588 315.999 36.9304C315.781 36.8973 315.563 36.8807 315.345 36.8807C314.843 36.8807 314.396 36.9872 314.003 37.2003C313.615 37.4086 313.307 37.6998 313.08 38.0739C312.852 38.4432 312.739 38.8646 312.739 39.3381V46H310.615ZM322.602 46.2202C321.527 46.2202 320.601 45.9905 319.825 45.5312C319.053 45.0672 318.457 44.4162 318.035 43.5781C317.618 42.7353 317.41 41.7481 317.41 40.6165C317.41 39.4991 317.618 38.5142 318.035 37.6619C318.457 36.8097 319.044 36.1444 319.797 35.6662C320.554 35.188 321.44 34.9489 322.453 34.9489C323.068 34.9489 323.665 35.0507 324.243 35.2543C324.82 35.4579 325.339 35.7775 325.798 36.2131C326.257 36.6487 326.619 37.2145 326.885 37.9105C327.15 38.6018 327.282 39.4422 327.282 40.4318V41.1847H318.61V39.5938H325.201C325.201 39.035 325.088 38.5402 324.86 38.1094C324.633 37.6738 324.314 37.3305 323.902 37.0795C323.494 36.8286 323.016 36.7031 322.467 36.7031C321.87 36.7031 321.35 36.8499 320.904 37.1435C320.464 37.4323 320.123 37.8111 319.882 38.2798C319.645 38.7438 319.527 39.2481 319.527 39.7926V41.0355C319.527 41.7647 319.654 42.3849 319.91 42.8963C320.171 43.4077 320.533 43.7983 320.997 44.0682C321.461 44.3333 322.003 44.4659 322.623 44.4659C323.026 44.4659 323.393 44.4091 323.724 44.2955C324.056 44.1771 324.342 44.0019 324.583 43.7699C324.825 43.5379 325.01 43.2514 325.137 42.9105L327.147 43.2727C326.986 43.8646 326.698 44.383 326.281 44.8281C325.869 45.2685 325.35 45.6117 324.725 45.858C324.105 46.0994 323.397 46.2202 322.602 46.2202ZM334.234 46.2202C333.178 46.2202 332.269 45.9811 331.506 45.5028C330.749 45.0199 330.166 44.3546 329.759 43.5071C329.352 42.6596 329.148 41.6889 329.148 40.5952C329.148 39.4872 329.357 38.5095 329.773 37.6619C330.19 36.8097 330.777 36.1444 331.535 35.6662C332.292 35.188 333.185 34.9489 334.212 34.9489C335.041 34.9489 335.78 35.1027 336.428 35.4105C337.077 35.7135 337.6 36.1397 337.998 36.6889C338.4 37.2382 338.639 37.8797 338.715 38.6136H336.648C336.535 38.1023 336.274 37.6619 335.867 37.2926C335.465 36.9233 334.925 36.7386 334.248 36.7386C333.656 36.7386 333.138 36.8949 332.692 37.2074C332.252 37.5152 331.909 37.9555 331.663 38.5284C331.416 39.0966 331.293 39.7689 331.293 40.5455C331.293 41.3409 331.414 42.0275 331.656 42.6051C331.897 43.1828 332.238 43.6302 332.678 43.9474C333.123 44.2647 333.647 44.4233 334.248 44.4233C334.65 44.4233 335.015 44.3499 335.342 44.2031C335.673 44.0516 335.95 43.8362 336.173 43.5568C336.4 43.2775 336.558 42.9413 336.648 42.5483H338.715C338.639 43.2538 338.41 43.8835 338.026 44.4375C337.643 44.9915 337.129 45.4271 336.485 45.7443C335.846 46.0616 335.095 46.2202 334.234 46.2202ZM346.078 35.0909V36.7955H340.12V35.0909H346.078ZM341.718 32.4773H343.841V42.7969C343.841 43.2088 343.903 43.5189 344.026 43.7273C344.149 43.9309 344.308 44.0705 344.502 44.1463C344.701 44.2173 344.916 44.2528 345.148 44.2528C345.319 44.2528 345.468 44.241 345.596 44.2173C345.723 44.1937 345.823 44.1747 345.894 44.1605L346.277 45.9148C346.154 45.9621 345.979 46.0095 345.752 46.0568C345.525 46.1089 345.24 46.1373 344.9 46.142C344.341 46.1515 343.82 46.0521 343.337 45.8438C342.854 45.6354 342.463 45.3134 342.165 44.8778C341.867 44.4422 341.718 43.8954 341.718 43.2372V32.4773ZM351.602 46.2415C350.911 46.2415 350.286 46.1136 349.727 45.858C349.169 45.5975 348.726 45.2211 348.399 44.7287C348.077 44.2363 347.916 43.6326 347.916 42.9176C347.916 42.3021 348.035 41.7955 348.271 41.3977C348.508 41 348.828 40.6851 349.23 40.4531C349.633 40.2211 350.082 40.0459 350.58 39.9276C351.077 39.8092 351.583 39.7192 352.099 39.6577C352.753 39.5819 353.283 39.5204 353.69 39.473C354.098 39.4209 354.393 39.3381 354.578 39.2244C354.763 39.1108 354.855 38.9261 354.855 38.6705V38.6207C354.855 38.0005 354.68 37.5199 354.33 37.179C353.984 36.8381 353.468 36.6676 352.781 36.6676C352.066 36.6676 351.503 36.8262 351.091 37.1435C350.684 37.456 350.402 37.804 350.246 38.1875L348.25 37.733C348.487 37.0701 348.832 36.535 349.287 36.1278C349.746 35.7159 350.274 35.4176 350.871 35.233C351.467 35.0436 352.095 34.9489 352.753 34.9489C353.188 34.9489 353.65 35.0009 354.138 35.1051C354.63 35.2045 355.089 35.3892 355.516 35.6591C355.946 35.929 356.299 36.3149 356.574 36.8168C356.848 37.3139 356.986 37.9602 356.986 38.7557V46H354.912V44.5085H354.827C354.689 44.7831 354.483 45.053 354.209 45.3182C353.934 45.5833 353.581 45.8035 353.151 45.9787C352.72 46.1539 352.204 46.2415 351.602 46.2415ZM352.064 44.5369C352.651 44.5369 353.153 44.4209 353.57 44.1889C353.991 43.9569 354.311 43.6539 354.528 43.2798C354.751 42.901 354.862 42.4962 354.862 42.0653V40.6591C354.786 40.7348 354.64 40.8059 354.422 40.8722C354.209 40.9337 353.965 40.9882 353.69 41.0355C353.416 41.0781 353.148 41.1184 352.888 41.1562C352.627 41.1894 352.41 41.2178 352.234 41.2415C351.822 41.2936 351.446 41.3812 351.105 41.5043C350.769 41.6274 350.499 41.8049 350.295 42.0369C350.097 42.2642 349.997 42.5672 349.997 42.946C349.997 43.4716 350.191 43.8693 350.58 44.1392C350.968 44.4044 351.463 44.5369 352.064 44.5369ZM359.814 46V35.0909H361.853V36.8665H361.988C362.215 36.2652 362.587 35.7964 363.103 35.4602C363.619 35.1193 364.237 34.9489 364.956 34.9489C365.685 34.9489 366.296 35.1193 366.789 35.4602C367.286 35.8011 367.653 36.2699 367.89 36.8665H368.003C368.264 36.2841 368.678 35.8201 369.246 35.4744C369.814 35.1241 370.491 34.9489 371.277 34.9489C372.267 34.9489 373.074 35.259 373.699 35.8793C374.329 36.4995 374.644 37.4347 374.644 38.6847V46H372.52V38.8835C372.52 38.1449 372.319 37.6098 371.917 37.2784C371.514 36.947 371.033 36.7812 370.475 36.7812C369.783 36.7812 369.246 36.9943 368.863 37.4205C368.479 37.8419 368.287 38.384 368.287 39.0469V46H366.171V38.7486C366.171 38.1567 365.986 37.6809 365.617 37.321C365.248 36.9612 364.767 36.7812 364.175 36.7812C363.773 36.7812 363.401 36.8878 363.06 37.1009C362.724 37.3092 362.452 37.6004 362.243 37.9744C362.04 38.3485 361.938 38.7817 361.938 39.2741V46H359.814ZM382.192 46.2202C381.117 46.2202 380.191 45.9905 379.415 45.5312C378.643 45.0672 378.046 44.4162 377.625 43.5781C377.208 42.7353 377 41.7481 377 40.6165C377 39.4991 377.208 38.5142 377.625 37.6619C378.046 36.8097 378.634 36.1444 379.386 35.6662C380.144 35.188 381.029 34.9489 382.043 34.9489C382.658 34.9489 383.255 35.0507 383.832 35.2543C384.41 35.4579 384.929 35.7775 385.388 36.2131C385.847 36.6487 386.209 37.2145 386.474 37.9105C386.74 38.6018 386.872 39.4422 386.872 40.4318V41.1847H378.2V39.5938H384.791C384.791 39.035 384.678 38.5402 384.45 38.1094C384.223 37.6738 383.903 37.3305 383.491 37.0795C383.084 36.8286 382.606 36.7031 382.057 36.7031C381.46 36.7031 380.939 36.8499 380.494 37.1435C380.054 37.4323 379.713 37.8111 379.472 38.2798C379.235 38.7438 379.116 39.2481 379.116 39.7926V41.0355C379.116 41.7647 379.244 42.3849 379.5 42.8963C379.76 43.4077 380.123 43.7983 380.587 44.0682C381.051 44.3333 381.593 44.4659 382.213 44.4659C382.616 44.4659 382.982 44.4091 383.314 44.2955C383.645 44.1771 383.932 44.0019 384.173 43.7699C384.415 43.5379 384.599 43.2514 384.727 42.9105L386.737 43.2727C386.576 43.8646 386.287 44.383 385.871 44.8281C385.459 45.2685 384.94 45.6117 384.315 45.858C383.695 46.0994 382.987 46.2202 382.192 46.2202ZM391.352 39.5227V46H389.228V35.0909H391.267V36.8665H391.402C391.653 36.2888 392.046 35.8248 392.581 35.4744C393.12 35.1241 393.8 34.9489 394.619 34.9489C395.362 34.9489 396.013 35.1051 396.572 35.4176C397.131 35.7254 397.564 36.1847 397.872 36.7955C398.18 37.4062 398.333 38.1615 398.333 39.0611V46H396.21V39.3168C396.21 38.526 396.004 37.9081 395.592 37.4631C395.18 37.0133 394.614 36.7884 393.895 36.7884C393.402 36.7884 392.964 36.8949 392.581 37.108C392.202 37.321 391.901 37.6335 391.679 38.0455C391.461 38.4527 391.352 38.9451 391.352 39.5227ZM406.274 35.0909V36.7955H400.315V35.0909H406.274ZM401.913 32.4773H404.037V42.7969C404.037 43.2088 404.098 43.5189 404.221 43.7273C404.344 43.9309 404.503 44.0705 404.697 44.1463C404.896 44.2173 405.111 44.2528 405.343 44.2528C405.514 44.2528 405.663 44.241 405.791 44.2173C405.919 44.1937 406.018 44.1747 406.089 44.1605L406.473 45.9148C406.35 45.9621 406.174 46.0095 405.947 46.0568C405.72 46.1089 405.436 46.1373 405.095 46.142C404.536 46.1515 404.015 46.0521 403.532 45.8438C403.049 45.6354 402.659 45.3134 402.36 44.8778C402.062 44.4422 401.913 43.8954 401.913 43.2372V32.4773ZM413.207 46.2202C412.133 46.2202 411.207 45.9905 410.43 45.5312C409.659 45.0672 409.062 44.4162 408.641 43.5781C408.224 42.7353 408.016 41.7481 408.016 40.6165C408.016 39.4991 408.224 38.5142 408.641 37.6619C409.062 36.8097 409.649 36.1444 410.402 35.6662C411.16 35.188 412.045 34.9489 413.058 34.9489C413.674 34.9489 414.27 35.0507 414.848 35.2543C415.426 35.4579 415.944 35.7775 416.403 36.2131C416.863 36.6487 417.225 37.2145 417.49 37.9105C417.755 38.6018 417.888 39.4422 417.888 40.4318V41.1847H409.216V39.5938H415.807C415.807 39.035 415.693 38.5402 415.466 38.1094C415.239 37.6738 414.919 37.3305 414.507 37.0795C414.1 36.8286 413.622 36.7031 413.072 36.7031C412.476 36.7031 411.955 36.8499 411.51 37.1435C411.07 37.4323 410.729 37.8111 410.487 38.2798C410.25 38.7438 410.132 39.2481 410.132 39.7926V41.0355C410.132 41.7647 410.26 42.3849 410.516 42.8963C410.776 43.4077 411.138 43.7983 411.602 44.0682C412.066 44.3333 412.608 44.4659 413.229 44.4659C413.631 44.4659 413.998 44.4091 414.33 44.2955C414.661 44.1771 414.947 44.0019 415.189 43.7699C415.43 43.5379 415.615 43.2514 415.743 42.9105L417.753 43.2727C417.592 43.8646 417.303 44.383 416.886 44.8281C416.474 45.2685 415.956 45.6117 415.331 45.858C414.711 46.0994 414.003 46.2202 413.207 46.2202Z" fill="white"/>
<g filter="url(#filter0_d_6_8)">
<path d="M33 19.125C38.8016 19.125 44.3656 21.4297 48.468 25.532C52.5703 29.6344 54.875 35.1984 54.875 41C54.875 46.8016 52.5703 52.3656 48.468 56.468C44.3656 60.5703 38.8016 62.875 33 62.875C27.1984 62.875 21.6344 60.5703 17.532 56.468C13.4297 52.3656 11.125 46.8016 11.125 41C11.125 35.1984 13.4297 29.6344 17.532 25.532C21.6344 21.4297 27.1984 19.125 33 19.125ZM30.275 45.3156L25.4156 40.4531C25.2414 40.2789 25.0346 40.1407 24.807 40.0464C24.5794 39.9522 24.3354 39.9036 24.0891 39.9036C23.8427 39.9036 23.5987 39.9522 23.3711 40.0464C23.1435 40.1407 22.9367 40.2789 22.7625 40.4531C22.4107 40.805 22.213 41.2821 22.213 41.7797C22.213 42.2772 22.4107 42.7544 22.7625 43.1062L28.95 49.2938C29.1237 49.4688 29.3304 49.6078 29.558 49.7026C29.7857 49.7975 30.0299 49.8463 30.2766 49.8463C30.5232 49.8463 30.7674 49.7975 30.9951 49.7026C31.2228 49.6078 31.4294 49.4688 31.6031 49.2938L44.4156 36.4781C44.5922 36.3046 44.7326 36.0979 44.8288 35.8699C44.9251 35.6419 44.9752 35.397 44.9764 35.1495C44.9775 34.902 44.9297 34.6567 44.8355 34.4278C44.7414 34.1989 44.6029 33.9909 44.428 33.8158C44.2531 33.6406 44.0452 33.5019 43.8164 33.4075C43.5876 33.3131 43.3424 33.265 43.0949 33.2658C42.8474 33.2667 42.6025 33.3165 42.3743 33.4125C42.1462 33.5085 41.9393 33.6487 41.7656 33.825L30.275 45.3156Z" fill="white"/>
</g>
<defs>
<filter id="filter0_d_6_8" x="-2" y="10" width="70" height="70" filterUnits="userSpaceOnUse" color-interpolation-filters="sRGB">
<feFlood flood-opacity="0" result="BackgroundImageFix"/>
<feColorMatrix in="SourceAlpha" type="matrix" values="0 0 0 0 0 0 0 0 0 0 0 0 0 0 0 0 0 0 127 0" result="hardAlpha"/>
<feOffset dy="4"/>
<feGaussianBlur stdDeviation="5"/>
<feComposite in2="hardAlpha" operator="out"/>
<feColorMatrix type="matrix" values="0 0 0 0 0 0 0 0 0 0 0 0 0 0 0 0 0 0 0.25 0"/>
<feBlend mode="normal" in2="BackgroundImageFix" result="effect1_dropShadow_6_8"/>
<feBlend mode="normal" in="SourceGraphic" in2="effect1_dropShadow_6_8" result="shape"/>
</filter>
</defs>
</svg>
